comic-neue_light-oblique.sfdir
StartChar: exclam
Encoding: 33 33 4
Width: 471
GlyphClass: 2
Flags: W
LayerCount: 2
Back
Fore
SplineSet
2.5 10.5 m 128,-1,1
 -4 23 -4 23 4 39 c 1,2,-1
 4 41 l 1,3,-1
 16 82 l 2,4,5
 20 98 20 98 25.5 109.5 c 128,-1,6
 31 121 31 121 31 123 c 0,7,8
 35 137 35 137 48 146.5 c 128,-1,9
 61 156 61 156 76 156 c 2,10,-1
 82 156 l 1,11,12
 98 152 98 152 104 139 c 0,13,14
 110 127 110 127 104 111 c 2,15,-1
 76 23 l 1,16,-1
 76 20 l 1,17,18
 62 -6 62 -6 33 -6 c 2,19,-1
 23 -6 l 1,20,0
 9 -2 9 -2 2.5 10.5 c 128,-1,1
84 342 m 2,21,-1
 86 356 l 1,22,-1
 299 1348 l 1,23,-1
 305 1370 l 2,24,25
 309 1386 309 1386 323.5 1398.5 c 128,-1,26
 338 1411 338 1411 354 1411 c 256,27,28
 370 1411 370 1411 380.5 1398.5 c 128,-1,29
 391 1386 391 1386 387 1370 c 1,30,-1
 379 1348 l 1,31,-1
 381 1348 l 1,32,-1
 166 346 l 1,33,-1
 166 342 l 1,34,35
 162 326 162 326 147.5 313.5 c 128,-1,36
 133 301 133 301 117 301 c 256,37,38
 101 301 101 301 91.5 313.5 c 128,-1,39
 82 326 82 326 84 342 c 2,21,-1
EndSplineSet
EndChar
StartChar: quotedbl
Encoding: 34 34 5
Width: 569
GlyphClass: 2
Flags: W
LayerCount: 2
Back
Fore
SplineSet
106 1061 m 2,0,-1
 172 1374 l 2,1,2
 176 1390 176 1390 189.5 1400.5 c 128,-1,3
 203 1411 203 1411 219 1411 c 256,4,5
 235 1411 235 1411 244.5 1401 c 128,-1,6
 254 1391 254 1391 250 1374 c 2,7,-1
 184 1061 l 2,8,9
 180 1045 180 1045 166.5 1034.5 c 128,-1,10
 153 1024 153 1024 137 1024 c 256,11,12
 121 1024 121 1024 111.5 1034 c 128,-1,13
 102 1044 102 1044 106 1061 c 2,0,-1
309 1061 m 2,14,-1
 375 1374 l 2,15,16
 379 1390 379 1390 392.5 1400.5 c 128,-1,17
 406 1411 406 1411 422 1411 c 256,18,19
 438 1411 438 1411 446.5 1401 c 128,-1,20
 455 1391 455 1391 451 1374 c 2,21,-1
 385 1061 l 2,22,23
 381 1045 381 1045 368.5 1034.5 c 128,-1,24
 356 1024 356 1024 340 1024 c 256,25,26
 324 1024 324 1024 314.5 1034 c 128,-1,27
 305 1044 305 1044 309 1061 c 2,14,-1
EndSplineSet
EndChar
StartChar: numbersign
Encoding: 35 35 6
Width: 1462
GlyphClass: 2
Flags: W
LayerCount: 2
Back
Fore
SplineSet
2 483 m 256,0,1
 6 499 6 499 19.5 510.5 c 128,-1,2
 33 522 33 522 49 522 c 2,3,-1
 346 522 l 1,4,-1
 541 909 l 1,5,-1
 225 909 l 2,6,7
 209 909 209 909 199.5 920.5 c 128,-1,8
 190 932 190 932 195 948 c 0,9,10
 199 964 199 964 212 974.5 c 128,-1,11
 225 985 225 985 242 985 c 2,12,-1
 580 985 l 1,13,-1
 782 1391 l 2,14,15
 788 1403 788 1403 800.5 1410 c 128,-1,16
 813 1417 813 1417 825 1417 c 2,17,-1
 836 1417 l 1,18,19
 852 1409 852 1409 854 1399 c 1,20,21
 860 1385 860 1385 852 1370 c 2,22,-1
 659 985 l 1,23,-1
 1026 985 l 1,24,-1
 1229 1391 l 1,25,26
 1245 1418 1245 1418 1272 1417 c 1,27,-1
 1284 1417 l 1,28,29
 1288 1413 1288 1413 1293 1409 c 128,-1,30
 1298 1405 1298 1405 1303 1399 c 1,31,32
 1307 1381 1307 1381 1298 1370 c 1,33,-1
 1106 985 l 1,34,-1
 1348 985 l 2,35,36
 1364 985 1364 985 1373 975 c 128,-1,37
 1382 965 1382 965 1378 948 c 0,38,39
 1374 932 1374 932 1361 920.5 c 128,-1,40
 1348 909 1348 909 1331 909 c 2,41,-1
 1067 909 l 1,42,-1
 872 522 l 1,43,-1
 1155 522 l 2,44,45
 1171 522 1171 522 1179.5 511 c 128,-1,46
 1188 500 1188 500 1184 483 c 0,47,48
 1180 467 1180 467 1167.5 456.5 c 128,-1,49
 1155 446 1155 446 1139 446 c 2,50,-1
 834 446 l 1,51,-1
 623 29 l 1,52,53
 619 17 619 17 606.5 8.5 c 128,-1,54
 594 0 594 0 582 0 c 0,55,56
 578 0 578 0 575.5 1 c 128,-1,57
 573 2 573 2 571 2 c 0,58,59
 555 6 555 6 550 19.5 c 128,-1,60
 545 33 545 33 555 49 c 1,61,-1
 754 446 l 1,62,-1
 387 446 l 1,63,-1
 176 29 l 2,64,65
 162 0 162 0 135 0 c 0,66,67
 131 0 131 0 129 1 c 128,-1,68
 127 2 127 2 125 2 c 0,69,70
 109 6 109 6 103.5 19.5 c 128,-1,71
 98 33 98 33 109 49 c 1,72,-1
 307 446 l 1,73,-1
 33 446 l 2,74,75
 17 446 17 446 7.5 456.5 c 128,-1,76
 -2 467 -2 467 2 483 c 256,0,1
426 522 m 1,77,-1
 793 522 l 1,78,-1
 987 909 l 1,79,-1
 621 909 l 1,80,-1
 426 522 l 1,77,-1
EndSplineSet
EndChar
StartChar: dollar
Encoding: 36 36 7
Width: 1228
GlyphClass: 2
Flags: W
LayerCount: 2
Back
Fore
SplineSet
1 294 m 128,-1,1
 0 299 0 299 2 303 c 1,2,3
 6 321 6 321 21.5 333.5 c 128,-1,4
 37 346 37 346 53 346 c 0,5,6
 86 346 86 346 90 313 c 1,7,-1
 92 311 l 1,8,9
 100 258 100 258 126 214 c 128,-1,10
 152 170 152 170 197 137 c 1,11,12
 281 80 281 80 393 68 c 1,13,-1
 414 66 l 1,14,-1
 551 707 l 1,15,-1
 537 711 l 1,16,17
 381 764 381 764 299 846 c 1,18,19
 205 946 205 946 244 1077 c 1,20,21
 324 1356 324 1356 678 1393 c 1,22,-1
 696 1395 l 1,23,-1
 721 1509 l 2,24,25
 725 1525 725 1525 737.5 1535.5 c 128,-1,26
 750 1546 750 1546 766 1546 c 256,27,28
 782 1546 782 1546 791.5 1536 c 128,-1,29
 801 1526 801 1526 797 1509 c 2,30,-1
 772 1397 l 1,31,-1
 815 1395 l 1,32,33
 848 1395 848 1395 891 1389.5 c 128,-1,34
 934 1384 934 1384 977 1370 c 128,-1,35
 1020 1356 1020 1356 1059 1331.5 c 128,-1,36
 1098 1307 1098 1307 1120 1268 c 1,37,38
 1155 1211 1155 1211 1141 1133 c 1,39,-1
 1141 1130 l 1,40,-1
 1141 1128 l 1,41,42
 1137 1114 1137 1114 1124.5 1104 c 128,-1,43
 1112 1094 1112 1094 1098 1094 c 256,44,45
 1084 1094 1084 1094 1074.5 1102 c 128,-1,46
 1065 1110 1065 1110 1067 1124 c 1,47,-1
 1067 1126 l 1,48,49
 1071 1183 1071 1183 1049 1225 c 1,50,51
 1008 1288 1008 1288 901 1315 c 0,52,53
 858 1325 858 1325 825.5 1329 c 128,-1,54
 793 1333 793 1333 784 1333 c 2,55,-1
 760 1335 l 1,56,-1
 639 770 l 1,57,-1
 653 766 l 1,58,59
 860 700 860 700 940 600 c 1,60,61
 1020 502 1020 502 983 365 c 1,62,63
 938 177 938 177 741 74 c 1,64,65
 667 33 667 33 598.5 17.5 c 128,-1,66
 530 2 530 2 494 -2 c 2,67,-1
 475 -4 l 1,68,-1
 451 -123 l 2,69,70
 447 -139 447 -139 433 -149.5 c 128,-1,71
 419 -160 419 -160 403 -160 c 256,72,73
 387 -160 387 -160 379 -149.5 c 128,-1,74
 371 -139 371 -139 375 -123 c 2,75,-1
 399 -6 l 1,76,-1
 381 -4 l 1,77,78
 227 8 227 8 126 85 c 128,-1,79
 25 162 25 162 2 283 c 1,80,-1
 2 285 l 2,81,0
 2 289 2 289 1 294 c 128,-1,1
332 1063 m 1,82,83
 285 899 285 899 545 801 c 1,84,-1
 569 791 l 1,85,-1
 682 1329 l 1,86,-1
 657 1325 l 1,87,88
 505 1302 505 1302 420 1221 c 1,89,90
 379 1180 379 1180 360.5 1138 c 128,-1,91
 342 1096 342 1096 332 1065 c 1,92,-1
 332 1063 l 1,82,83
492 68 m 1,93,-1
 514 72 l 1,94,95
 555 78 555 78 611.5 93.5 c 128,-1,96
 668 109 668 109 723 143 c 0,97,98
 858 225 858 225 895 375 c 0,99,100
 901 398 901 398 905 432.5 c 128,-1,101
 909 467 909 467 888.5 509 c 128,-1,102
 868 551 868 551 814 594 c 128,-1,103
 760 637 760 637 647 676 c 1,104,-1
 623 686 l 1,105,-1
 492 68 l 1,93,-1
EndSplineSet
EndChar
StartChar: percent
Encoding: 37 37 8
Width: 1234
GlyphClass: 2
Flags: W
LayerCount: 2
Back
Fore
SplineSet
82 31 m 0,0,1
 82 45 82 45 88 55 c 1,2,-1
 1092 1364 l 2,3,4
 1104 1380 1104 1380 1124 1380 c 0,5,6
 1136 1380 1136 1380 1139 1376 c 1,7,8
 1147 1372 1147 1372 1151 1358 c 0,9,10
 1155 1346 1155 1346 1143 1333 c 1,11,-1
 139 25 l 2,12,13
 126 8 126 8 106 8 c 0,14,15
 96 8 96 8 94 12 c 1,16,17
 82 18 82 18 82 31 c 0,0,1
110.5 1030 m 128,-1,19
 100 1077 100 1077 113 1130 c 1,20,21
 123 1183 123 1183 153.5 1230.5 c 128,-1,22
 184 1278 184 1278 227 1313 c 128,-1,23
 270 1348 270 1348 321.5 1368.5 c 128,-1,24
 373 1389 373 1389 426 1389 c 256,25,26
 479 1389 479 1389 522 1368.5 c 128,-1,27
 565 1348 565 1348 591.5 1313 c 128,-1,28
 618 1278 618 1278 628.5 1231 c 128,-1,29
 639 1184 639 1184 629 1130 c 1,30,31
 617 1077 617 1077 587 1030 c 128,-1,32
 557 983 557 983 514 948 c 128,-1,33
 471 913 471 913 419.5 892.5 c 128,-1,34
 368 872 368 872 315 872 c 256,35,36
 262 872 262 872 219 892.5 c 128,-1,37
 176 913 176 913 148.5 948 c 128,-1,18
 121 983 121 983 110.5 1030 c 128,-1,19
182 1130 m 0,38,39
 166 1052 166 1052 209 997 c 128,-1,40
 252 942 252 942 330 942 c 0,41,42
 369 942 369 942 406.5 956.5 c 128,-1,43
 444 971 444 971 475 996.5 c 128,-1,44
 506 1022 506 1022 528.5 1057 c 128,-1,45
 551 1092 551 1092 559 1130 c 0,46,47
 575 1208 575 1208 531.5 1263.5 c 128,-1,48
 488 1319 488 1319 410 1319 c 0,49,50
 371 1319 371 1319 333 1304.5 c 128,-1,51
 295 1290 295 1290 264 1264.5 c 128,-1,52
 233 1239 233 1239 211.5 1204 c 128,-1,53
 190 1169 190 1169 182 1130 c 0,38,39
592 149.5 m 128,-1,55
 582 197 582 197 592 250 c 1,56,57
 604 303 604 303 634 350 c 128,-1,58
 664 397 664 397 707 432 c 128,-1,59
 750 467 750 467 801 487.5 c 128,-1,60
 852 508 852 508 905 508 c 256,61,62
 958 508 958 508 1000 487.5 c 128,-1,63
 1042 467 1042 467 1070 432 c 128,-1,64
 1098 397 1098 397 1109 350 c 128,-1,65
 1120 303 1120 303 1108 250 c 1,66,67
 1098 197 1098 197 1067 149.5 c 128,-1,68
 1036 102 1036 102 994 67.5 c 128,-1,69
 952 33 952 33 901 12.5 c 128,-1,70
 850 -8 850 -8 797 -8 c 256,71,72
 744 -8 744 -8 700.5 12.5 c 128,-1,73
 657 33 657 33 629.5 67.5 c 128,-1,54
 602 102 602 102 592 149.5 c 128,-1,55
662 176 m 128,-1,75
 670 141 670 141 689.5 115.5 c 128,-1,76
 709 90 709 90 740.5 75.5 c 128,-1,77
 772 61 772 61 811 61 c 256,78,79
 850 61 850 61 888 75.5 c 128,-1,80
 926 90 926 90 956.5 115.5 c 128,-1,81
 987 141 987 141 1008.5 176 c 128,-1,82
 1030 211 1030 211 1038 250 c 0,83,84
 1054 328 1054 328 1011.5 383 c 128,-1,85
 969 438 969 438 891 438 c 0,86,87
 852 438 852 438 814 424 c 128,-1,88
 776 410 776 410 745.5 384 c 128,-1,89
 715 358 715 358 692.5 323.5 c 128,-1,90
 670 289 670 289 662 250 c 256,91,74
 654 211 654 211 662 176 c 128,-1,75
EndSplineSet
EndChar
StartChar: ampersand
Encoding: 38 38 9
Width: 1097
GlyphClass: 2
Flags: W
LayerCount: 2
Back
Fore
SplineSet
8 360 m 0,0,1
 26 444 26 444 65 506.5 c 128,-1,2
 104 569 104 569 159.5 618.5 c 128,-1,3
 215 668 215 668 283.5 705.5 c 128,-1,4
 352 743 352 743 428 780 c 2,5,-1
 455 793 l 1,6,-1
 440 813 l 1,7,8
 424 838 424 838 404.5 872.5 c 128,-1,9
 385 907 385 907 370.5 948 c 128,-1,10
 356 989 356 989 350 1036 c 128,-1,11
 344 1083 344 1083 354 1130 c 1,12,13
 364 1183 364 1183 399 1234.5 c 128,-1,14
 434 1286 434 1286 487 1327 c 0,15,16
 591 1407 591 1407 700 1407 c 256,17,18
 809 1407 809 1407 881 1323 c 0,19,20
 916 1282 916 1282 928 1233 c 128,-1,21
 940 1184 940 1184 930 1135 c 0,22,23
 920 1082 920 1082 900.5 1041.5 c 128,-1,24
 881 1001 881 1001 850 967 c 0,25,26
 813 926 813 926 755.5 885 c 128,-1,27
 698 844 698 844 608 797 c 0,28,29
 604 795 604 795 600 793 c 128,-1,30
 596 791 596 791 590 786 c 1,31,-1
 565 774 l 1,32,-1
 819 369 l 1,33,-1
 838 399 l 2,34,35
 861 434 861 434 882 469 c 128,-1,36
 903 504 903 504 922 545 c 1,37,-1
 936 571 l 1,38,39
 948 598 948 598 977 598 c 0,40,41
 991 598 991 598 999.5 588 c 128,-1,42
 1008 578 1008 578 1004 563 c 1,43,44
 1004 557 1004 557 999 553 c 1,45,-1
 987 528 l 1,46,47
 958 471 958 471 927.5 420 c 128,-1,48
 897 369 897 369 862 324 c 1,49,-1
 854 311 l 1,50,-1
 1012 59 l 1,51,52
 1016 47 1016 47 1014 37 c 0,53,54
 1010 23 1010 23 998.5 12.5 c 128,-1,55
 987 2 987 2 971 2 c 0,56,57
 953 2 953 2 946 16 c 1,58,-1
 803 246 l 1,59,-1
 782 225 l 1,60,61
 716 155 716 155 645.5 106 c 128,-1,62
 575 57 575 57 500 29 c 1,63,64
 441 4 441 4 396.5 -1 c 128,-1,65
 352 -6 352 -6 336 -6 c 0,66,67
 262 -6 262 -6 195.5 19.5 c 128,-1,68
 129 45 129 45 81 92 c 128,-1,69
 33 139 33 139 11.5 206.5 c 128,-1,70
 -10 274 -10 274 8 360 c 0,0,1
78 360 m 256,71,72
 62 284 62 284 83 228 c 128,-1,73
 104 172 104 172 147 135 c 128,-1,74
 190 98 190 98 244.5 80.5 c 128,-1,75
 299 63 299 63 350 63 c 0,76,77
 368 63 368 63 408.5 69.5 c 128,-1,78
 449 76 449 76 503 98.5 c 128,-1,79
 557 121 557 121 622.5 166 c 128,-1,80
 688 211 688 211 756 291 c 1,81,-1
 766 303 l 1,82,-1
 494 739 l 1,83,-1
 479 733 l 1,84,85
 407 698 407 698 341.5 664.5 c 128,-1,86
 276 631 276 631 223 589 c 128,-1,87
 170 547 170 547 132 491.5 c 128,-1,88
 94 436 94 436 78 360 c 256,71,72
420 1092.5 m 128,-1,90
 418 1067 418 1067 426 1029 c 128,-1,91
 434 991 434 991 454.5 943 c 128,-1,92
 475 895 475 895 518 840 c 1,93,-1
 526 827 l 1,94,-1
 543 836 l 2,95,96
 555 842 555 842 566.5 847 c 128,-1,97
 578 852 578 852 588 858 c 0,98,99
 748 942 748 942 803 1010 c 0,100,101
 832 1045 832 1045 842 1075.5 c 128,-1,102
 852 1106 852 1106 858 1135 c 0,103,104
 866 1172 866 1172 857 1208.5 c 128,-1,105
 848 1245 848 1245 821 1274 c 0,106,107
 766 1335 766 1335 684 1335 c 0,108,109
 647 1335 647 1335 605 1321 c 128,-1,110
 563 1307 563 1307 526 1278 c 0,111,112
 485 1247 485 1247 458.5 1209 c 128,-1,113
 432 1171 432 1171 424 1130 c 0,114,89
 422 1118 422 1118 420 1092.5 c 128,-1,90
EndSplineSet
EndChar
StartChar: quotesingle
Encoding: 39 39 10
Width: 227
GlyphClass: 2
Flags: W
LayerCount: 2
Back
Fore
SplineSet
84 1061 m 2,0,-1
 150 1374 l 2,1,2
 154 1390 154 1390 167 1400.5 c 128,-1,3
 180 1411 180 1411 197 1411 c 0,4,5
 213 1411 213 1411 221 1401 c 128,-1,6
 229 1391 229 1391 225 1374 c 2,7,-1
 160 1061 l 2,8,9
 156 1045 156 1045 143.5 1034.5 c 128,-1,10
 131 1024 131 1024 115 1024 c 256,11,12
 99 1024 99 1024 89.5 1034 c 128,-1,13
 80 1044 80 1044 84 1061 c 2,0,-1
EndSplineSet
EndChar
StartChar: parenleft
Encoding: 40 40 11
Width: 761
GlyphClass: 2
Flags: W
LayerCount: 2
Back
Fore
SplineSet
6 338 m 0,0,1
 -10 528 -10 528 31 719 c 0,2,3
 72 914 72 914 172 1096 c 1,4,5
 213 1168 213 1168 261 1239.5 c 128,-1,6
 309 1311 309 1311 369 1378 c 1,7,8
 418 1435 418 1435 464 1481.5 c 128,-1,9
 510 1528 510 1528 545 1558.5 c 128,-1,10
 580 1589 580 1589 600.5 1605.5 c 128,-1,11
 621 1622 621 1622 623 1624 c 0,12,13
 639 1632 639 1632 649 1632 c 0,14,15
 665 1632 665 1632 674 1618 c 0,16,17
 682 1606 682 1606 677 1590.5 c 128,-1,18
 672 1575 672 1575 659 1565 c 1,19,-1
 657 1565 l 1,20,21
 653 1563 653 1563 632.5 1546.5 c 128,-1,22
 612 1530 612 1530 580.5 1500 c 128,-1,23
 549 1470 549 1470 507 1428 c 128,-1,24
 465 1386 465 1386 420 1333 c 0,25,26
 367 1270 367 1270 320.5 1203.5 c 128,-1,27
 274 1137 274 1137 238 1069 c 1,28,29
 191 983 191 983 158 896 c 128,-1,30
 125 809 125 809 106 719 c 0,31,32
 88 629 88 629 81 540 c 128,-1,33
 74 451 74 451 82 362 c 0,34,35
 88 290 88 290 102.5 222 c 128,-1,36
 117 154 117 154 139 86 c 1,37,38
 180 -31 180 -31 220 -93.5 c 128,-1,39
 260 -156 260 -156 264 -160 c 0,40,41
 272 -170 272 -170 269 -186.5 c 128,-1,42
 266 -203 266 -203 252 -213 c 1,43,44
 241 -225 241 -225 223 -225 c 0,45,46
 207 -225 207 -225 199 -213 c 1,47,48
 176 -184 176 -184 154 -145 c 1,49,50
 134 -112 134 -112 112 -64 c 128,-1,51
 90 -16 90 -16 68 45 c 1,52,53
 45 117 45 117 28.5 189.5 c 128,-1,54
 12 262 12 262 6 338 c 0,0,1
EndSplineSet
EndChar
StartChar: parenright
Encoding: 41 41 12
Width: 761
GlyphClass: 2
Flags: W
LayerCount: 2
Back
Fore
SplineSet
3 -181.5 m 128,-1,1
 8 -166 8 -166 20 -156 c 1,2,-1
 23 -156 l 1,3,4
 25 -154 25 -154 46.5 -137.5 c 128,-1,5
 68 -121 68 -121 99.5 -91 c 128,-1,6
 131 -61 131 -61 173 -19 c 128,-1,7
 215 23 215 23 260 76 c 0,8,9
 313 139 313 139 359.5 205.5 c 128,-1,10
 406 272 406 272 442 340 c 1,11,12
 489 426 489 426 522 513 c 128,-1,13
 555 600 555 600 573 690 c 256,14,15
 591 780 591 780 598.5 869 c 128,-1,16
 606 958 606 958 598 1047 c 0,17,18
 592 1119 592 1119 577.5 1187 c 128,-1,19
 563 1255 563 1255 541 1323 c 1,20,21
 500 1440 500 1440 460 1502.5 c 128,-1,22
 420 1565 420 1565 416 1569 c 0,23,24
 408 1579 408 1579 411 1595.5 c 128,-1,25
 414 1612 414 1612 428 1622 c 1,26,27
 437 1634 437 1634 457 1634 c 0,28,29
 471 1634 471 1634 481 1622 c 1,30,31
 501 1591 501 1591 524 1554 c 1,32,33
 542 1519 542 1519 566 1472 c 128,-1,34
 590 1425 590 1425 612 1364 c 1,35,36
 635 1292 635 1292 651.5 1219.5 c 128,-1,37
 668 1147 668 1147 674 1071 c 0,38,39
 690 881 690 881 649 690 c 0,40,41
 608 495 608 495 508 313 c 1,42,43
 467 241 467 241 419 169.5 c 128,-1,44
 371 98 371 98 311 31 c 1,45,46
 262 -28 262 -28 216 -73.5 c 128,-1,47
 170 -119 170 -119 135 -149.5 c 128,-1,48
 100 -180 100 -180 79.5 -196.5 c 128,-1,49
 59 -213 59 -213 57 -215 c 0,50,51
 41 -223 41 -223 31 -223 c 0,52,53
 13 -223 13 -223 6 -209 c 1,54,0
 -2 -197 -2 -197 3 -181.5 c 128,-1,1
EndSplineSet
EndChar
StartChar: asterisk
Encoding: 42 42 13
Width: 604
GlyphClass: 2
Flags: W
LayerCount: 2
Back
Fore
SplineSet
2 938 m 0,0,1
 6 952 6 952 16 963 c 1,2,-1
 18 963 l 1,3,4
 18 963 18 963 30 973 c 0,5,6
 41 983 41 983 54.5 995.5 c 128,-1,7
 68 1008 68 1008 81 1020 c 128,-1,8
 94 1032 94 1032 98 1036 c 0,9,10
 108 1046 108 1046 123.5 1056.5 c 128,-1,11
 139 1067 139 1067 152 1077 c 0,12,13
 166 1087 166 1087 182 1098 c 2,14,-1
 223 1124 l 1,15,-1
 184 1135 l 1,16,-1
 174 1139 l 2,17,18
 164 1143 164 1143 150.5 1147 c 128,-1,19
 137 1151 137 1151 121.5 1158 c 128,-1,20
 106 1165 106 1165 96 1171 c 2,21,-1
 37 1206 l 1,22,23
 27 1214 27 1214 26 1227.5 c 128,-1,24
 25 1241 25 1241 35 1253 c 1,25,26
 47 1271 47 1271 68 1272 c 0,27,28
 74 1272 74 1272 86 1268 c 1,29,-1
 86 1266 l 1,30,31
 88 1266 88 1266 108.5 1254.5 c 128,-1,32
 129 1243 129 1243 137 1239 c 0,33,34
 147 1233 147 1233 158.5 1223.5 c 128,-1,35
 170 1214 170 1214 180 1206 c 1,36,37
 190 1196 190 1196 203 1186 c 1,38,-1
 240 1149 l 1,39,-1
 242 1206 l 2,40,41
 242 1222 242 1222 244 1241 c 0,42,43
 246 1257 246 1257 247 1273.5 c 128,-1,44
 248 1290 248 1290 252 1303 c 1,45,46
 252 1307 252 1307 254 1316 c 128,-1,47
 256 1325 256 1325 258 1335 c 256,48,49
 260 1345 260 1345 262 1358 c 1,50,51
 266 1372 266 1372 277.5 1382.5 c 128,-1,52
 289 1393 289 1393 305 1393 c 256,53,54
 321 1393 321 1393 329.5 1382.5 c 128,-1,55
 338 1372 338 1372 334 1358 c 1,56,57
 332 1346 332 1346 330 1335 c 0,58,59
 326 1315 326 1315 322 1300 c 0,60,61
 318 1286 318 1286 313.5 1270.5 c 128,-1,62
 309 1255 309 1255 303 1239 c 1,63,64
 295 1221 295 1221 289 1204 c 2,65,-1
 268 1147 l 1,66,-1
 319 1184 l 2,67,68
 333 1194 333 1194 350 1202 c 1,69,70
 362 1210 362 1210 377.5 1219.5 c 128,-1,71
 393 1229 393 1229 408 1235 c 0,72,73
 418 1239 418 1239 444.5 1251.5 c 128,-1,74
 471 1264 471 1264 473 1266 c 0,75,76
 479 1270 479 1270 492 1270 c 0,77,78
 515 1270 515 1270 520 1253 c 0,79,80
 524 1239 524 1239 518 1225 c 1,81,82
 510 1211 510 1211 496 1204 c 0,83,84
 494 1202 494 1202 483.5 1198 c 128,-1,85
 473 1194 473 1194 461 1188 c 128,-1,86
 449 1182 449 1182 436.5 1175.5 c 128,-1,87
 424 1169 424 1169 418 1167 c 0,88,89
 395 1157 395 1157 363.5 1150 c 128,-1,90
 332 1143 332 1143 317 1139 c 2,91,-1
 264 1128 l 1,92,-1
 303 1100 l 1,93,94
 315 1090 315 1090 326 1081 c 0,95,96
 336 1073 336 1073 344 1062 c 128,-1,97
 352 1051 352 1051 360 1040 c 0,98,99
 364 1036 364 1036 372.5 1024 c 128,-1,100
 381 1012 381 1012 390 999.5 c 128,-1,101
 399 987 399 987 406.5 977 c 128,-1,102
 414 967 414 967 414 965 c 1,103,104
 422 957 422 957 418 940 c 0,105,106
 414 924 414 924 401 913 c 1,107,108
 391 903 391 903 375 903 c 0,109,110
 363 903 363 903 352 913 c 0,111,112
 350 915 350 915 343 926.5 c 128,-1,113
 336 938 336 938 326.5 952.5 c 128,-1,114
 317 967 317 967 308 979 c 128,-1,115
 299 991 299 991 297 995 c 0,116,117
 291 1005 291 1005 283.5 1019.5 c 128,-1,118
 276 1034 276 1034 270 1047 c 1,119,120
 262 1061 262 1061 258 1077 c 2,121,-1
 248 1110 l 1,122,-1
 221 1077 l 2,123,124
 207 1061 207 1061 195 1044 c 1,125,126
 172 1015 172 1015 150 993 c 1,127,128
 144 989 144 989 129.5 977 c 128,-1,129
 115 965 115 965 99.5 950.5 c 128,-1,130
 84 936 84 936 71.5 924.5 c 128,-1,131
 59 913 59 913 57 911 c 0,132,133
 43 901 43 901 31 901 c 0,134,135
 15 901 15 901 8 911 c 1,136,137
 -2 921 -2 921 2 938 c 0,0,1
EndSplineSet
EndChar
StartChar: plus
Encoding: 43 43 14
Width: 755
GlyphClass: 2
Flags: W
LayerCount: 2
Back
Fore
SplineSet
2 518 m 0,0,1
 6 532 6 532 18.5 542.5 c 128,-1,2
 31 553 31 553 45 553 c 2,3,-1
 309 553 l 1,4,-1
 354 768 l 1,5,-1
 360 793 l 2,6,7
 364 807 364 807 375.5 817 c 128,-1,8
 387 827 387 827 401 827 c 0,9,10
 417 827 417 827 426.5 817 c 128,-1,11
 436 807 436 807 432 793 c 2,12,-1
 426 768 l 1,13,-1
 381 553 l 1,14,-1
 643 553 l 2,15,16
 659 553 659 553 667.5 542.5 c 128,-1,17
 676 532 676 532 672 518 c 0,18,19
 668 502 668 502 655.5 491.5 c 128,-1,20
 643 481 643 481 627 481 c 2,21,-1
 365 481 l 1,22,-1
 311 225 l 1,23,-1
 309 219 l 2,24,25
 305 205 305 205 293.5 194.5 c 128,-1,26
 282 184 282 184 266 184 c 0,27,28
 252 184 252 184 242.5 194.5 c 128,-1,29
 233 205 233 205 238 219 c 1,30,-1
 293 481 l 1,31,-1
 29 481 l 2,32,33
 15 481 15 481 6.5 491.5 c 128,-1,34
 -2 502 -2 502 2 518 c 0,0,1
EndSplineSet
EndChar
StartChar: comma
Encoding: 44 44 15
Width: 239
GlyphClass: 2
Flags: W
LayerCount: 2
Back
Fore
SplineSet
-117 -150 m 2,0,-1
 -25 0 l 1,1,-1
 -35 10 l 1,2,3
 -53 30 -53 30 -43 66 c 1,4,5
 -33 95 -33 95 -9.5 114 c 128,-1,6
 14 133 14 133 37 133 c 256,7,8
 60 133 60 133 68 119 c 1,9,10
 82 99 82 99 72 72 c 1,11,-1
 70 70 l 1,12,13
 66 58 66 58 57 41 c 0,14,15
 51 31 51 31 30.5 -3 c 128,-1,16
 10 -37 10 -37 -12.5 -73 c 128,-1,17
 -35 -109 -35 -109 -52 -138 c 2,18,-1
 -70 -168 l 2,19,20
 -80 -186 -80 -186 -98 -186 c 0,21,22
 -102 -186 -102 -186 -104 -185 c 128,-1,23
 -106 -184 -106 -184 -109 -184 c 1,24,25
 -132 -174 -132 -174 -117 -150 c 2,0,-1
EndSplineSet
EndChar
StartChar: hyphen
Encoding: 45 45 16
Width: 665
GlyphClass: 2
Flags: W
LayerCount: 2
Back
Fore
SplineSet
2 510 m 256,0,1
 6 526 6 526 19.5 537.5 c 128,-1,2
 33 549 33 549 49 549 c 2,3,-1
 551 549 l 2,4,5
 567 549 567 549 576.5 537.5 c 128,-1,6
 586 526 586 526 582 510 c 256,7,8
 578 494 578 494 564.5 482.5 c 128,-1,9
 551 471 551 471 535 471 c 2,10,-1
 33 471 l 2,11,12
 17 471 17 471 7.5 482.5 c 128,-1,13
 -2 494 -2 494 2 510 c 256,0,1
EndSplineSet
EndChar
StartChar: period
Encoding: 46 46 17
Width: 284
GlyphClass: 2
Flags: W
LayerCount: 2
Back
Fore
SplineSet
4 63 m 256,0,1
 14 92 14 92 36.5 112.5 c 128,-1,2
 59 133 59 133 82 133 c 0,3,4
 94 133 94 133 101.5 128 c 128,-1,5
 109 123 109 123 113 117 c 0,6,7
 119 107 119 107 120 94.5 c 128,-1,8
 121 82 121 82 119 68 c 1,9,10
 109 39 109 39 85.5 19.5 c 128,-1,11
 62 0 62 0 39 0 c 0,12,13
 14 0 14 0 8 14 c 1,14,15
 -6 34 -6 34 4 63 c 256,0,1
EndSplineSet
EndChar
StartChar: slash
Encoding: 47 47 18
Width: 1101
GlyphClass: 2
Flags: W
LayerCount: 2
Back
Fore
SplineSet
1 28.5 m 128,-1,1
 0 43 0 43 8 57 c 1,2,-1
 1034 1395 l 2,3,4
 1048 1413 1048 1413 1071 1413 c 0,5,6
 1077 1413 1077 1413 1090 1409 c 1,7,8
 1102 1399 1102 1399 1102 1386 c 0,9,10
 1102 1368 1102 1368 1092 1358 c 1,11,-1
 70 20 l 1,12,13
 49 0 49 0 33 0 c 0,14,15
 21 0 21 0 14 6 c 1,16,0
 2 14 2 14 1 28.5 c 128,-1,1
EndSplineSet
EndChar
StartChar: zero
Encoding: 48 48 19
Width: 1069
GlyphClass: 2
Flags: W
LayerCount: 2
Back
Fore
SplineSet
6 378.5 m 128,-1,1
 -10 532 -10 532 33 707 c 0,2,3
 68 848 68 848 133.5 975 c 128,-1,4
 199 1102 199 1102 291 1200 c 1,5,6
 385 1304 385 1304 487.5 1357.5 c 128,-1,7
 590 1411 590 1411 688 1411 c 0,8,9
 842 1411 842 1411 934 1284 c 0,10,11
 1006 1186 1006 1186 1022 1032.5 c 128,-1,12
 1038 879 1038 879 997 705 c 1,13,14
 960 564 960 564 893.5 436.5 c 128,-1,15
 827 309 827 309 735 211 c 1,16,17
 643 107 643 107 541.5 53.5 c 128,-1,18
 440 0 440 0 342 0 c 0,19,20
 186 0 186 0 96 127 c 1,21,0
 22 225 22 225 6 378.5 c 128,-1,1
77.5 405.5 m 128,-1,23
 92 266 92 266 158 178 c 1,24,25
 232 74 232 74 356 74 c 0,26,27
 440 74 440 74 527 122 c 128,-1,28
 614 170 614 170 698 262 c 1,29,30
 776 352 776 352 834.5 466 c 128,-1,31
 893 580 893 580 926 707 c 1,32,33
 965 867 965 867 950.5 1005 c 128,-1,34
 936 1143 936 1143 870 1233 c 1,35,36
 791 1337 791 1337 672 1337 c 0,37,38
 586 1337 586 1337 499 1289 c 128,-1,39
 412 1241 412 1241 332 1149 c 1,40,41
 252 1059 252 1059 193.5 945 c 128,-1,42
 135 831 135 831 104 705 c 1,43,22
 63 545 63 545 77.5 405.5 c 128,-1,23
EndSplineSet
EndChar
StartChar: one
Encoding: 49 49 20
Width: 749
GlyphClass: 2
Flags: W
LayerCount: 2
Back
Fore
SplineSet
2 37 m 0,0,1
 12 76 12 76 47 76 c 2,2,-1
 256 76 l 1,3,-1
 526 1255 l 1,4,-1
 274 1034 l 1,5,6
 262 1022 262 1022 246 1022 c 0,7,8
 232 1022 232 1022 221 1032 c 0,9,10
 211 1042 211 1042 214 1058.5 c 128,-1,11
 217 1075 217 1075 229 1087 c 1,12,-1
 565 1380 l 1,13,14
 577 1392 577 1392 594 1393 c 0,15,16
 604 1393 604 1393 608 1391 c 0,17,18
 631 1379 631 1379 625 1354 c 2,19,-1
 332 76 l 1,20,-1
 508 76 l 2,21,22
 524 76 524 76 533.5 64.5 c 128,-1,23
 543 53 543 53 539 37 c 256,24,25
 535 21 535 21 522.5 10.5 c 128,-1,26
 510 0 510 0 494 0 c 2,27,-1
 33 0 l 2,28,29
 17 0 17 0 7.5 10 c 128,-1,30
 -2 20 -2 20 2 37 c 0,0,1
EndSplineSet
EndChar
StartChar: two
Encoding: 50 50 21
Width: 1056
GlyphClass: 2
Flags: W
LayerCount: 2
Back
Fore
SplineSet
0 -2 m 1,0,-1
 8 37 l 1,1,2
 63 289 63 289 238 457 c 0,3,4
 314 531 314 531 399.5 585 c 128,-1,5
 485 639 485 639 567 686 c 0,6,7
 635 725 635 725 693.5 761 c 128,-1,8
 752 797 752 797 799 838 c 0,9,10
 854 885 854 885 886 937 c 128,-1,11
 918 989 918 989 932 1051 c 1,12,13
 955 1168 955 1168 885 1239 c 1,14,15
 815 1313 815 1313 686 1313 c 0,16,17
 610 1313 610 1313 543.5 1287.5 c 128,-1,18
 477 1262 477 1262 425 1230 c 128,-1,19
 373 1198 373 1198 340 1168.5 c 128,-1,20
 307 1139 307 1139 301 1133 c 1,21,22
 283 1119 283 1119 268 1118 c 0,23,24
 254 1118 254 1118 246 1126 c 0,25,26
 236 1136 236 1136 237 1151.5 c 128,-1,27
 238 1167 238 1167 252 1180 c 0,28,29
 268 1196 268 1196 312 1233 c 128,-1,30
 356 1270 356 1270 422 1309 c 1,31,32
 565 1389 565 1389 702 1389 c 0,33,34
 856 1389 856 1389 946 1298 c 1,35,36
 1038 1200 1038 1200 1008 1051 c 1,37,38
 992 977 992 977 955 914.5 c 128,-1,39
 918 852 918 852 854 795 c 0,40,41
 797 744 797 744 729.5 703 c 128,-1,42
 662 662 662 662 596 623 c 0,43,44
 516 576 516 576 435 525.5 c 128,-1,45
 354 475 354 475 285 408 c 1,46,47
 217 340 217 340 166 254 c 0,48,49
 121 178 121 178 98 96 c 2,50,-1
 92 74 l 1,51,-1
 780 74 l 2,52,53
 796 74 796 74 804.5 63.5 c 128,-1,54
 813 53 813 53 809 37 c 256,55,56
 805 21 805 21 792.5 9.5 c 128,-1,57
 780 -2 780 -2 764 -2 c 2,58,-1
 0 -2 l 1,0,-1
EndSplineSet
EndChar
StartChar: three
Encoding: 51 51 22
Width: 1044
GlyphClass: 2
Flags: W
LayerCount: 2
Back
Fore
SplineSet
1 235.5 m 128,-1,1
 0 242 0 242 4 246 c 1,2,3
 14 277 14 277 47 276 c 1,4,-1
 51 276 l 1,5,6
 74 272 74 272 76 256 c 1,7,-1
 78 248 l 1,8,9
 82 244 82 244 93 217 c 128,-1,10
 104 190 104 190 135 160 c 1,11,12
 217 74 217 74 362 74 c 0,13,14
 405 74 405 74 467.5 90 c 128,-1,15
 530 106 530 106 594 147 c 1,16,17
 731 241 731 241 768 406 c 1,18,19
 793 523 793 523 752 600 c 0,20,21
 736 631 736 631 710 656.5 c 128,-1,22
 684 682 684 682 645 700 c 1,23,24
 614 716 614 716 582.5 725.5 c 128,-1,25
 551 735 551 735 524 739 c 1,26,27
 493 745 493 745 467 745 c 0,28,29
 451 745 451 745 441.5 756.5 c 128,-1,30
 432 768 432 768 436 784 c 256,31,32
 440 800 440 800 453.5 810.5 c 128,-1,33
 467 821 467 821 483 821 c 0,34,35
 534 821 534 821 598 841.5 c 128,-1,36
 662 862 662 862 721 897 c 0,37,38
 807 948 807 948 839.5 1002.5 c 128,-1,39
 872 1057 872 1057 881 1098 c 0,40,41
 889 1137 889 1137 877.5 1177 c 128,-1,42
 866 1217 866 1217 834.5 1247.5 c 128,-1,43
 803 1278 803 1278 749.5 1297.5 c 128,-1,44
 696 1317 696 1317 623 1317 c 0,45,46
 560 1317 560 1317 509.5 1304.5 c 128,-1,47
 459 1292 459 1292 423 1277 c 128,-1,48
 387 1262 387 1262 365.5 1247.5 c 128,-1,49
 344 1233 344 1233 340 1229 c 2,50,-1
 336 1225 l 1,51,52
 326 1217 326 1217 309 1217 c 0,53,54
 293 1217 293 1217 284.5 1227 c 128,-1,55
 276 1237 276 1237 281 1253 c 1,56,57
 283 1267 283 1267 295 1280 c 1,58,59
 299 1282 299 1282 323.5 1299.5 c 128,-1,60
 348 1317 348 1317 389 1337 c 0,61,62
 506 1392 506 1392 639 1393 c 1,63,64
 809 1393 809 1393 897 1305 c 0,65,66
 938 1264 938 1264 953.5 1209.5 c 128,-1,67
 969 1155 969 1155 956 1098 c 1,68,69
 940 1020 940 1020 887 953.5 c 128,-1,70
 834 887 834 887 748 834 c 0,71,72
 738 828 738 828 724.5 820.5 c 128,-1,73
 711 813 711 813 696 807 c 1,74,-1
 657 786 l 1,75,-1
 692 768 l 1,76,77
 780 721 780 721 821 645 c 0,78,79
 872 549 872 549 844 406 c 1,80,81
 815 279 815 279 750.5 203 c 128,-1,82
 686 127 686 127 627 88 c 1,83,84
 561 47 561 47 487.5 22.5 c 128,-1,85
 414 -2 414 -2 346 -2 c 0,86,87
 235 -2 235 -2 169.5 34 c 128,-1,88
 104 70 104 70 72 106 c 1,89,90
 35 145 35 145 20.5 178 c 128,-1,91
 6 211 6 211 4 215 c 1,92,-1
 4 217 l 1,93,-1
 2 225 l 2,94,0
 2 229 2 229 1 235.5 c 128,-1,1
EndSplineSet
EndChar
StartChar: four
Encoding: 52 52 23
Width: 991
GlyphClass: 2
Flags: W
LayerCount: 2
Back
Fore
SplineSet
2 381 m 1,0,1
 -4 397 -4 397 12 418 c 2,2,-1
 799 1378 l 2,3,4
 813 1396 813 1396 834 1397 c 0,5,6
 842 1397 842 1397 844 1395 c 1,7,8
 871 1389 871 1389 866 1360 c 1,9,-1
 668 426 l 1,10,-1
 760 424 l 2,11,12
 776 424 776 424 784.5 412.5 c 128,-1,13
 793 401 793 401 788 385 c 0,14,15
 784 369 784 369 772 358.5 c 128,-1,16
 760 348 760 348 743 348 c 2,17,-1
 651 350 l 1,18,-1
 586 39 l 2,19,20
 582 23 582 23 568.5 12.5 c 128,-1,21
 555 2 555 2 539 2 c 256,22,23
 523 2 523 2 514.5 12.5 c 128,-1,24
 506 23 506 23 510 39 c 2,25,-1
 575 350 l 1,26,-1
 31 360 l 2,27,28
 13 360 13 360 2 381 c 1,0,1
115 434 m 1,29,-1
 592 426 l 1,30,-1
 762 1225 l 1,31,-1
 115 434 l 1,29,-1
EndSplineSet
EndChar
StartChar: five
Encoding: 53 53 24
Width: 1087
GlyphClass: 2
Flags: W
LayerCount: 2
Back
Fore
SplineSet
0 221 m 1,0,-1
 0 240 l 1,1,2
 4 256 4 256 17.5 266 c 128,-1,3
 31 276 31 276 47 276 c 0,4,5
 57 276 57 276 65.5 272 c 128,-1,6
 74 268 74 268 76 258 c 1,7,-1
 78 256 l 1,8,-1
 78 254 l 1,9,10
 82 246 82 246 96.5 219.5 c 128,-1,11
 111 193 111 193 139 164 c 1,12,13
 231 76 231 76 369 76 c 0,14,15
 437 76 437 76 513.5 107.5 c 128,-1,16
 590 139 590 139 655 199 c 1,17,18
 731 262 731 262 780 346 c 128,-1,19
 829 430 829 430 850 522 c 1,20,21
 866 600 866 600 859 667.5 c 128,-1,22
 852 735 852 735 823 788 c 0,23,24
 757 913 757 913 588 913 c 0,25,26
 514 913 514 913 450.5 890.5 c 128,-1,27
 387 868 387 868 339 841.5 c 128,-1,28
 291 815 291 815 264 792 c 2,29,-1
 236 768 l 1,30,31
 220 756 220 756 205 756 c 0,32,33
 195 756 195 756 188 758 c 0,34,35
 178 762 178 762 174 773 c 128,-1,36
 170 784 170 784 174 797 c 2,37,-1
 352 1360 l 2,38,39
 362 1393 362 1393 395 1393 c 2,40,-1
 1014 1393 l 2,41,42
 1030 1393 1030 1393 1039.5 1382.5 c 128,-1,43
 1049 1372 1049 1372 1044 1356 c 0,44,45
 1040 1340 1040 1340 1027 1328.5 c 128,-1,46
 1014 1317 1014 1317 997 1317 c 2,47,-1
 414 1317 l 1,48,-1
 281 889 l 1,49,-1
 322 911 l 1,50,51
 465 989 465 989 604 989 c 0,52,53
 690 989 690 989 758.5 959.5 c 128,-1,54
 827 930 827 930 872 872 c 1,55,56
 921 806 921 806 935.5 718.5 c 128,-1,57
 950 631 950 631 928 522 c 0,58,59
 905 413 905 413 845.5 317 c 128,-1,60
 786 221 786 221 700 145 c 1,61,62
 618 75 618 75 529 37.5 c 128,-1,63
 440 0 440 0 354 0 c 256,64,65
 268 0 268 0 197.5 27.5 c 128,-1,66
 127 55 127 55 74 109 c 0,67,68
 35 150 35 150 19.5 182.5 c 128,-1,69
 4 215 4 215 2 219 c 1,70,-1
 0 221 l 1,0,-1
EndSplineSet
EndChar
StartChar: six
Encoding: 54 54 25
Width: 950
GlyphClass: 2
Flags: W
LayerCount: 2
Back
Fore
SplineSet
20 502 m 1,0,1
 47 635 47 635 98.5 743.5 c 128,-1,2
 150 852 150 852 211 940 c 128,-1,3
 272 1028 272 1028 339 1094.5 c 128,-1,4
 406 1161 406 1161 467 1208 c 1,5,6
 563 1284 563 1284 645 1327 c 128,-1,7
 727 1370 727 1370 774 1389 c 0,8,9
 778 1391 778 1391 784 1391 c 0,10,11
 817 1391 817 1391 811 1356 c 0,12,13
 807 1336 807 1336 784 1325 c 2,14,-1
 776 1321 l 1,15,16
 735 1305 735 1305 659.5 1264 c 128,-1,17
 584 1223 584 1223 496 1155 c 1,18,19
 320 1014 320 1014 213 834 c 2,20,-1
 180 778 l 1,21,-1
 238 809 l 1,22,23
 400 893 400 893 559 893 c 0,24,25
 565 893 565 893 585.5 892 c 128,-1,26
 606 891 606 891 632.5 886 c 128,-1,27
 659 881 659 881 691 869.5 c 128,-1,28
 723 858 723 858 752 838 c 1,29,30
 908 740 908 740 854 492 c 1,31,32
 838 412 838 412 810 349.5 c 128,-1,33
 782 287 782 287 749.5 240 c 128,-1,34
 717 193 717 193 683 158 c 128,-1,35
 649 123 649 123 618 100 c 0,36,37
 544 45 544 45 471.5 22.5 c 128,-1,38
 399 0 399 0 350 0 c 0,39,40
 297 0 297 0 227.5 15.5 c 128,-1,41
 158 31 158 31 102 80 c 0,42,43
 -43 207 -43 207 20 502 c 1,0,1
86 502 m 0,44,45
 35 262 35 262 133 152 c 0,46,47
 207 68 207 68 365 68 c 0,48,49
 400 68 400 68 459 85 c 128,-1,50
 518 102 518 102 581.5 149.5 c 128,-1,51
 645 197 645 197 701.5 279.5 c 128,-1,52
 758 362 758 362 786 492 c 0,53,54
 809 598 809 598 786 672 c 1,55,56
 770 731 770 731 717 774 c 1,57,58
 672 807 672 807 623 815 c 128,-1,59
 574 823 574 823 545 823 c 0,60,61
 414 823 414 823 285 762 c 0,62,63
 232 737 232 737 195 711.5 c 128,-1,64
 158 686 158 686 139 670 c 1,65,-1
 131 664 l 1,66,-1
 131 657 l 1,67,68
 117 620 117 620 105.5 581.5 c 128,-1,69
 94 543 94 543 86 502 c 0,44,45
EndSplineSet
EndChar
StartChar: seven
Encoding: 55 55 26
Width: 935
GlyphClass: 2
Flags: W
LayerCount: 2
Back
Fore
SplineSet
2 25 m 1,0,1
 0 37 0 37 10 55 c 1,2,-1
 907 1305 l 1,3,-1
 201 1305 l 2,4,5
 185 1305 185 1305 176.5 1316 c 128,-1,6
 168 1327 168 1327 172 1343 c 256,7,8
 176 1359 176 1359 188.5 1370.5 c 128,-1,9
 201 1382 201 1382 217 1382 c 2,10,-1
 985 1382 l 2,11,12
 1008 1382 1008 1382 1014 1364 c 1,13,14
 1024 1348 1024 1348 1008 1327 c 2,15,-1
 74 20 l 1,16,17
 53 0 53 0 35 0 c 0,18,19
 23 0 23 0 16 4 c 0,20,21
 6 10 6 10 2 25 c 1,0,1
EndSplineSet
EndChar
StartChar: eight
Encoding: 56 56 27
Width: 997
GlyphClass: 2
Flags: W
LayerCount: 2
Back
Fore
SplineSet
10 356 m 1,0,1
 47 499 47 499 156 598 c 1,2,3
 234 674 234 674 369 733 c 1,4,-1
 414 754 l 1,5,-1
 375 770 l 1,6,7
 180 866 180 866 229 1061 c 1,8,9
 272 1237 272 1237 426 1327 c 0,10,11
 479 1358 479 1358 541.5 1375.5 c 128,-1,12
 604 1393 604 1393 664 1393 c 0,13,14
 746 1393 746 1393 811.5 1365 c 128,-1,15
 877 1337 877 1337 913 1286 c 1,16,17
 974 1206 974 1206 946 1081 c 1,18,19
 917 968 917 968 838 895 c 1,20,21
 772 832 772 832 668 784 c 1,22,-1
 627 764 l 1,23,-1
 659 745 l 1,24,25
 770 684 770 684 814 584.5 c 128,-1,26
 858 485 858 485 829 365 c 1,27,28
 813 287 813 287 767 219.5 c 128,-1,29
 721 152 721 152 655 102 c 1,30,31
 587 53 587 53 508.5 26.5 c 128,-1,32
 430 0 430 0 346 0 c 0,33,34
 250 0 250 0 173 31.5 c 128,-1,35
 96 63 96 63 51 123 c 0,36,37
 -21 221 -21 221 10 356 c 1,0,1
84 354 m 0,38,39
 59 248 59 248 115 174 c 0,40,41
 150 127 150 127 214.5 100.5 c 128,-1,42
 279 74 279 74 360 74 c 0,43,44
 421 74 421 74 483 91.5 c 128,-1,45
 545 109 545 109 598 143 c 0,46,47
 721 223 721 223 760 367 c 1,48,49
 774 433 774 433 763 492 c 128,-1,50
 752 551 752 551 713 598 c 0,51,52
 672 649 672 649 618.5 677 c 128,-1,53
 565 705 565 705 522 719 c 2,54,-1
 516 721 l 1,55,-1
 506 717 l 2,56,57
 502 715 502 715 497 713 c 128,-1,58
 492 711 492 711 487 709 c 0,59,60
 426 684 426 684 363.5 656.5 c 128,-1,61
 301 629 301 629 248 590 c 0,62,63
 117 496 117 496 84 354 c 0,38,39
301 1059 m 1,64,65
 278 961 278 961 332 899 c 1,66,67
 361 870 361 870 405 845.5 c 128,-1,68
 449 821 449 821 520 801 c 1,69,-1
 526 799 l 1,70,-1
 545 805 l 1,71,72
 604 830 604 830 660.5 855.5 c 128,-1,73
 717 881 717 881 758 913 c 1,74,75
 850 979 850 979 874 1083 c 0,76,77
 894 1171 894 1171 852 1235 c 1,78,79
 821 1276 821 1276 767 1297.5 c 128,-1,80
 713 1319 713 1319 647 1319 c 0,81,82
 641 1319 641 1319 597 1314 c 128,-1,83
 553 1309 553 1309 496 1286 c 1,84,85
 443 1263 443 1263 384.5 1211 c 128,-1,86
 326 1159 326 1159 301 1059 c 1,64,65
EndSplineSet
EndChar
StartChar: nine
Encoding: 57 57 28
Width: 950
GlyphClass: 2
Flags: W
LayerCount: 2
Back
Fore
SplineSet
14 903 m 1,0,1
 30 983 30 983 58 1045.5 c 128,-1,2
 86 1108 86 1108 118.5 1155 c 128,-1,3
 151 1202 151 1202 185 1237 c 128,-1,4
 219 1272 219 1272 250 1295 c 0,5,6
 324 1350 324 1350 396.5 1372.5 c 128,-1,7
 469 1395 469 1395 518 1395 c 0,8,9
 571 1395 571 1395 640.5 1379.5 c 128,-1,10
 710 1364 710 1364 766 1315 c 0,11,12
 911 1188 911 1188 848 893 c 1,13,14
 821 760 821 760 769.5 651.5 c 128,-1,15
 718 543 718 543 657 455 c 128,-1,16
 596 367 596 367 529 300.5 c 128,-1,17
 462 234 462 234 401 187 c 1,18,19
 305 111 305 111 223 68 c 128,-1,20
 141 25 141 25 94 6 c 0,21,22
 90 4 90 4 84 4 c 0,23,24
 51 4 51 4 57 39 c 0,25,26
 61 59 61 59 84 70 c 2,27,-1
 92 74 l 1,28,29
 133 90 133 90 208.5 131 c 128,-1,30
 284 172 284 172 372 240 c 1,31,32
 548 381 548 381 655 561 c 2,33,-1
 688 617 l 1,34,-1
 630 586 l 1,35,36
 468 502 468 502 309 502 c 0,37,38
 303 502 303 502 282.5 503 c 128,-1,39
 262 504 262 504 235.5 509 c 128,-1,40
 209 514 209 514 177 525.5 c 128,-1,41
 145 537 145 537 116 557 c 1,42,43
 -40 655 -40 655 14 903 c 1,0,1
82 723 m 1,44,45
 98 664 98 664 151 621 c 1,46,47
 196 588 196 588 245 580 c 128,-1,48
 294 572 294 572 323 572 c 0,49,50
 454 572 454 572 583 633 c 0,51,52
 636 658 636 658 673 683.5 c 128,-1,53
 710 709 710 709 729 725 c 1,54,-1
 737 731 l 1,55,-1
 737 738 l 1,56,57
 751 775 751 775 762.5 813.5 c 128,-1,58
 774 852 774 852 782 893 c 0,59,60
 833 1133 833 1133 735 1243 c 0,61,62
 661 1327 661 1327 503 1327 c 0,63,64
 468 1327 468 1327 409 1310 c 128,-1,65
 350 1293 350 1293 286.5 1245.5 c 128,-1,66
 223 1198 223 1198 166.5 1115.5 c 128,-1,67
 110 1033 110 1033 82 903 c 0,68,69
 59 797 59 797 82 723 c 1,44,45
EndSplineSet
EndChar
StartChar: colon
Encoding: 58 58 29
Width: 417
GlyphClass: 2
Flags: W
LayerCount: 2
Back
Fore
SplineSet
4 63 m 256,0,1
 14 92 14 92 36.5 112.5 c 128,-1,2
 59 133 59 133 82 133 c 0,3,4
 94 133 94 133 101.5 128 c 128,-1,5
 109 123 109 123 113 117 c 0,6,7
 119 107 119 107 120 94.5 c 128,-1,8
 121 82 121 82 119 68 c 1,9,10
 109 39 109 39 85.5 19.5 c 128,-1,11
 62 0 62 0 39 0 c 0,12,13
 14 0 14 0 8 14 c 1,14,15
 -6 34 -6 34 4 63 c 256,0,1
219 796 m 256,16,17
 229 825 229 825 251.5 845.5 c 128,-1,18
 274 866 274 866 297 866 c 0,19,20
 309 866 309 866 316.5 861 c 128,-1,21
 324 856 324 856 328 850 c 0,22,23
 334 840 334 840 335 827.5 c 128,-1,24
 336 815 336 815 334 801 c 1,25,26
 324 772 324 772 300.5 752.5 c 128,-1,27
 277 733 277 733 254 733 c 0,28,29
 229 733 229 733 223 747 c 1,30,31
 209 767 209 767 219 796 c 256,16,17
EndSplineSet
EndChar
StartChar: semicolon
Encoding: 59 59 30
Width: 622
GlyphClass: 2
Flags: W
LayerCount: 2
Back
Fore
SplineSet
6 -150 m 2,0,-1
 98 0 l 1,1,-1
 88 10 l 1,2,3
 70 30 70 30 80 66 c 1,4,5
 90 95 90 95 113.5 114 c 128,-1,6
 137 133 137 133 160 133 c 256,7,8
 183 133 183 133 191 119 c 1,9,10
 205 99 205 99 195 72 c 1,11,-1
 193 70 l 1,12,13
 189 58 189 58 180 41 c 0,14,15
 174 31 174 31 153.5 -3 c 128,-1,16
 133 -37 133 -37 110.5 -73 c 128,-1,17
 88 -109 88 -109 71 -138 c 2,18,-1
 53 -168 l 2,19,20
 43 -186 43 -186 25 -186 c 0,21,22
 21 -186 21 -186 19 -185 c 128,-1,23
 17 -184 17 -184 14 -184 c 1,24,25
 -9 -174 -9 -174 6 -150 c 2,0,-1
424 796 m 256,26,27
 434 825 434 825 456.5 845.5 c 128,-1,28
 479 866 479 866 502 866 c 0,29,30
 514 866 514 866 521.5 861 c 128,-1,31
 529 856 529 856 533 850 c 0,32,33
 539 840 539 840 540 827.5 c 128,-1,34
 541 815 541 815 539 801 c 1,35,36
 529 772 529 772 505.5 752.5 c 128,-1,37
 482 733 482 733 459 733 c 0,38,39
 434 733 434 733 428 747 c 1,40,41
 414 767 414 767 424 796 c 256,26,27
EndSplineSet
EndChar
StartChar: less
Encoding: 60 60 31
Width: 978
GlyphClass: 2
Flags: W
LayerCount: 2
Back
Fore
SplineSet
2 512 m 1,0,1
 6 535 6 535 27 543 c 1,2,-1
 844 1004 l 1,3,4
 852 1010 852 1010 864 1010 c 0,5,6
 889 1010 889 1010 893 991 c 1,7,8
 901 981 901 981 893 963 c 0,9,10
 887 949 887 949 870 938 c 1,11,-1
 109 510 l 1,12,-1
 651 92 l 1,13,14
 663 86 663 86 664 68 c 0,15,16
 664 56 664 56 653 39 c 1,17,18
 632 23 632 23 616 23 c 0,19,20
 604 23 604 23 596 29 c 2,21,-1
 12 479 l 1,22,23
 -4 489 -4 489 2 512 c 1,0,1
EndSplineSet
EndChar
StartChar: equal
Encoding: 61 61 32
Width: 839
GlyphClass: 2
Flags: W
LayerCount: 2
Back
Fore
SplineSet
2 346 m 256,0,1
 6 362 6 362 19.5 372.5 c 128,-1,2
 33 383 33 383 49 383 c 2,3,-1
 657 383 l 2,4,5
 673 383 673 383 681.5 372.5 c 128,-1,6
 690 362 690 362 686 346 c 256,7,8
 682 330 682 330 670.5 319.5 c 128,-1,9
 659 309 659 309 643 309 c 2,10,-1
 35 309 l 2,11,12
 19 309 19 309 8.5 319.5 c 128,-1,13
 -2 330 -2 330 2 346 c 256,0,1
72 674 m 0,14,15
 76 690 76 690 89 701.5 c 128,-1,16
 102 713 102 713 119 713 c 2,17,-1
 727 713 l 2,18,19
 743 713 743 713 751.5 701.5 c 128,-1,20
 760 690 760 690 756 674 c 256,21,22
 752 658 752 658 740.5 647.5 c 128,-1,23
 729 637 729 637 713 637 c 2,24,-1
 104 637 l 2,25,26
 88 637 88 637 78 647 c 128,-1,27
 68 657 68 657 72 674 c 0,14,15
EndSplineSet
EndChar
StartChar: greater
Encoding: 62 62 33
Width: 978
GlyphClass: 2
Flags: W
LayerCount: 2
Back
Fore
SplineSet
4 41 m 1,0,1
 -4 51 -4 51 4 69 c 0,2,3
 10 83 10 83 27 94 c 1,4,-1
 788 522 l 1,5,-1
 246 940 l 1,6,7
 234 946 234 946 233 964 c 0,8,9
 233 976 233 976 244 993 c 1,10,11
 265 1009 265 1009 281 1009 c 0,12,13
 293 1009 293 1009 301 1003 c 2,14,-1
 885 553 l 1,15,16
 901 543 901 543 895 520 c 1,17,18
 891 497 891 497 870 489 c 1,19,-1
 53 28 l 1,20,21
 45 22 45 22 33 22 c 0,22,23
 8 22 8 22 4 41 c 1,0,1
EndSplineSet
EndChar
StartChar: question
Encoding: 63 63 34
Width: 972
GlyphClass: 2
Flags: W
LayerCount: 2
Back
Fore
SplineSet
4 63 m 256,0,1
 14 92 14 92 36.5 111.5 c 128,-1,2
 59 131 59 131 82 131 c 0,3,4
 102 131 102 131 113 117 c 1,5,6
 125 97 125 97 117 68 c 256,7,8
 109 39 109 39 85.5 19.5 c 128,-1,9
 62 0 62 0 39 0 c 0,10,11
 27 0 27 0 19.5 5 c 128,-1,12
 12 10 12 10 8 14 c 0,13,14
 -6 34 -6 34 4 63 c 256,0,1
111 1237 m 1,15,16
 107 1255 107 1255 123 1272 c 1,17,18
 164 1311 164 1311 205 1340.5 c 128,-1,19
 246 1370 246 1370 287 1393 c 1,20,21
 406 1456 406 1456 522 1456 c 0,22,23
 725 1456 725 1456 821 1341 c 1,24,25
 917 1228 917 1228 881 1042 c 1,26,27
 850 903 850 903 731 778 c 0,28,29
 680 725 680 725 624.5 683 c 128,-1,30
 569 641 569 641 522 608 c 1,31,-1
 512 600 l 1,32,33
 492 586 492 586 458 561.5 c 128,-1,34
 424 537 424 537 385 508 c 128,-1,35
 346 479 346 479 303 446.5 c 128,-1,36
 260 414 260 414 221 385 c 1,37,-1
 215 381 l 1,38,-1
 215 379 l 1,39,40
 200 369 200 369 188 369 c 0,41,42
 172 369 172 369 163 379 c 128,-1,43
 154 389 154 389 158 403 c 1,44,45
 160 417 160 417 176 430 c 1,46,-1
 184 434 l 1,47,-1
 188 438 l 1,48,49
 258 489 258 489 341 551.5 c 128,-1,50
 424 614 424 614 481 659 c 0,51,52
 491 667 491 667 501.5 674.5 c 128,-1,53
 512 682 512 682 522 690 c 0,54,55
 565 721 565 721 610 757 c 128,-1,56
 655 793 655 793 695 836 c 128,-1,57
 735 879 735 879 766 930 c 128,-1,58
 797 981 797 981 809 1042 c 0,59,60
 823 1112 823 1112 815 1171.5 c 128,-1,61
 807 1231 807 1231 774 1276 c 1,62,63
 758 1303 758 1303 731.5 1322 c 128,-1,64
 705 1341 705 1341 674 1356 c 1,65,66
 600 1385 600 1385 506 1384 c 0,67,68
 449 1384 449 1384 397.5 1367 c 128,-1,69
 346 1350 346 1350 302 1325 c 128,-1,70
 258 1300 258 1300 223 1271.5 c 128,-1,71
 188 1243 188 1243 164 1221 c 1,72,73
 160 1219 160 1219 158 1216.5 c 128,-1,74
 156 1214 156 1214 152 1214 c 1,75,76
 146 1212 146 1212 137 1212 c 0,77,78
 110 1212 110 1212 111 1237 c 1,15,16
EndSplineSet
EndChar
StartChar: at
Encoding: 64 64 35
Width: 1576
GlyphClass: 2
Flags: W
LayerCount: 2
Back
Fore
SplineSet
18 524 m 0,0,1
 41 633 41 633 82 721 c 128,-1,2
 123 809 123 809 172 878.5 c 128,-1,3
 221 948 221 948 274.5 999.5 c 128,-1,4
 328 1051 328 1051 377 1087 c 0,5,6
 500 1179 500 1179 644 1229.5 c 128,-1,7
 788 1280 788 1280 932 1280 c 0,8,9
 1069 1280 1069 1280 1183.5 1233 c 128,-1,10
 1298 1186 1298 1186 1374 1094 c 1,11,12
 1456 1000 1456 1000 1482.5 870.5 c 128,-1,13
 1509 741 1509 741 1477 594 c 0,14,15
 1434 391 1434 391 1305 291 c 0,16,17
 1268 262 1268 262 1232 245.5 c 128,-1,18
 1196 229 1196 229 1165.5 221 c 128,-1,19
 1135 213 1135 213 1111 211 c 128,-1,20
 1087 209 1087 209 1077 209 c 2,21,-1
 1073 209 l 2,22,23
 1071 209 1071 209 1044.5 212 c 128,-1,24
 1018 215 1018 215 982 226.5 c 128,-1,25
 946 238 946 238 909 260.5 c 128,-1,26
 872 283 872 283 852 324 c 0,27,28
 846 336 846 336 841 348 c 128,-1,29
 836 360 836 360 834 375 c 2,30,-1
 827 410 l 1,31,-1
 799 381 l 1,32,33
 658 238 658 238 535 238 c 0,34,35
 459 238 459 238 423 268.5 c 128,-1,36
 387 299 387 299 373 334 c 0,37,38
 355 379 355 379 358.5 425 c 128,-1,39
 362 471 362 471 367 492 c 0,40,41
 379 547 379 547 404.5 601 c 128,-1,42
 430 655 430 655 467 701.5 c 128,-1,43
 504 748 504 748 549 784.5 c 128,-1,44
 594 821 594 821 645 846 c 1,45,46
 721 879 721 879 788 879 c 0,47,48
 882 879 882 879 958 821 c 1,49,-1
 975 809 l 1,50,51
 991 799 991 799 985 778 c 0,52,53
 981 762 981 762 968.5 751.5 c 128,-1,54
 956 741 956 741 940 741 c 0,55,56
 930 741 930 741 924 748 c 1,57,-1
 913 756 l 1,58,59
 854 807 854 807 772 807 c 0,60,61
 717 807 717 807 662 780 c 1,62,63
 580 743 580 743 518.5 663.5 c 128,-1,64
 457 584 457 584 438 492 c 1,65,66
 430 459 430 459 431 426 c 128,-1,67
 432 393 432 393 444.5 367.5 c 128,-1,68
 457 342 457 342 482.5 325.5 c 128,-1,69
 508 309 508 309 551 309 c 0,70,71
 600 309 600 309 651 342 c 128,-1,72
 702 375 702 375 747.5 421 c 128,-1,73
 793 467 793 467 828.5 515 c 128,-1,74
 864 563 864 563 883 592 c 1,75,-1
 883 594 l 1,76,77
 897 614 897 614 922 614 c 0,78,79
 936 614 936 614 945 605 c 128,-1,80
 954 596 954 596 950 580 c 0,81,82
 948 576 948 576 948 569 c 1,83,-1
 946 569 l 1,84,85
 880 436 880 436 920 367 c 1,86,87
 934 336 934 336 962.5 318.5 c 128,-1,88
 991 301 991 301 1019 293 c 128,-1,89
 1047 285 1047 285 1068.5 283 c 128,-1,90
 1090 281 1090 281 1092 281 c 2,91,-1
 1096 281 l 2,92,93
 1102 281 1102 281 1119.5 283 c 128,-1,94
 1137 285 1137 285 1160.5 291 c 128,-1,95
 1184 297 1184 297 1211.5 309.5 c 128,-1,96
 1239 322 1239 322 1268 344 c 0,97,98
 1366 420 1366 420 1403 594 c 0,99,100
 1415 651 1415 651 1418 707.5 c 128,-1,101
 1421 764 1421 764 1411 817 c 1,102,103
 1395 932 1395 932 1337 1014 c 1,104,105
 1202 1209 1202 1209 918 1208 c 0,106,107
 785 1208 785 1208 657 1163 c 0,108,109
 591 1140 591 1140 530 1107.5 c 128,-1,110
 469 1075 469 1075 414 1034 c 0,111,112
 289 940 289 940 207 810 c 128,-1,113
 125 680 125 680 92 524 c 1,114,115
 57 366 57 366 96 245.5 c 128,-1,116
 135 125 135 125 216 43 c 128,-1,117
 297 -39 297 -39 404.5 -81 c 128,-1,118
 512 -123 512 -123 616 -123 c 0,119,120
 749 -123 749 -123 860 -83 c 128,-1,121
 971 -43 971 -43 1040 -2 c 1,122,-1
 1055 6 l 1,123,124
 1065 14 1065 14 1079 14 c 256,125,126
 1093 14 1093 14 1101.5 4 c 128,-1,127
 1110 -6 1110 -6 1106 -23 c 0,128,129
 1102 -41 1102 -41 1087 -49 c 1,130,-1
 1071 -59 l 1,131,132
 1032 -82 1032 -82 981 -106.5 c 128,-1,133
 930 -131 930 -131 870.5 -150.5 c 128,-1,134
 811 -170 811 -170 742.5 -182.5 c 128,-1,135
 674 -195 674 -195 600 -195 c 0,136,137
 473 -195 473 -195 355.5 -145.5 c 128,-1,138
 238 -96 238 -96 152 -10 c 1,139,140
 54 92 54 92 19 229.5 c 128,-1,141
 -16 367 -16 367 18 524 c 0,0,1
EndSplineSet
EndChar
StartChar: A
Encoding: 65 65 36
Width: 1245
GlyphClass: 2
Flags: W
LayerCount: 2
Back
Fore
SplineSet
2 24 m 0,0,1
 1 28 1 28 1 33 c 0,2,3
 1 43 1 43 8 53 c 2,4,-1
 223 412 l 1,5,-1
 152 397 l 2,6,7
 150 397 150 397 148.5 396 c 128,-1,8
 147 395 147 395 143 395 c 0,9,10
 129 395 129 395 121 404.5 c 128,-1,11
 113 414 113 414 113 426 c 0,12,13
 113 440 113 440 123 457 c 1,14,15
 137 471 137 471 152 473 c 1,16,-1
 276 500 l 1,17,-1
 811 1382 l 2,18,19
 825 1407 825 1407 854 1407 c 0,20,21
 879 1407 879 1407 885 1380 c 1,22,-1
 1059 51 l 2,23,24
 1060 47 1060 47 1060 43 c 0,25,26
 1060 30 1060 30 1052 20 c 0,27,28
 1040 6 1040 6 1026 2 c 1,29,30
 1018 -2 1018 -2 1010 -2 c 0,31,32
 987 -2 987 -2 979 25 c 1,33,-1
 909 555 l 1,34,-1
 319 432 l 1,35,-1
 74 27 l 1,36,37
 62 2 62 2 33 2 c 0,38,39
 25 2 25 2 18 4 c 1,40,41
 6 10 6 10 2 24 c 0,0,1
373 520 m 1,42,-1
 901 629 l 1,43,-1
 819 1255 l 1,44,-1
 373 520 l 1,42,-1
EndSplineSet
EndChar
StartChar: B
Encoding: 66 66 37
Width: 1251
GlyphClass: 2
Flags: W
LayerCount: 2
Back
Fore
SplineSet
2 41 m 2,0,-1
 283 1360 l 2,1,2
 287 1376 287 1376 300 1387.5 c 128,-1,3
 313 1399 313 1399 330 1399 c 2,4,-1
 711 1399 l 2,5,6
 944 1399 944 1399 1032 1280 c 0,7,8
 1059 1245 1059 1245 1071 1208 c 0,9,10
 1083 1170 1083 1170 1085 1140 c 0,11,12
 1086 1128 1086 1128 1085 1118 c 1,13,14
 1085 1102 1085 1102 1084 1090 c 0,15,16
 1081 1070 1081 1070 1081 1067 c 0,17,18
 1040 883 1040 883 881 780 c 1,19,-1
 844 758 l 1,20,-1
 881 743 l 2,21,22
 885 741 885 741 892 739 c 128,-1,23
 899 737 899 737 905 735 c 0,24,25
 993 696 993 696 1040 627 c 1,26,27
 1076 570 1076 570 1076 495 c 0,28,29
 1076 457 1076 457 1067 414 c 0,30,31
 1042 289 1042 289 928 199 c 0,32,33
 750 58 750 58 369 14 c 0,34,35
 285 4 285 4 216 2 c 128,-1,36
 147 0 147 0 100 0 c 0,37,38
 69 0 69 0 52 1 c 128,-1,39
 35 2 35 2 31 2 c 0,40,41
 14 2 14 2 6 14 c 0,42,43
 0 22 0 22 1 31 c 0,44,45
 1 36 1 36 2 41 c 2,0,-1
86 78 m 1,46,-1
 109 78 l 1,47,-1
 115 78 l 2,48,49
 162 78 162 78 230.5 80 c 128,-1,50
 299 82 299 82 377 92 c 1,51,52
 551 110 551 110 680 152.5 c 128,-1,53
 809 195 809 195 887 254 c 1,54,55
 973 326 973 326 991 414 c 1,56,57
 999 447 999 447 999 477 c 0,58,59
 999 535 999 535 969 578 c 1,60,61
 934 631 934 631 860 664 c 0,62,63
 827 678 827 678 794.5 685 c 128,-1,64
 762 692 762 692 736.5 696 c 128,-1,65
 711 700 711 700 693.5 701 c 128,-1,66
 676 702 676 702 674 702 c 2,67,-1
 217 702 l 1,68,-1
 86 78 l 1,46,-1
233 778 m 1,69,-1
 670 778 l 2,70,71
 721 778 721 778 766 795.5 c 128,-1,72
 811 813 811 813 845 836.5 c 128,-1,73
 879 860 879 860 901.5 881.5 c 128,-1,74
 924 903 924 903 930 911 c 0,75,76
 985 972 985 972 1004 1067 c 0,77,78
 1004 1069 1004 1069 1007 1109 c 0,79,80
 1007 1114 1007 1114 1007 1118 c 0,81,82
 1007 1154 1007 1154 987 1196 c 1,83,84
 956 1251 956 1251 899 1282 c 0,85,86
 821 1323 821 1323 694 1323 c 2,87,-1
 350 1323 l 1,88,-1
 233 778 l 1,69,-1
EndSplineSet
EndChar
StartChar: C
Encoding: 67 67 38
Width: 1263
GlyphClass: 2
Flags: W
LayerCount: 2
Back
Fore
SplineSet
14 340 m 0,0,1
 0 398 0 398 0 461 c 0,2,3
 0 528 0 528 16 600 c 0,4,5
 47 747 47 747 135 899 c 1,6,7
 213 1036 213 1036 326 1149 c 1,8,9
 379 1204 379 1204 437.5 1248 c 128,-1,10
 496 1292 496 1292 553 1325 c 1,11,12
 676 1393 676 1393 782 1393 c 0,13,14
 956 1393 956 1393 1059 1311 c 1,15,-1
 1075 1298 l 1,16,-1
 1090 1319 l 1,17,18
 1106 1339 1106 1339 1130 1339 c 0,19,20
 1146 1339 1146 1339 1154 1328 c 0,21,22
 1160 1321 1160 1321 1160 1310 c 0,23,24
 1160 1305 1160 1305 1159 1300 c 2,25,-1
 1133 1167 l 2,26,27
 1129 1151 1129 1151 1115.5 1139.5 c 128,-1,28
 1102 1128 1102 1128 1085 1128 c 0,29,30
 1069 1128 1069 1128 1060 1139.5 c 128,-1,31
 1051 1151 1051 1151 1055 1167 c 2,32,-1
 1059 1188 l 1,33,-1
 1053 1194 l 1,34,35
 1037 1214 1037 1214 1017 1233.5 c 128,-1,36
 997 1253 997 1253 965 1272 c 1,37,38
 887 1315 887 1315 766 1315 c 0,39,40
 725 1315 725 1315 678 1301.5 c 128,-1,41
 631 1288 631 1288 580 1260 c 0,42,43
 529 1231 529 1231 477.5 1191 c 128,-1,44
 426 1151 426 1151 377 1102 c 0,45,46
 268 993 268 993 195.5 863 c 128,-1,47
 123 733 123 733 94 600 c 0,48,49
 80 534 80 534 80 478 c 0,50,51
 80 470 80 470 80 464 c 0,52,53
 82 402 82 402 96.5 354.5 c 128,-1,54
 111 307 111 307 132.5 270 c 128,-1,55
 154 233 154 233 176 209 c 0,56,57
 231 146 231 146 313 111 c 128,-1,58
 395 76 395 76 485 76 c 0,59,60
 639 76 639 76 772 147 c 1,61,62
 807 163 807 163 854 196 c 128,-1,63
 901 229 901 229 950 283 c 0,64,65
 962 297 962 297 983 297 c 0,66,67
 995 297 995 297 1006 291 c 1,68,69
 1016 279 1016 279 1014 264 c 1,70,71
 1014 248 1014 248 1001 236 c 1,72,73
 909 140 909 140 799 82 c 0,74,75
 641 -2 641 -2 469 -2 c 0,76,77
 365 -2 365 -2 271.5 38 c 128,-1,78
 178 78 178 78 113 152 c 0,79,80
 39 236 39 236 14 340 c 0,0,1
EndSplineSet
EndChar
StartChar: D
Encoding: 68 68 39
Width: 1228
GlyphClass: 2
Flags: W
LayerCount: 2
Back
Fore
SplineSet
2 68 m 2,0,-1
 276 1366 l 1,1,2
 286 1405 286 1405 324 1405 c 0,3,4
 387 1405 387 1405 462 1399 c 128,-1,5
 537 1393 537 1393 613.5 1377.5 c 128,-1,6
 690 1362 690 1362 765 1334.5 c 128,-1,7
 840 1307 840 1307 905 1262 c 0,8,9
 1040 1170 1040 1170 1094 1024 c 0,10,11
 1127 933 1127 933 1127 823 c 0,12,13
 1127 736 1127 736 1106 637 c 0,14,15
 1059 416 1059 416 928 268 c 1,16,17
 822 143 822 143 666 76 c 1,18,19
 605 47 605 47 503 21.5 c 128,-1,20
 401 -4 401 -4 266 -4 c 2,21,-1
 264 -4 l 2,22,23
 219 -4 219 -4 176 1 c 128,-1,24
 133 6 133 6 99.5 12 c 128,-1,25
 66 18 66 18 44 24 c 1,26,-1
 23 31 l 1,27,28
 1 36 1 36 1 58 c 0,29,30
 1 62 1 62 2 68 c 2,0,-1
82 96 m 1,31,-1
 98 94 l 1,32,33
 133 86 133 86 181 79 c 128,-1,34
 229 72 229 72 281 72 c 2,35,-1
 283 72 l 2,36,37
 408 72 408 72 500 95.5 c 128,-1,38
 592 119 592 119 645 143 c 0,39,40
 782 204 782 204 874 309 c 1,41,42
 987 436 987 436 1030 637 c 0,43,44
 1049 727 1049 727 1049 806 c 0,45,46
 1049 904 1049 904 1020 985 c 0,47,48
 975 1110 975 1110 854 1196 c 1,49,50
 793 1237 793 1237 675 1279 c 128,-1,51
 557 1321 557 1321 367 1327 c 1,52,-1
 344 1327 l 1,53,-1
 82 96 l 1,31,-1
EndSplineSet
EndChar
StartChar: E
Encoding: 69 69 40
Width: 1302
GlyphClass: 2
Flags: W
LayerCount: 2
Back
Fore
SplineSet
2 39 m 2,0,-1
 281 1356 l 2,1,2
 285 1372 285 1372 298 1383.5 c 128,-1,3
 311 1395 311 1395 328 1395 c 2,4,-1
 1229 1395 l 1,5,6
 1244 1396 1244 1396 1254 1384 c 0,7,8
 1261 1376 1261 1376 1261 1365 c 0,9,10
 1261 1361 1261 1361 1260 1356 c 0,11,12
 1256 1340 1256 1340 1242.5 1328.5 c 128,-1,13
 1229 1317 1229 1317 1212 1317 c 2,14,-1
 350 1317 l 1,15,-1
 231 760 l 1,16,-1
 991 760 l 2,17,18
 1007 760 1007 760 1016.5 748.5 c 128,-1,19
 1026 737 1026 737 1022 721 c 256,20,21
 1018 705 1018 705 1004.5 693.5 c 128,-1,22
 991 682 991 682 975 682 c 2,23,-1
 215 682 l 1,24,-1
 88 78 l 1,25,-1
 946 78 l 2,26,27
 983 78 983 78 977 39 c 1,28,29
 973 23 973 23 959.5 11.5 c 128,-1,30
 946 0 946 0 930 0 c 2,31,-1
 33 0 l 2,32,33
 18 0 18 0 8 12 c 0,34,35
 1 20 1 20 1 30 c 0,36,37
 1 34 1 34 2 39 c 2,0,-1
EndSplineSet
EndChar
StartChar: F
Encoding: 70 70 41
Width: 1148
GlyphClass: 2
Flags: W
LayerCount: 2
Back
Fore
SplineSet
2 31 m 2,0,-1
 283 1354 l 2,1,2
 287 1370 287 1370 300 1381.5 c 128,-1,3
 313 1393 313 1393 330 1393 c 2,4,-1
 1116 1393 l 1,5,6
 1132 1394 1132 1394 1142 1382 c 0,7,8
 1149 1374 1149 1374 1148 1363 c 0,9,10
 1148 1359 1148 1359 1147 1354 c 0,11,12
 1143 1338 1143 1338 1129.5 1326.5 c 128,-1,13
 1116 1315 1116 1315 1100 1315 c 2,14,-1
 352 1315 l 1,15,-1
 233 756 l 1,16,-1
 913 756 l 2,17,18
 929 756 929 756 938.5 744.5 c 128,-1,19
 948 733 948 733 944 717 c 256,20,21
 940 701 940 701 926.5 689.5 c 128,-1,22
 913 678 913 678 897 678 c 2,23,-1
 217 678 l 1,24,-1
 80 31 l 2,25,26
 76 15 76 15 62.5 3.5 c 128,-1,27
 49 -8 49 -8 33 -8 c 0,28,29
 18 -8 18 -8 8 3 c 0,30,31
 1 11 1 11 1 21 c 0,32,33
 1 26 1 26 2 31 c 2,0,-1
EndSplineSet
EndChar
StartChar: G
Encoding: 71 71 42
Width: 1402
GlyphClass: 2
Flags: W
LayerCount: 2
Back
Fore
SplineSet
2 467 m 0,0,1
 0 494 0 494 0 520.5 c 128,-1,2
 0 547 0 547 2 574 c 0,3,4
 6 627 6 627 16 676 c 256,5,6
 26 725 26 725 47 780.5 c 128,-1,7
 68 836 68 836 96 893 c 1,8,9
 131 956 131 956 170 1015.5 c 128,-1,10
 209 1075 209 1075 256 1126 c 0,11,12
 299 1173 299 1173 355.5 1221.5 c 128,-1,13
 412 1270 412 1270 482.5 1310 c 128,-1,14
 553 1350 553 1350 637 1374.5 c 128,-1,15
 721 1399 721 1399 819 1399 c 0,16,17
 1057 1399 1057 1399 1178 1262 c 0,18,19
 1231 1203 1231 1203 1252.5 1141 c 128,-1,20
 1274 1079 1274 1079 1278 1042 c 0,21,22
 1279 1037 1279 1037 1279 1033 c 0,23,24
 1279 1022 1279 1022 1272 1012 c 0,25,26
 1262 997 1262 997 1245 993 c 0,27,28
 1239 991 1239 991 1231 991 c 0,29,30
 1219 991 1219 991 1209.5 998.5 c 128,-1,31
 1200 1006 1200 1006 1200 1016 c 1,32,33
 1192 1055 1192 1055 1173.5 1107 c 128,-1,34
 1155 1159 1155 1159 1114 1206 c 1,35,36
 1010 1321 1010 1321 803 1321 c 0,37,38
 656 1321 656 1321 524 1251 c 1,39,40
 411 1194 411 1194 311 1083 c 0,41,42
 264 1030 264 1030 227 972.5 c 128,-1,43
 190 915 190 915 162.5 862 c 128,-1,44
 135 809 135 809 118.5 761 c 128,-1,45
 102 713 102 713 94 676 c 0,46,47
 81 615 81 615 81 536 c 0,48,49
 81 516 81 516 82 494 c 0,50,51
 86 389 86 389 133 291 c 0,52,53
 156 242 156 242 188.5 203 c 128,-1,54
 221 164 221 164 264 137 c 1,55,56
 358 74 358 74 502 74 c 0,57,58
 740 74 740 74 913 229 c 0,59,60
 991 299 991 299 1034 367.5 c 128,-1,61
 1077 436 1077 436 1094 475 c 1,62,-1
 1104 500 l 1,63,-1
 1081 502 l 1,64,65
 1065 502 1065 502 1051.5 503 c 128,-1,66
 1038 504 1038 504 1022 504 c 2,67,-1
 993 504 l 1,68,69
 942 500 942 500 898 494.5 c 128,-1,70
 854 489 854 489 819 483 c 1,71,72
 780 475 780 475 748 467 c 0,73,74
 744 465 744 465 737 465 c 0,75,76
 708 465 708 465 705 494 c 0,77,78
 703 510 703 510 714 523.5 c 128,-1,79
 725 537 725 537 741 541 c 0,80,81
 743 541 743 541 764.5 547 c 128,-1,82
 786 553 786 553 821 559 c 128,-1,83
 856 565 856 565 904 571.5 c 128,-1,84
 952 578 952 578 1006 580 c 1,85,86
 1014 582 1014 582 1022 582 c 128,-1,87
 1030 582 1030 582 1038 582 c 0,88,89
 1134 582 1134 582 1191.5 565.5 c 128,-1,90
 1249 549 1249 549 1251 547 c 1,91,92
 1265 541 1265 541 1269.5 526.5 c 128,-1,93
 1274 512 1274 512 1266 496 c 1,94,95
 1248 471 1248 471 1223 471 c 0,96,97
 1219 471 1219 471 1216.5 472 c 128,-1,98
 1214 473 1214 473 1210 473 c 1,99,100
 1208 475 1208 475 1206 475 c 0,101,102
 1202 475 1202 475 1198 477 c 2,103,-1
 1178 485 l 1,104,-1
 1169 463 l 1,105,106
 1146 416 1146 416 1098.5 337 c 128,-1,107
 1051 258 1051 258 961 178 c 0,108,109
 865 94 865 94 756 49 c 0,110,111
 626 -4 626 -4 485 -4 c 0,112,113
 389 -4 389 -4 318.5 19.5 c 128,-1,114
 248 43 248 43 196.5 79 c 128,-1,115
 145 115 145 115 112.5 160 c 128,-1,116
 80 205 80 205 59 248 c 0,117,118
 36 295 36 295 22 351.5 c 128,-1,119
 8 408 8 408 2 467 c 0,0,1
EndSplineSet
EndChar
StartChar: H
Encoding: 72 72 43
Width: 1492
GlyphClass: 2
Flags: W
LayerCount: 2
Back
Fore
SplineSet
2 39 m 2,0,-1
 281 1356 l 2,1,2
 285 1372 285 1372 298 1383.5 c 128,-1,3
 311 1395 311 1395 328 1395 c 0,4,5
 344 1395 344 1395 353 1383.5 c 128,-1,6
 362 1372 362 1372 358 1356 c 2,7,-1
 215 684 l 1,8,-1
 1219 819 l 1,9,-1
 1331 1356 l 2,10,11
 1335 1372 1335 1372 1348.5 1383.5 c 128,-1,12
 1362 1395 1362 1395 1378 1395 c 0,13,14
 1394 1396 1394 1396 1404 1384 c 0,15,16
 1411 1376 1411 1376 1410 1365 c 0,17,18
 1410 1361 1410 1361 1409 1356 c 2,19,-1
 1130 39 l 1,20,21
 1120 0 1120 0 1083 0 c 0,22,23
 1067 0 1067 0 1058 11.5 c 128,-1,24
 1049 23 1049 23 1053 39 c 2,25,-1
 1200 739 l 1,26,-1
 199 604 l 1,27,-1
 80 39 l 2,28,29
 76 23 76 23 62.5 11.5 c 128,-1,30
 49 0 49 0 33 0 c 0,31,32
 18 0 18 0 8 12 c 0,33,34
 1 20 1 20 1 30 c 0,35,36
 1 34 1 34 2 39 c 2,0,-1
EndSplineSet
EndChar
StartChar: I
Encoding: 73 73 44
Width: 960
GlyphClass: 2
Flags: W
LayerCount: 2
Back
Fore
SplineSet
2 39 m 0,0,1
 6 55 6 55 19.5 66.5 c 128,-1,2
 33 78 33 78 49 78 c 2,3,-1
 281 78 l 1,4,-1
 543 1319 l 1,5,-1
 311 1319 l 2,6,7
 274 1319 274 1319 281 1358 c 1,8,9
 285 1374 285 1374 298 1385.5 c 128,-1,10
 311 1397 311 1397 328 1397 c 2,11,-1
 866 1397 l 1,12,13
 882 1398 882 1398 892 1386 c 0,14,15
 899 1378 899 1378 898 1367 c 0,16,17
 898 1363 898 1363 897 1358 c 0,18,19
 893 1342 893 1342 879.5 1330.5 c 128,-1,20
 866 1319 866 1319 850 1319 c 2,21,-1
 621 1319 l 1,22,-1
 358 78 l 1,23,-1
 588 78 l 2,24,25
 625 78 625 78 618 39 c 1,26,27
 614 23 614 23 601 11.5 c 128,-1,28
 588 0 588 0 571 0 c 2,29,-1
 33 0 l 2,30,31
 18 0 18 0 8 12 c 0,32,33
 1 20 1 20 1 30 c 0,34,35
 1 34 1 34 2 39 c 0,0,1
EndSplineSet
EndChar
StartChar: J
Encoding: 74 74 45
Width: 1081
GlyphClass: 2
Flags: W
LayerCount: 2
Back
Fore
SplineSet
1 234 m 0,0,1
 1 242 1 242 1 249 c 0,2,3
 1 273 1 273 3 292 c 0,4,5
 6 319 6 319 8 332 c 1,6,-1
 8 334 l 2,7,8
 8 336 8 336 10 338 c 1,9,10
 14 354 14 354 27.5 365.5 c 128,-1,11
 41 377 41 377 57 377 c 256,12,13
 73 377 73 377 82.5 365.5 c 128,-1,14
 92 354 92 354 88 338 c 1,15,-1
 86 336 l 1,16,-1
 82 313 l 1,17,-1
 84 313 l 1,18,19
 82 298 82 298 82 275 c 0,20,21
 82 258 82 258 83 237 c 0,22,23
 86 188 86 188 117 147 c 0,24,25
 171 74 171 74 305 74 c 0,26,27
 307 74 307 74 309 74 c 0,28,29
 461 74 461 74 551 166 c 0,30,31
 586 203 586 203 603.5 242 c 128,-1,32
 621 281 621 281 627 309 c 2,33,-1
 840 1315 l 1,34,-1
 553 1315 l 2,35,36
 537 1315 537 1315 527.5 1326 c 128,-1,37
 518 1337 518 1337 522 1354 c 0,38,39
 526 1370 526 1370 539.5 1381.5 c 128,-1,40
 553 1393 553 1393 569 1393 c 2,41,-1
 1008 1393 l 2,42,43
 1024 1393 1024 1393 1033 1382 c 0,44,45
 1039 1374 1039 1374 1039 1363 c 0,46,47
 1039 1359 1039 1359 1038 1354 c 0,48,49
 1034 1338 1034 1338 1021 1326.5 c 128,-1,50
 1008 1315 1008 1315 991 1315 c 2,51,-1
 918 1315 l 1,52,-1
 705 309 l 1,53,54
 676 184 676 184 584 98 c 1,55,56
 467 -6 467 -6 293 -6 c 0,57,58
 123 -6 123 -6 47 94 c 0,59,60
 22 127 22 127 12 164 c 128,-1,61
 2 201 2 201 1 234 c 0,0,1
EndSplineSet
EndChar
StartChar: K
Encoding: 75 75 46
Width: 1200
GlyphClass: 2
Flags: W
LayerCount: 2
Back
Fore
SplineSet
2 37 m 2,0,-1
 283 1356 l 2,1,2
 287 1372 287 1372 299 1382.5 c 128,-1,3
 311 1393 311 1393 328 1393 c 0,4,5
 344 1393 344 1393 352 1382.5 c 128,-1,6
 360 1372 360 1372 356 1356 c 2,7,-1
 229 752 l 1,8,-1
 1102 1384 l 2,9,10
 1112 1392 1112 1392 1128 1393 c 1,11,12
 1146 1393 1146 1393 1153 1380 c 1,13,14
 1158 1373 1158 1373 1158 1364 c 0,15,16
 1158 1358 1158 1358 1157 1354 c 0,17,18
 1153 1338 1153 1338 1137 1329 c 1,19,-1
 246 682 l 1,20,-1
 911 63 l 2,21,22
 921 53 921 53 922 39 c 1,23,24
 918 31 918 31 915.5 24.5 c 128,-1,25
 913 18 913 18 907 12 c 0,26,27
 894 -2 894 -2 874 -2 c 0,28,29
 862 -2 862 -2 854 6 c 2,30,-1
 199 614 l 1,31,-1
 76 37 l 2,32,33
 72 21 72 21 60.5 10.5 c 128,-1,34
 49 0 49 0 33 0 c 0,35,36
 18 0 18 0 8 10 c 0,37,38
 1 17 1 17 1 28 c 0,39,40
 1 32 1 32 2 37 c 2,0,-1
EndSplineSet
EndChar
StartChar: L
Encoding: 76 76 47
Width: 983
GlyphClass: 2
Flags: W
LayerCount: 2
Back
Fore
SplineSet
2 39 m 2,0,-1
 281 1356 l 2,1,2
 285 1372 285 1372 298 1382.5 c 128,-1,3
 311 1393 311 1393 328 1393 c 0,4,5
 344 1393 344 1393 352 1382.5 c 128,-1,6
 360 1372 360 1372 356 1356 c 2,7,-1
 86 78 l 1,8,-1
 784 127 l 1,9,-1
 786 127 l 1,10,11
 802 126 802 126 810 116 c 0,12,13
 817 108 817 108 817 97 c 0,14,15
 817 94 817 94 817 92 c 0,16,17
 815 76 815 76 803 64.5 c 128,-1,18
 791 53 791 53 774 51 c 2,19,-1
 35 0 l 1,20,-1
 33 0 l 2,21,22
 19 0 19 0 8 10 c 0,23,24
 0 18 0 18 0 28 c 0,25,26
 0 33 0 33 2 39 c 2,0,-1
EndSplineSet
EndChar
StartChar: M
Encoding: 77 77 48
Width: 1761
GlyphClass: 2
Flags: W
LayerCount: 2
Back
Fore
SplineSet
2 18 m 0,0,1
 -1 24 -1 24 0 30 c 1,2,3
 0 38 0 38 4 47 c 2,4,-1
 573 1364 l 2,5,6
 587 1395 587 1395 614 1395 c 2,7,-1
 616 1395 l 2,8,9
 643 1395 643 1395 647 1368 c 1,10,-1
 774 156 l 1,11,-1
 1470 1370 l 2,12,13
 1484 1395 1484 1395 1511 1395 c 2,14,-1
 1513 1395 l 1,15,16
 1542 1391 1542 1391 1542 1364 c 2,17,-1
 1556 47 l 2,18,19
 1556 31 1556 31 1545 18.5 c 128,-1,20
 1534 6 1534 6 1520 2 c 0,21,22
 1516 0 1516 0 1509 0 c 0,23,24
 1497 0 1497 0 1488 8 c 128,-1,25
 1479 16 1479 16 1479 31 c 2,26,-1
 1464 1221 l 1,27,-1
 780 25 l 2,28,29
 764 -2 764 -2 737 -2 c 1,30,31
 712 2 712 2 707 25 c 1,32,-1
 584 1210 l 1,33,-1
 76 31 l 2,34,35
 62 0 62 0 33 0 c 0,36,37
 27 0 27 0 25 2 c 1,38,39
 8 6 8 6 2 18 c 0,0,1
EndSplineSet
EndChar
StartChar: N
Encoding: 78 78 49
Width: 1394
GlyphClass: 2
Flags: W
LayerCount: 2
Back
Fore
SplineSet
2 37 m 2,0,-1
 285 1354 l 2,1,2
 291 1385 291 1385 319 1391 c 1,3,4
 321 1393 321 1393 330 1393 c 0,5,6
 350 1393 350 1393 356 1376 c 1,7,-1
 940 158 l 1,8,-1
 1194 1356 l 2,9,10
 1198 1372 1198 1372 1210.5 1383.5 c 128,-1,11
 1223 1395 1223 1395 1239 1395 c 1,12,13
 1254 1396 1254 1396 1264 1384 c 0,14,15
 1271 1376 1271 1376 1271 1365 c 0,16,17
 1271 1361 1271 1361 1270 1356 c 2,18,-1
 989 37 l 1,19,20
 985 8 985 8 956 0 c 0,21,22
 950 -2 950 -2 942 -2 c 0,23,24
 926 -2 926 -2 915 14 c 1,25,-1
 334 1233 l 1,26,-1
 78 37 l 2,27,28
 74 21 74 21 61.5 10.5 c 128,-1,29
 49 0 49 0 33 0 c 0,30,31
 18 0 18 0 8 10 c 0,32,33
 1 17 1 17 1 28 c 0,34,35
 1 32 1 32 2 37 c 2,0,-1
EndSplineSet
EndChar
StartChar: O
Encoding: 79 79 50
Width: 1259
GlyphClass: 2
Flags: W
LayerCount: 2
Back
Fore
SplineSet
3 390 m 0,0,1
 -1 425 -1 425 -1 461 c 0,2,3
 -1 574 -1 574 35 698 c 1,4,5
 72 837 72 837 148.5 964.5 c 128,-1,6
 225 1092 225 1092 332 1190 c 1,7,8
 436 1288 436 1288 547.5 1340.5 c 128,-1,9
 659 1393 659 1393 768 1393 c 0,10,11
 860 1393 860 1393 936 1355 c 128,-1,12
 1012 1317 1012 1317 1065 1245 c 1,13,14
 1137 1144 1137 1144 1152 1000 c 0,15,16
 1156 965 1156 965 1155 929 c 1,17,18
 1155 816 1155 816 1120 692 c 0,19,20
 1081 553 1081 553 1004.5 426 c 128,-1,21
 928 299 928 299 821 201 c 1,22,23
 717 103 717 103 605.5 50.5 c 128,-1,24
 494 -2 494 -2 385 -2 c 0,25,26
 293 -2 293 -2 218 36 c 128,-1,27
 143 74 143 74 92 145 c 1,28,29
 18 245 18 245 3 390 c 0,0,1
74 410 m 0,30,31
 86 274 86 274 152 188 c 1,32,33
 243 66 243 66 397 66 c 0,34,35
 398 66 398 66 399 66 c 0,36,37
 495 66 495 66 595.5 113 c 128,-1,38
 696 160 696 160 791 252 c 1,39,40
 883 344 883 344 949.5 457.5 c 128,-1,41
 1016 571 1016 571 1051 698 c 0,42,43
 1078 796 1078 796 1078 892 c 0,44,45
 1078 934 1078 934 1074 974 c 0,46,47
 1058 1110 1058 1110 987 1202 c 1,48,49
 899 1325 899 1325 739 1325 c 0,50,51
 645 1325 645 1325 548 1278 c 128,-1,52
 451 1231 451 1231 360 1139 c 1,53,54
 270 1051 270 1051 203.5 936 c 128,-1,55
 137 821 137 821 102 692 c 0,56,57
 71 579 71 579 70 473 c 1,58,59
 71 442 71 442 74 410 c 0,30,31
EndSplineSet
EndChar
StartChar: P
Encoding: 80 80 51
Width: 1204
GlyphClass: 2
Flags: W
LayerCount: 2
Back
Fore
SplineSet
2 37 m 2,0,-1
 283 1350 l 2,1,2
 287 1366 287 1366 297 1376 c 128,-1,3
 307 1386 307 1386 322 1386 c 1,4,5
 326 1388 326 1388 367 1390.5 c 128,-1,6
 408 1393 408 1393 473 1393 c 0,7,8
 510 1393 510 1393 547 1392 c 128,-1,9
 584 1391 584 1391 618 1389 c 1,10,11
 940 1360 940 1360 1057 1229 c 0,12,13
 1122 1155 1122 1155 1122 1056 c 0,14,15
 1122 1021 1122 1021 1114 983 c 0,16,17
 1085 854 1085 854 987 758 c 0,18,19
 854 627 854 627 600 559 c 0,20,21
 532 541 532 541 466.5 529.5 c 128,-1,22
 401 518 401 518 348 512 c 128,-1,23
 295 506 295 506 256 504 c 128,-1,24
 217 502 217 502 199 502 c 2,25,-1
 178 502 l 1,26,-1
 78 37 l 2,27,28
 74 21 74 21 61.5 10.5 c 128,-1,29
 49 0 49 0 33 0 c 0,30,31
 18 0 18 0 8 10 c 0,32,33
 1 17 1 17 1 28 c 0,34,35
 1 32 1 32 2 37 c 2,0,-1
193 578 m 1,36,-1
 213 578 l 2,37,38
 231 578 231 578 270 581 c 128,-1,39
 309 584 309 584 360.5 590 c 128,-1,40
 412 596 412 596 472 606 c 128,-1,41
 532 616 532 616 596 633 c 0,42,43
 774 680 774 680 881 756 c 1,44,45
 1008 850 1008 850 1038 983 c 0,46,47
 1044 1013 1044 1013 1044 1039 c 0,48,49
 1044 1118 1044 1118 993 1174 c 1,50,51
 944 1231 944 1231 842.5 1265.5 c 128,-1,52
 741 1300 741 1300 596 1313 c 1,53,54
 561 1315 561 1315 526.5 1316 c 128,-1,55
 492 1317 492 1317 457 1317 c 0,56,57
 434 1317 434 1317 412.5 1317 c 128,-1,58
 391 1317 391 1317 369 1315 c 1,59,-1
 350 1315 l 1,60,-1
 193 578 l 1,36,-1
EndSplineSet
EndChar
StartChar: Q
Encoding: 81 81 52
Width: 1406
GlyphClass: 2
Flags: W
LayerCount: 2
Back
Fore
SplineSet
8 391 m 0,0,1
 1 436 1 436 1 483 c 0,2,3
 1 586 1 586 33 698 c 0,4,5
 74 841 74 841 159 968.5 c 128,-1,6
 244 1096 244 1096 355.5 1190 c 128,-1,7
 467 1284 467 1284 595 1338.5 c 128,-1,8
 723 1393 723 1393 850 1393 c 0,9,10
 954 1393 954 1393 1042 1355 c 128,-1,11
 1130 1317 1130 1317 1192 1245 c 0,12,13
 1278 1145 1278 1145 1298 1002 c 0,14,15
 1305 957 1305 957 1305 910 c 0,16,17
 1305 807 1305 807 1274 694 c 1,18,19
 1251 622 1251 622 1218.5 552.5 c 128,-1,20
 1186 483 1186 483 1143 418 c 1,21,22
 1057 293 1057 293 940 195 c 1,23,-1
 918 176 l 1,24,-1
 1118 23 l 1,25,26
 1128 13 1128 13 1128 -2 c 0,27,28
 1128 -18 1128 -18 1116 -31 c 1,29,30
 1103 -47 1103 -47 1083 -47 c 0,31,32
 1069 -47 1069 -47 1061 -41 c 2,33,-1
 844 125 l 1,34,-1
 831 117 l 1,35,36
 739 58 739 58 644 29 c 128,-1,37
 549 0 549 0 457 0 c 0,38,39
 353 0 353 0 263.5 38 c 128,-1,40
 174 76 174 76 115 147 c 1,41,42
 29 247 29 247 8 391 c 0,0,1
94 413 m 0,43,44
 113 279 113 279 186 193 c 0,45,46
 292 70 292 70 471 70 c 0,47,48
 610 70 610 70 756 152 c 1,49,-1
 788 168 l 1,50,-1
 621 297 l 1,51,52
 611 307 611 307 610 322 c 0,53,54
 610 336 610 336 623 348 c 1,55,56
 635 366 635 366 657 367 c 0,57,58
 667 367 667 367 678 360 c 1,59,-1
 860 219 l 1,60,-1
 877 231 l 1,61,62
 988 321 988 321 1067.5 442 c 128,-1,63
 1147 563 1147 563 1188 698 c 0,64,65
 1214 786 1214 786 1214 873 c 0,66,67
 1214 923 1214 923 1206 972 c 0,68,69
 1182 1108 1182 1108 1102 1200 c 0,70,71
 995 1323 995 1323 819 1323 c 0,72,73
 710 1323 710 1323 601 1274 c 128,-1,74
 492 1225 492 1225 397.5 1141 c 128,-1,75
 303 1057 303 1057 229.5 941 c 128,-1,76
 156 825 156 825 119 694 c 0,77,78
 89 591 89 591 89 495 c 0,79,80
 89 453 89 453 94 413 c 0,43,44
EndSplineSet
EndChar
StartChar: R
Encoding: 82 82 53
Width: 1224
GlyphClass: 2
Flags: W
LayerCount: 2
Back
Fore
SplineSet
2 39 m 2,0,-1
 281 1350 l 1,1,2
 287 1383 287 1383 322 1386 c 0,3,4
 324 1386 324 1386 369 1390.5 c 128,-1,5
 414 1395 414 1395 485 1395 c 0,6,7
 520 1395 520 1395 552 1394 c 128,-1,8
 584 1393 584 1393 614 1391 c 0,9,10
 936 1366 936 1366 1055 1235 c 1,11,12
 1121 1159 1121 1159 1121 1057 c 0,13,14
 1121 1020 1121 1020 1112 979 c 0,15,16
 1081 829 1081 829 942 721 c 0,17,18
 831 635 831 635 662 580 c 1,19,20
 658 580 658 580 649 575 c 1,21,-1
 606 563 l 1,22,-1
 635 539 l 1,23,24
 672 514 672 514 702 483 c 1,25,26
 735 454 735 454 771 413.5 c 128,-1,27
 807 373 807 373 842 319.5 c 128,-1,28
 877 266 877 266 908.5 200.5 c 128,-1,29
 940 135 940 135 965 57 c 1,30,31
 967 43 967 43 961 29 c 1,32,33
 951 11 951 11 936 6 c 1,34,35
 928 2 928 2 920 2 c 0,36,37
 897 2 897 2 891 23 c 0,38,39
 860 125 860 125 816 203 c 128,-1,40
 772 281 772 281 727 337 c 128,-1,41
 682 393 682 393 641 429 c 128,-1,42
 600 465 600 465 573 483 c 0,43,44
 514 524 514 524 408 524 c 0,45,46
 392 524 392 524 375 523 c 128,-1,47
 358 522 358 522 342 520 c 0,48,49
 307 516 307 516 273.5 513 c 128,-1,50
 240 510 240 510 215 506 c 1,51,-1
 176 502 l 1,52,-1
 78 39 l 2,53,54
 74 23 74 23 61.5 12.5 c 128,-1,55
 49 2 49 2 33 2 c 0,56,57
 18 2 18 2 8 12 c 0,58,59
 1 19 1 19 1 30 c 0,60,61
 1 34 1 34 2 39 c 2,0,-1
190 578 m 1,62,-1
 215 580 l 1,63,64
 235 580 235 580 279.5 582 c 128,-1,65
 324 584 324 584 383 592 c 128,-1,66
 442 600 442 600 511 614.5 c 128,-1,67
 580 629 580 629 651 651 c 0,68,69
 729 676 729 676 792.5 706.5 c 128,-1,70
 856 737 856 737 903 774 c 0,71,72
 1012 862 1012 862 1036 979 c 1,73,74
 1044 1013 1044 1013 1044 1043 c 0,75,76
 1044 1066 1044 1066 1039 1088 c 0,77,78
 1028 1136 1028 1136 993 1178 c 1,79,80
 887 1293 887 1293 594 1315 c 0,81,82
 565 1317 565 1317 534.5 1318 c 128,-1,83
 504 1319 504 1319 471 1319 c 0,84,85
 444 1319 444 1319 418.5 1319 c 128,-1,86
 393 1319 393 1319 369 1317 c 2,87,-1
 348 1315 l 1,88,-1
 190 578 l 1,62,-1
EndSplineSet
EndChar
StartChar: S
Encoding: 83 83 54
Width: 1179
GlyphClass: 2
Flags: W
LayerCount: 2
Back
Fore
SplineSet
2 305 m 1,0,1
 6 323 6 323 21.5 336.5 c 128,-1,2
 37 350 37 350 55 350 c 0,3,4
 84 350 84 350 88 315 c 1,5,-1
 90 315 l 1,6,-1
 90 313 l 1,7,8
 104 196 104 196 217 127 c 1,9,10
 313 70 313 70 444 70 c 0,11,12
 446 70 446 70 503.5 75 c 128,-1,13
 561 80 561 80 637 109 c 0,14,15
 840 187 840 187 891 379 c 0,16,17
 897 402 897 402 901 440 c 0,18,19
 902 445 902 445 902 450 c 0,20,21
 902 484 902 484 877 524 c 0,22,23
 811 628 811 628 586 696 c 1,24,25
 406 747 406 747 315 829 c 0,26,27
 230 906 230 906 230 1002 c 0,28,29
 230 1038 230 1038 242 1077 c 0,30,31
 271 1171 271 1171 330 1237 c 0,32,33
 383 1296 383 1296 459 1333 c 1,34,35
 525 1362 525 1362 603.5 1378.5 c 128,-1,36
 682 1395 682 1395 776 1395 c 1,37,-1
 811 1393 l 1,38,39
 844 1393 844 1393 887 1386.5 c 128,-1,40
 930 1380 930 1380 973 1367 c 128,-1,41
 1016 1354 1016 1354 1054 1329.5 c 128,-1,42
 1092 1305 1092 1305 1114 1266 c 0,43,44
 1137 1226 1137 1226 1137 1170 c 0,45,46
 1137 1152 1137 1152 1135 1133 c 1,47,-1
 1135 1130 l 1,48,-1
 1135 1128 l 1,49,50
 1131 1112 1131 1112 1118.5 1102 c 128,-1,51
 1106 1092 1106 1092 1090 1092 c 0,52,53
 1076 1092 1076 1092 1067.5 1101 c 128,-1,54
 1059 1110 1059 1110 1061 1122 c 1,55,-1
 1061 1124 l 1,56,57
 1062 1132 1062 1132 1062 1140 c 0,58,59
 1062 1189 1062 1189 1040 1223 c 1,60,61
 1003 1284 1003 1284 895 1313 c 0,62,63
 854 1323 854 1323 821 1327 c 128,-1,64
 788 1331 788 1331 780 1331 c 2,65,-1
 772 1331 l 2,66,67
 557 1331 557 1331 442 1241 c 1,68,69
 389 1198 389 1198 364.5 1149 c 128,-1,70
 340 1100 340 1100 330 1063 c 1,71,-1
 330 1061 l 1,72,73
 322 1036 322 1036 322 1012 c 0,74,75
 322 863 322 863 621 774 c 1,76,77
 838 713 838 713 930 608 c 1,78,79
 990 538 990 538 991 448 c 0,80,81
 991 409 991 409 979 367 c 1,82,83
 930 179 930 179 737 78 c 0,84,85
 653 35 653 35 570 17.5 c 128,-1,86
 487 0 487 0 430 0 c 0,87,88
 344 0 344 0 271.5 20.5 c 128,-1,89
 199 41 199 41 142.5 78 c 128,-1,90
 86 115 86 115 50 168 c 128,-1,91
 14 221 14 221 2 287 c 1,92,-1
 2 289 l 1,93,94
 1 292 1 292 1 294 c 2,95,-1
 2 305 l 1,0,1
EndSplineSet
EndChar
StartChar: T
Encoding: 84 84 55
Width: 942
GlyphClass: 2
Flags: W
LayerCount: 2
Back
Fore
SplineSet
2 1356 m 0,0,1
 6 1372 6 1372 19.5 1383.5 c 128,-1,2
 33 1395 33 1395 49 1395 c 2,3,-1
 1032 1395 l 1,4,5
 1048 1396 1048 1396 1058 1384 c 0,6,7
 1065 1376 1065 1376 1064 1365 c 0,8,9
 1064 1361 1064 1361 1063 1356 c 0,10,11
 1059 1340 1059 1340 1045.5 1328.5 c 128,-1,12
 1032 1317 1032 1317 1016 1317 c 2,13,-1
 547 1317 l 1,14,-1
 274 37 l 2,15,16
 270 21 270 21 257.5 9.5 c 128,-1,17
 245 -2 245 -2 229 -2 c 256,18,19
 213 -2 213 -2 204 9 c 128,-1,20
 195 20 195 20 199 37 c 2,21,-1
 471 1317 l 1,22,-1
 33 1317 l 2,23,24
 18 1317 18 1317 8 1328 c 0,25,26
 1 1336 1 1336 1 1346 c 0,27,28
 1 1351 1 1351 2 1356 c 0,0,1
EndSplineSet
EndChar
StartChar: U
Encoding: 85 85 56
Width: 1316
GlyphClass: 2
Flags: W
LayerCount: 2
Back
Fore
SplineSet
6 551 m 0,0,1
 14 633 14 633 32.5 739.5 c 128,-1,2
 51 846 51 846 73.5 956.5 c 128,-1,3
 96 1067 96 1067 118.5 1171.5 c 128,-1,4
 141 1276 141 1276 160 1354 c 0,5,6
 164 1370 164 1370 177 1381.5 c 128,-1,7
 190 1393 190 1393 207 1393 c 0,8,9
 223 1393 223 1393 231.5 1381.5 c 128,-1,10
 240 1370 240 1370 236 1354 c 0,11,12
 218 1276 218 1276 195 1171.5 c 128,-1,13
 172 1067 172 1067 149.5 957.5 c 128,-1,14
 127 848 127 848 108.5 743.5 c 128,-1,15
 90 639 90 639 84 559 c 1,16,17
 79 512 79 512 80 469 c 1,18,19
 80 300 80 300 152 194 c 0,20,21
 242 60 242 60 422 61 c 1,22,-1
 465 61 l 2,23,24
 553 61 553 61 636 96 c 128,-1,25
 719 131 719 131 790.5 195.5 c 128,-1,26
 862 260 862 260 919.5 352 c 128,-1,27
 977 444 977 444 1014 559 c 0,28,29
 1039 637 1039 637 1065.5 741.5 c 128,-1,30
 1092 846 1092 846 1116.5 955.5 c 128,-1,31
 1141 1065 1141 1065 1161.5 1169.5 c 128,-1,32
 1182 1274 1182 1274 1198 1352 c 1,33,-1
 1198 1354 l 1,34,35
 1202 1370 1202 1370 1215.5 1381.5 c 128,-1,36
 1229 1393 1229 1393 1245 1393 c 0,37,38
 1262 1392 1262 1392 1270 1382 c 0,39,40
 1276 1375 1276 1375 1275 1366 c 0,41,42
 1275 1361 1275 1361 1274 1356 c 1,43,-1
 1274 1354 l 1,44,45
 1260 1276 1260 1276 1239.5 1171.5 c 128,-1,46
 1219 1067 1219 1067 1194 956.5 c 128,-1,47
 1169 846 1169 846 1142.5 739.5 c 128,-1,48
 1116 633 1116 633 1090 551 c 1,49,50
 1047 424 1047 424 983.5 320.5 c 128,-1,51
 920 217 920 217 834 145 c 1,52,53
 664 0 664 0 453 0 c 2,54,-1
 410 0 l 2,55,56
 306 0 306 0 224.5 37 c 128,-1,57
 143 74 143 74 90 145 c 0,58,59
 36 216 36 216 14 320 c 0,60,61
 0 384 0 384 1 457 c 0,62,63
 1 502 1 502 6 551 c 0,0,1
EndSplineSet
EndChar
StartChar: V
Encoding: 86 86 57
Width: 1005
GlyphClass: 2
Flags: W
LayerCount: 2
Back
Fore
SplineSet
2 1341 m 2,0,1
 2 1344 2 1344 2 1346 c 0,2,3
 2 1360 2 1360 10 1372 c 0,4,5
 20 1386 20 1386 37 1391 c 1,6,7
 41 1391 41 1391 43 1392 c 128,-1,8
 45 1393 45 1393 49 1393 c 0,9,10
 78 1393 78 1393 78 1366 c 1,11,-1
 231 150 l 1,12,-1
 971 1368 l 1,13,14
 985 1393 985 1393 1014 1393 c 0,15,16
 1022 1393 1022 1393 1026 1391 c 0,17,18
 1040 1384 1040 1384 1044 1370 c 0,19,20
 1045 1366 1045 1366 1046 1362 c 1,21,22
 1046 1352 1046 1352 1038 1341 c 1,23,-1
 238 25 l 1,24,25
 224 0 224 0 199 0 c 2,26,-1
 197 0 l 2,27,28
 172 0 172 0 166 27 c 1,29,-1
 2 1341 l 2,0,1
EndSplineSet
EndChar
StartChar: W
Encoding: 87 87 58
Width: 1581
GlyphClass: 2
Flags: W
LayerCount: 2
Back
Fore
SplineSet
2 1346 m 2,0,1
 0 1360 0 1360 10 1374.5 c 128,-1,2
 20 1389 20 1389 37 1393 c 0,3,4
 41 1393 41 1393 43 1394 c 128,-1,5
 45 1395 45 1395 49 1395 c 0,6,7
 78 1395 78 1395 78 1366 c 1,8,-1
 190 164 l 1,9,-1
 831 1368 l 1,10,11
 839 1378 839 1378 850.5 1386.5 c 128,-1,12
 862 1395 862 1395 874 1395 c 1,13,14
 901 1391 901 1391 905 1366 c 1,15,-1
 981 162 l 1,16,-1
 1671 1368 l 1,17,18
 1683 1395 1683 1395 1712 1395 c 0,19,20
 1716 1395 1716 1395 1724 1391 c 1,21,22
 1738 1389 1738 1389 1743 1372 c 0,23,24
 1744 1367 1744 1367 1744 1363 c 0,25,26
 1744 1352 1744 1352 1737 1343 c 1,27,-1
 983 25 l 2,28,29
 969 0 969 0 942 0 c 256,30,31
 915 0 915 0 911 27 c 1,32,-1
 834 1223 l 1,33,-1
 195 25 l 2,34,35
 181 0 181 0 154 0 c 256,36,37
 127 0 127 0 121 27 c 1,38,-1
 2 1346 l 2,0,1
EndSplineSet
EndChar
StartChar: X
Encoding: 88 88 59
Width: 1462
GlyphClass: 2
Flags: W
LayerCount: 2
Back
Fore
SplineSet
0 35 m 1,0,1
 4 51 4 51 16 61 c 1,2,-1
 694 707 l 1,3,-1
 330 1331 l 1,4,5
 324 1345 324 1345 326 1358 c 1,6,7
 332 1374 332 1374 346 1384 c 1,8,9
 362 1392 362 1392 371 1393 c 1,10,11
 385 1393 385 1393 399 1378 c 1,12,-1
 756 766 l 1,13,-1
 1399 1378 l 2,14,15
 1413 1392 1413 1392 1432 1393 c 0,16,17
 1444 1393 1444 1393 1454 1382 c 1,18,19
 1462 1370 1462 1370 1460 1358 c 1,20,21
 1460 1344 1460 1344 1446 1329 c 1,22,-1
 791 707 l 1,23,-1
 1167 61 l 2,24,25
 1173 51 1173 51 1169 33 c 1,26,27
 1163 17 1163 17 1149 8 c 1,28,29
 1140 0 1140 0 1126 0 c 0,30,31
 1106 0 1106 0 1098 14 c 2,32,-1
 729 647 l 1,33,-1
 63 14 l 1,34,35
 51 0 51 0 33 0 c 0,36,37
 17 0 17 0 8 8 c 0,38,39
 0 16 0 16 0 35 c 1,0,1
EndSplineSet
EndChar
StartChar: Y
Encoding: 89 89 60
Width: 1001
GlyphClass: 2
Flags: W
LayerCount: 2
Back
Fore
SplineSet
2 1337 m 2,0,1
 1 1342 1 1342 1 1347 c 0,2,3
 1 1356 1 1356 5 1366 c 0,4,5
 12 1380 12 1380 27 1389 c 1,6,7
 35 1395 35 1395 47 1395 c 0,8,9
 67 1395 67 1395 76 1376 c 1,10,-1
 397 504 l 1,11,-1
 1098 1374 l 1,12,13
 1112 1394 1112 1394 1135 1395 c 0,14,15
 1147 1395 1147 1395 1153 1389 c 0,16,17
 1165 1379 1165 1379 1165 1366 c 0,18,19
 1165 1352 1165 1352 1155 1337 c 1,20,-1
 92 18 l 1,21,22
 80 0 80 0 57 0 c 0,23,24
 51 0 51 0 39 4 c 1,25,26
 25 14 25 14 25 29 c 0,27,28
 25 41 25 41 35 57 c 1,29,-1
 336 430 l 1,30,-1
 2 1337 l 2,0,1
EndSplineSet
EndChar
StartChar: Z
Encoding: 90 90 61
Width: 1415
GlyphClass: 2
Flags: W
LayerCount: 2
Back
Fore
SplineSet
2 43 m 0,0,1
 4 59 4 59 18 76 c 1,2,-1
 31 86 l 1,3,-1
 1266 1260 l 1,4,-1
 336 1260 l 2,5,6
 320 1260 320 1260 309.5 1272 c 128,-1,7
 299 1284 299 1284 303 1300 c 256,8,9
 307 1316 307 1316 322.5 1327.5 c 128,-1,10
 338 1339 338 1339 354 1339 c 2,11,-1
 1341 1341 l 1,12,-1
 1341 1339 l 1,13,-1
 1356 1339 l 1,14,-1
 1358 1341 l 1,15,16
 1378 1341 1378 1341 1388 1328 c 0,17,18
 1395 1319 1395 1319 1394 1306 c 0,19,20
 1394 1300 1394 1300 1393 1294 c 0,21,22
 1389 1278 1389 1278 1376 1266 c 2,23,-1
 129 80 l 1,24,-1
 1038 80 l 2,25,26
 1077 80 1077 80 1071 41 c 1,27,28
 1067 25 1067 25 1052.5 12.5 c 128,-1,29
 1038 0 1038 0 1022 0 c 2,30,-1
 55 0 l 1,31,-1
 55 2 l 1,32,-1
 41 0 l 1,33,-1
 39 0 l 2,34,35
 22 0 22 0 10 12 c 0,36,37
 1 21 1 21 1 34 c 0,38,39
 1 38 1 38 2 43 c 0,0,1
EndSplineSet
EndChar
StartChar: bracketleft
Encoding: 91 91 62
Width: 833
GlyphClass: 2
Flags: W
LayerCount: 2
Back
Fore
SplineSet
2 -215 m 2,0,-1
 389 1606 l 2,1,2
 393 1622 393 1622 406.5 1633.5 c 128,-1,3
 420 1645 420 1645 436 1645 c 2,4,-1
 721 1645 l 2,5,6
 756 1645 756 1645 750 1606 c 1,7,8
 746 1590 746 1590 733.5 1579.5 c 128,-1,9
 721 1569 721 1569 705 1569 c 2,10,-1
 459 1569 l 1,11,-1
 88 -176 l 1,12,-1
 299 -176 l 2,13,14
 315 -176 315 -176 324.5 -187.5 c 128,-1,15
 334 -199 334 -199 330 -215 c 256,16,17
 326 -231 326 -231 312.5 -241.5 c 128,-1,18
 299 -252 299 -252 283 -252 c 2,19,-1
 33 -252 l 2,20,21
 17 -252 17 -252 7.5 -241.5 c 128,-1,22
 -2 -231 -2 -231 2 -215 c 2,0,-1
EndSplineSet
EndChar
StartChar: backslash
Encoding: 92 92 63
Width: 1183
GlyphClass: 2
Flags: W
LayerCount: 2
Back
Fore
SplineSet
0 1386 m 0,0,1
 0 1368 0 1368 10 1358 c 1,2,-1
 1032 20 l 1,3,4
 1053 0 1053 0 1069 0 c 0,5,6
 1081 0 1081 0 1088 6 c 1,7,8
 1100 14 1100 14 1101 28.5 c 128,-1,9
 1102 43 1102 43 1094 57 c 1,10,-1
 68 1395 l 2,11,12
 54 1413 54 1413 31 1413 c 0,13,14
 25 1413 25 1413 12 1409 c 1,15,16
 0 1399 0 1399 0 1386 c 0,0,1
EndSplineSet
EndChar
StartChar: bracketright
Encoding: 93 93 64
Width: 833
GlyphClass: 2
Flags: W
LayerCount: 2
Back
Fore
SplineSet
2 -209 m 1,0,1
 6 -193 6 -193 18.5 -182.5 c 128,-1,2
 31 -172 31 -172 47 -172 c 2,3,-1
 293 -172 l 1,4,-1
 664 1573 l 1,5,-1
 453 1573 l 2,6,7
 437 1573 437 1573 427.5 1584.5 c 128,-1,8
 418 1596 418 1596 422 1612 c 256,9,10
 426 1628 426 1628 439.5 1638.5 c 128,-1,11
 453 1649 453 1649 469 1649 c 2,12,-1
 719 1649 l 2,13,14
 735 1649 735 1649 744.5 1638.5 c 128,-1,15
 754 1628 754 1628 750 1612 c 2,16,-1
 363 -209 l 2,17,18
 359 -225 359 -225 345.5 -236.5 c 128,-1,19
 332 -248 332 -248 316 -248 c 2,20,-1
 31 -248 l 2,21,22
 -4 -248 -4 -248 2 -209 c 1,0,1
EndSplineSet
EndChar
StartChar: underscore
Encoding: 95 95 65
Width: 1095
GlyphClass: 2
Flags: W
LayerCount: 2
Back
Fore
SplineSet
2 -39 m 256,0,1
 6 -23 6 -23 19.5 -11.5 c 128,-1,2
 33 0 33 0 49 0 c 2,3,-1
 1065 0 l 2,4,5
 1081 0 1081 0 1089.5 -11.5 c 128,-1,6
 1098 -23 1098 -23 1094 -39 c 256,7,8
 1090 -55 1090 -55 1076.5 -66.5 c 128,-1,9
 1063 -78 1063 -78 1047 -78 c 2,10,-1
 33 -78 l 2,11,12
 17 -78 17 -78 7.5 -66.5 c 128,-1,13
 -2 -55 -2 -55 2 -39 c 256,0,1
EndSplineSet
EndChar
StartChar: a
Encoding: 97 97 66
Width: 1034
GlyphClass: 2
Flags: W
LayerCount: 2
Back
Fore
SplineSet
4 391 m 0,0,1
 10 461 10 461 35.5 538.5 c 128,-1,2
 61 616 61 616 102 688 c 1,3,4
 151 780 151 780 219 853 c 128,-1,5
 287 926 287 926 365 975 c 1,6,7
 424 1016 424 1016 490.5 1034.5 c 128,-1,8
 557 1053 557 1053 629 1053 c 0,9,10
 686 1053 686 1053 735 1041.5 c 128,-1,11
 784 1030 784 1030 821 1017 c 128,-1,12
 858 1004 858 1004 879.5 992.5 c 128,-1,13
 901 981 901 981 901 979 c 1,14,-1
 911 975 l 1,15,-1
 713 41 l 1,16,-1
 713 39 l 1,17,18
 709 23 709 23 696.5 11.5 c 128,-1,19
 684 0 684 0 668 0 c 256,20,21
 652 0 652 0 642.5 11.5 c 128,-1,22
 633 23 633 23 637 39 c 2,23,-1
 655 133 l 1,24,-1
 635 121 l 2,25,26
 629 117 629 117 621 113 c 0,27,28
 617 111 617 111 612 111 c 1,29,30
 553 78 553 78 469 47 c 128,-1,31
 385 16 385 16 301 16 c 2,32,-1
 293 16 l 1,33,34
 148 20 148 20 68 121 c 0,35,36
 1 204 1 204 1 336 c 0,37,38
 1 363 1 363 4 391 c 0,0,1
84 399 m 0,39,40
 82 377 82 377 82 357 c 0,41,42
 82 261 82 261 121 195 c 0,43,44
 180 97 180 97 311 92 c 1,45,-1
 317 92 l 2,46,47
 333 92 333 92 364 96 c 128,-1,48
 395 100 395 100 438 112.5 c 128,-1,49
 481 125 481 125 537.5 150.5 c 128,-1,50
 594 176 594 176 662 219 c 1,51,-1
 672 225 l 1,52,-1
 831 926 l 1,53,-1
 817 930 l 1,54,55
 799 940 799 940 769 950.5 c 128,-1,56
 739 961 739 961 700 969 c 0,57,58
 680 973 680 973 659.5 975 c 128,-1,59
 639 977 639 977 621 979 c 1,60,-1
 610 979 l 2,61,62
 495 979 495 979 401 918 c 0,63,64
 331 873 331 873 272 808 c 128,-1,65
 213 743 213 743 170 662 c 0,66,67
 135 596 135 596 112.5 527.5 c 128,-1,68
 90 459 90 459 84 399 c 0,39,40
EndSplineSet
EndChar
StartChar: b
Encoding: 98 98 67
Width: 1099
GlyphClass: 2
Flags: W
LayerCount: 2
Back
Fore
SplineSet
2 37 m 2,0,-1
 287 1376 l 1,1,-1
 289 1380 l 1,2,3
 299 1413 299 1413 334 1413 c 256,4,5
 369 1413 369 1413 365 1380 c 1,6,-1
 362 1376 l 1,7,-1
 240 797 l 1,8,9
 260 824 260 824 291 852 c 0,10,11
 318 877 318 877 357.5 904.5 c 128,-1,12
 397 932 397 932 457 958 c 0,13,14
 570 1005 570 1005 688 1006 c 1,15,-1
 723 1006 l 1,16,17
 768 1004 768 1004 803 990.5 c 128,-1,18
 838 977 838 977 862.5 955.5 c 128,-1,19
 887 934 887 934 903.5 909.5 c 128,-1,20
 920 885 920 885 930 860 c 0,21,22
 952 801 952 801 954 718 c 0,23,24
 954 712 954 712 955 705 c 1,25,26
 955 628 955 628 938 549 c 0,27,28
 930 510 930 510 912.5 443.5 c 128,-1,29
 895 377 895 377 856 305 c 0,30,31
 762 131 762 131 594 53 c 1,32,33
 535 24 535 24 479.5 16 c 128,-1,34
 424 8 424 8 383 8 c 0,35,36
 305 8 305 8 232.5 26.5 c 128,-1,37
 160 45 160 45 115 66 c 2,38,-1
 88 78 l 1,39,-1
 78 37 l 2,40,41
 74 21 74 21 62.5 10.5 c 128,-1,42
 51 0 51 0 35 0 c 0,43,44
 18 0 18 0 8 10 c 0,45,46
 0 17 0 17 1 28 c 0,47,48
 1 32 1 32 2 37 c 2,0,-1
106 164 m 1,49,-1
 117 158 l 2,50,51
 127 152 127 152 150.5 139.5 c 128,-1,52
 174 127 174 127 209 114.5 c 128,-1,53
 244 102 244 102 287 93 c 128,-1,54
 330 84 330 84 379 84 c 0,55,56
 488 84 488 84 571 123 c 0,57,58
 704 184 704 184 778 311 c 0,59,60
 813 370 813 370 832.5 434 c 128,-1,61
 852 498 852 498 864 551 c 1,62,63
 872 596 872 596 874 660 c 0,64,65
 874 669 874 669 875 677 c 0,66,67
 876 732 876 732 862 782 c 0,68,69
 846 840 846 840 807 881 c 128,-1,70
 768 922 768 922 696 926 c 1,71,-1
 674 926 l 2,72,73
 578 926 578 926 504 897 c 128,-1,74
 430 868 430 868 365 823 c 0,75,76
 299 778 299 778 254 713.5 c 128,-1,77
 209 649 209 649 195 584 c 2,78,-1
 106 164 l 1,49,-1
EndSplineSet
EndChar
StartChar: c
Encoding: 99 99 68
Width: 989
GlyphClass: 2
Flags: W
LayerCount: 2
Back
Fore
SplineSet
8 268 m 0,0,1
 1 308 1 308 1 348 c 0,2,3
 0 389 0 389 8 429 c 0,4,5
 22 508 22 508 54 575.5 c 128,-1,6
 86 643 86 643 111 684 c 1,7,8
 150 743 150 743 201 801.5 c 128,-1,9
 252 860 252 860 309 907 c 0,10,11
 358 948 358 948 431 986 c 128,-1,12
 504 1024 504 1024 588 1024 c 2,13,-1
 598 1024 l 2,14,15
 684 1024 684 1024 748.5 990 c 128,-1,16
 813 956 813 956 852 895 c 2,17,-1
 862 879 l 1,18,19
 865 872 865 872 865 864 c 0,20,21
 865 860 865 860 864 856 c 0,22,23
 860 840 860 840 849 829.5 c 128,-1,24
 838 819 838 819 821 819 c 0,25,26
 803 819 803 819 795 831 c 1,27,-1
 793 836 l 1,28,29
 787 844 787 844 782.5 853 c 128,-1,30
 778 862 778 862 774 864 c 1,31,32
 708 954 708 954 578 954 c 2,33,-1
 573 954 l 2,34,35
 467 954 467 954 342 852 c 0,36,37
 293 811 293 811 249 761 c 128,-1,38
 205 711 205 711 174 659 c 0,39,40
 110 555 110 555 90 475 c 0,41,42
 73 408 73 408 73 355 c 0,43,44
 73 344 73 344 74 334 c 0,45,46
 78 274 78 274 100.5 233.5 c 128,-1,47
 123 193 123 193 145 168 c 1,48,49
 233 74 233 74 362 70 c 1,50,-1
 391 70 l 1,51,52
 485 74 485 74 573 117 c 0,53,54
 655 158 655 158 721 229 c 1,55,-1
 727 236 l 1,56,57
 747 254 747 254 764 254 c 0,58,59
 778 254 778 254 787.5 243.5 c 128,-1,60
 797 233 797 233 793 217 c 0,61,62
 789 203 789 203 776 193 c 1,63,-1
 774 193 l 1,64,-1
 774 190 l 1,65,66
 739 149 739 149 693 115.5 c 128,-1,67
 647 82 647 82 596 57 c 0,68,69
 490 6 490 6 381 0 c 1,70,-1
 358 0 l 2,71,72
 198 0 198 0 88 117 c 0,73,74
 22 186 22 186 8 268 c 0,0,1
EndSplineSet
EndChar
StartChar: d
Encoding: 100 100 69
Width: 1077
GlyphClass: 2
Flags: W
LayerCount: 2
Back
Fore
SplineSet
0 300 m 0,0,1
 0 307 0 307 0 315 c 0,2,3
 0 389 0 389 18 467 c 0,4,5
 28 510 28 510 48 577.5 c 128,-1,6
 68 645 68 645 109 717 c 1,7,8
 203 889 203 889 377 969 c 0,9,10
 471 1012 471 1012 573 1012 c 2,11,-1
 586 1012 l 1,12,13
 711 1008 711 1008 842 946 c 1,14,-1
 866 934 l 1,15,-1
 975 1395 l 1,16,-1
 975 1397 l 1,17,18
 979 1413 979 1413 994.5 1424.5 c 128,-1,19
 1010 1436 1010 1436 1026 1436 c 256,20,21
 1042 1436 1042 1436 1050 1424 c 0,22,23
 1056 1416 1056 1416 1056 1405 c 0,24,25
 1056 1400 1056 1400 1055 1395 c 2,26,-1
 733 35 l 2,27,28
 729 19 729 19 715.5 8.5 c 128,-1,29
 702 -2 702 -2 686 -2 c 256,30,31
 670 -2 670 -2 660.5 11.5 c 128,-1,32
 651 25 651 25 655 41 c 0,33,34
 657 51 657 51 662 63 c 0,35,36
 666 73 666 73 668 86.5 c 128,-1,37
 670 100 670 100 674 115 c 2,38,-1
 694 188 l 1,39,-1
 647 154 l 1,40,41
 446 0 446 0 264 0 c 2,42,-1
 250 0 l 2,43,44
 244 0 244 0 236 2 c 1,45,46
 189 4 189 4 154 19.5 c 128,-1,47
 119 35 119 35 94.5 57.5 c 128,-1,48
 70 80 70 80 53.5 105.5 c 128,-1,49
 37 131 37 131 27 156 c 0,50,51
 2 219 2 219 0 300 c 0,0,1
79 304 m 0,52,53
 80 268 80 268 88 231 c 0,54,55
 123 86 123 86 252 76 c 1,56,-1
 281 76 l 2,57,58
 355 76 355 76 434.5 110.5 c 128,-1,59
 514 145 514 145 584 190 c 0,60,61
 643 227 643 227 682 266 c 128,-1,62
 721 305 721 305 731 352 c 1,63,-1
 848 850 l 1,64,-1
 838 856 l 2,65,66
 822 866 822 866 795 880.5 c 128,-1,67
 768 895 768 895 731 908.5 c 128,-1,68
 694 922 694 922 650 931 c 128,-1,69
 606 940 606 940 557 940 c 0,70,71
 473 940 473 940 397 905 c 0,72,73
 262 842 262 842 184 713 c 0,74,75
 147 652 147 652 126.5 585 c 128,-1,76
 106 518 106 518 94 465 c 0,77,78
 92 453 92 453 88 429.5 c 128,-1,79
 84 406 84 406 81 373 c 0,80,81
 79 348 79 348 79 322 c 0,82,83
 79 313 79 313 79 304 c 0,52,53
EndSplineSet
EndChar
StartChar: e
Encoding: 101 101 70
Width: 1009
GlyphClass: 2
Flags: W
LayerCount: 2
Back
Fore
SplineSet
6 319 m 0,0,1
 0 347 0 347 0 382 c 0,2,3
 0 418 0 418 7 462 c 0,4,5
 20 546 20 546 59 633 c 1,6,7
 75 672 75 672 101 716 c 128,-1,8
 127 760 127 760 164 804 c 128,-1,9
 201 848 201 848 250 890 c 128,-1,10
 299 932 299 932 365 965 c 1,11,12
 474 1022 474 1022 592 1022 c 0,13,14
 627 1022 627 1022 668 1016 c 0,15,16
 678 1014 678 1014 686 1013 c 128,-1,17
 694 1012 694 1012 705 1008 c 0,18,19
 740 998 740 998 775.5 979.5 c 128,-1,20
 811 961 811 961 842 926 c 0,21,22
 854 912 854 912 864 897 c 0,23,24
 866 893 866 893 867 889 c 128,-1,25
 868 885 868 885 872 881 c 1,26,27
 874 875 874 875 879 870 c 1,28,29
 883 860 883 860 886 852 c 128,-1,30
 889 844 889 844 893 834 c 256,31,32
 897 824 897 824 898 814.5 c 128,-1,33
 899 805 899 805 901 797 c 0,34,35
 905 783 905 783 904 772 c 1,36,37
 904 758 904 758 899 750 c 1,38,39
 895 736 895 736 858 715 c 0,40,41
 850 711 850 711 796.5 684 c 128,-1,42
 743 657 743 657 666.5 618.5 c 128,-1,43
 590 580 590 580 501 533.5 c 128,-1,44
 412 487 412 487 330 445 c 128,-1,45
 248 403 248 403 185.5 370.5 c 128,-1,46
 123 338 123 338 100 328 c 1,47,-1
 78 317 l 1,48,-1
 84 299 l 2,49,50
 162 68 162 68 430 68 c 2,51,-1
 432 68 l 2,52,53
 448 68 448 68 481 72 c 128,-1,54
 514 76 514 76 556 88 c 128,-1,55
 598 100 598 100 646 125 c 128,-1,56
 694 150 694 150 741 193 c 1,57,-1
 745 195 l 1,58,59
 758 207 758 207 772 207 c 256,60,61
 786 207 786 207 793.5 196.5 c 128,-1,62
 801 186 801 186 797 172 c 0,63,64
 793 156 793 156 784 147 c 1,65,-1
 764 131 l 1,66,67
 711 86 711 86 657.5 60.5 c 128,-1,68
 604 35 604 35 557 21.5 c 128,-1,69
 510 8 510 8 474 4 c 128,-1,70
 438 0 438 0 420 0 c 2,71,-1
 418 0 l 2,72,73
 248 0 248 0 143 80 c 1,74,75
 39 164 39 164 6 319 c 0,0,1
66 395 m 2,76,77
 66 391 66 391 68 391 c 0,78,79
 256 483 256 483 414 561 c 0,80,81
 482 594 482 594 547 626.5 c 128,-1,82
 612 659 612 659 666.5 686 c 128,-1,83
 721 713 721 713 760 732.5 c 128,-1,84
 799 752 799 752 811 758 c 1,85,86
 829 765 829 765 829 776 c 0,87,88
 829 898 829 898 676 940 c 1,89,90
 649 946 649 946 623.5 948 c 128,-1,91
 598 950 598 950 578.5 950 c 128,-1,92
 559 950 559 950 547 949 c 2,93,-1
 535 948 l 1,94,95
 457 940 457 940 381 901 c 0,96,97
 231 823 231 823 143 664 c 1,98,99
 98 578 98 578 83 510 c 128,-1,100
 68 442 68 442 66 420 c 1,101,-1
 66 395 l 2,76,77
EndSplineSet
EndChar
StartChar: f
Encoding: 102 102 71
Width: 708
GlyphClass: 2
Flags: W
LayerCount: 2
Back
Fore
SplineSet
2 989 m 0,0,1
 6 1001 6 1001 17.5 1011.5 c 128,-1,2
 29 1022 29 1022 41 1022 c 2,3,-1
 225 1022 l 1,4,-1
 229 1044 l 1,5,6
 249 1142 249 1142 280 1204 c 128,-1,7
 311 1266 311 1266 360 1313 c 0,8,9
 464 1415 464 1415 678 1415 c 0,10,11
 680 1415 680 1415 690 1415 c 128,-1,12
 700 1415 700 1415 710.5 1416 c 128,-1,13
 721 1417 721 1417 731 1417 c 128,-1,14
 741 1417 741 1417 743 1417 c 0,15,16
 769 1414 769 1414 769 1391 c 0,17,18
 769 1387 769 1387 768 1382 c 0,19,20
 762 1347 762 1347 727 1348 c 1,21,-1
 723 1348 l 1,22,-1
 676 1348 l 2,23,24
 582 1348 582 1348 518.5 1329.5 c 128,-1,25
 455 1311 455 1311 414 1274 c 128,-1,26
 373 1237 373 1237 348.5 1179.5 c 128,-1,27
 324 1122 324 1122 307 1044 c 1,28,-1
 303 1022 l 1,29,-1
 614 1022 l 2,30,31
 628 1022 628 1022 636.5 1011.5 c 128,-1,32
 645 1001 645 1001 641 989 c 256,33,34
 637 977 637 977 625.5 965.5 c 128,-1,35
 614 954 614 954 598 954 c 2,36,-1
 289 954 l 1,37,-1
 92 37 l 1,38,-1
 92 35 l 1,39,40
 88 19 88 19 74.5 8.5 c 128,-1,41
 61 -2 61 -2 45 -2 c 256,42,43
 29 -2 29 -2 20.5 8 c 128,-1,44
 12 18 12 18 16 35 c 1,45,-1
 14 37 l 1,46,-1
 211 954 l 1,47,-1
 31 954 l 2,48,49
 17 954 17 954 8 964 c 0,50,51
 1 972 1 972 1 981 c 0,52,53
 1 985 1 985 2 989 c 0,0,1
EndSplineSet
EndChar
StartChar: g
Encoding: 103 103 72
Width: 1136
GlyphClass: 2
Flags: W
LayerCount: 2
Back
Fore
SplineSet
2 -326 m 0,0,1
 6 -310 6 -310 19.5 -298.5 c 128,-1,2
 33 -287 33 -287 49 -287 c 0,3,4
 55 -287 55 -287 63 -291 c 1,5,-1
 66 -291 l 1,6,-1
 68 -293 l 1,7,8
 175 -317 175 -317 282 -317 c 0,9,10
 287 -317 287 -317 291 -317 c 0,11,12
 311 -317 311 -317 330.5 -316 c 128,-1,13
 350 -315 350 -315 371 -313 c 0,14,15
 449 -307 449 -307 516 -264 c 0,16,17
 573 -227 573 -227 614 -170 c 1,18,19
 651 -121 651 -121 669.5 -73 c 128,-1,20
 688 -25 688 -25 698 4 c 1,21,22
 700 14 700 14 708.5 49 c 128,-1,23
 717 84 717 84 731 143 c 2,24,-1
 745 201 l 1,25,26
 739 193 739 193 731 184 c 0,27,28
 723 176 723 176 712.5 165 c 128,-1,29
 702 154 702 154 690 139 c 1,30,31
 624 65 624 65 543.5 32.5 c 128,-1,32
 463 0 463 0 375 -2 c 1,33,-1
 371 -2 l 1,34,-1
 369 -2 l 2,35,36
 199 -2 199 -2 121 139 c 1,37,38
 86 198 86 198 72 271 c 0,39,40
 65 311 65 311 65 353 c 0,41,42
 65 387 65 387 70 422 c 1,43,44
 78 496 78 496 107.5 576.5 c 128,-1,45
 137 657 137 657 188.5 733 c 128,-1,46
 240 809 240 809 314.5 873.5 c 128,-1,47
 389 938 389 938 492 981 c 0,48,49
 592 1022 592 1022 678 1022 c 0,50,51
 750 1022 750 1022 803 1000.5 c 128,-1,52
 856 979 856 979 891 956 c 2,53,-1
 918 938 l 1,54,-1
 926 975 l 1,55,56
 930 983 930 983 930 989 c 1,57,-1
 934 1010 l 2,58,59
 938 1026 938 1026 951.5 1036.5 c 128,-1,60
 965 1047 965 1047 981 1047 c 256,61,62
 997 1047 997 1047 1006 1034 c 1,63,64
 1013 1026 1013 1026 1013 1015 c 0,65,66
 1013 1011 1013 1011 1012 1006 c 0,67,68
 1012 1004 1012 1004 1001.5 959.5 c 128,-1,69
 991 915 991 915 974.5 846.5 c 128,-1,70
 958 778 958 778 936.5 690 c 128,-1,71
 915 602 915 602 893.5 510 c 128,-1,72
 872 418 872 418 850.5 329 c 128,-1,73
 829 240 829 240 813 169 c 128,-1,74
 797 98 797 98 785.5 51 c 128,-1,75
 774 4 774 4 772 -2 c 0,76,77
 729 -166 729 -166 614 -274 c 0,78,79
 561 -325 561 -325 496.5 -354 c 128,-1,80
 432 -383 432 -383 362 -391 c 0,81,82
 339 -393 339 -393 317 -394 c 128,-1,83
 295 -395 295 -395 272 -395 c 0,84,85
 202 -395 202 -395 144 -387 c 128,-1,86
 86 -379 86 -379 43 -369 c 1,87,-1
 25 -362 l 1,88,89
 1 -357 1 -357 1 -336 c 0,90,91
 1 -331 1 -331 2 -326 c 0,0,1
135 424 m 0,92,93
 133 402 133 402 133 380 c 0,94,95
 133 341 133 341 140 302 c 0,96,97
 150 240 150 240 174 193 c 1,98,99
 244 68 244 68 379 68 c 2,100,-1
 385 68 l 1,101,102
 453 70 453 70 518.5 97.5 c 128,-1,103
 584 125 584 125 637 176 c 0,104,105
 772 303 772 303 825 547 c 0,106,107
 833 582 833 582 844.5 633 c 128,-1,108
 856 684 856 684 866.5 732 c 128,-1,109
 877 780 877 780 884 814 c 2,110,-1
 891 848 l 1,111,-1
 893 856 l 1,112,-1
 887 862 l 2,113,114
 885 864 885 864 867.5 877.5 c 128,-1,115
 850 891 850 891 821.5 906.5 c 128,-1,116
 793 922 793 922 755 934 c 128,-1,117
 717 946 717 946 676 946 c 0,118,119
 592 946 592 946 504 911 c 1,120,121
 391 864 391 864 321.5 794.5 c 128,-1,122
 252 725 252 725 212 652.5 c 128,-1,123
 172 580 172 580 155.5 517.5 c 128,-1,124
 139 455 139 455 135 424 c 0,92,93
EndSplineSet
EndChar
StartChar: h
Encoding: 104 104 73
Width: 1069
GlyphClass: 2
Flags: W
LayerCount: 2
Back
Fore
SplineSet
2 37 m 1,0,-1
 4 41 l 1,1,-1
 283 1352 l 1,2,-1
 287 1374 l 1,3,-1
 287 1376 l 1,4,5
 291 1392 291 1392 304 1402.5 c 128,-1,6
 317 1413 317 1413 334 1413 c 0,7,8
 350 1413 350 1413 358.5 1403 c 128,-1,9
 367 1393 367 1393 362 1376 c 1,10,-1
 362 1374 l 1,11,-1
 358 1352 l 1,12,-1
 211 651 l 1,13,14
 231 684 231 684 284.5 745.5 c 128,-1,15
 338 807 338 807 409.5 868.5 c 128,-1,16
 481 930 481 930 564 975 c 128,-1,17
 647 1020 647 1020 729 1020 c 0,18,19
 852 1020 852 1020 889 889 c 1,20,21
 905 826 905 826 905 735 c 0,22,23
 905 724 905 724 905 714 c 0,24,25
 903 610 903 610 874 471 c 1,26,27
 845 315 845 315 820 206.5 c 128,-1,28
 795 98 795 98 784 49 c 1,29,-1
 782 43 l 1,30,-1
 780 35 l 2,31,32
 776 21 776 21 765 10.5 c 128,-1,33
 754 0 754 0 737 0 c 0,34,35
 721 0 721 0 711.5 10 c 128,-1,36
 702 20 702 20 707 35 c 1,37,-1
 707 37 l 1,38,-1
 709 39 l 1,39,-1
 709 47 l 1,40,41
 721 92 721 92 746.5 200.5 c 128,-1,42
 772 309 772 309 801 469 c 1,43,44
 830 617 830 617 830 720 c 0,45,46
 830 770 830 770 823 809 c 1,47,48
 811 895 811 895 772 928 c 0,49,50
 756 942 756 942 739.5 944 c 128,-1,51
 723 946 723 946 713 946 c 0,52,53
 639 946 639 946 562 900 c 128,-1,54
 485 854 485 854 417.5 792.5 c 128,-1,55
 350 731 350 731 300 670.5 c 128,-1,56
 250 610 250 610 229 582 c 0,57,58
 194 535 194 535 178 482.5 c 128,-1,59
 162 430 162 430 152 383 c 2,60,-1
 80 39 l 1,61,-1
 78 37 l 1,62,63
 74 21 74 21 62.5 10.5 c 128,-1,64
 51 0 51 0 35 0 c 0,65,66
 18 0 18 0 8 10 c 0,67,68
 0 17 0 17 1 28 c 0,69,70
 1 32 1 32 2 37 c 1,0,-1
EndSplineSet
EndChar
StartChar: i
Encoding: 105 105 74
Width: 419
GlyphClass: 2
Flags: W
LayerCount: 2
Back
Fore
SplineSet
2 33 m 0,0,1
 2 35 2 35 16.5 97.5 c 128,-1,2
 31 160 31 160 51.5 253 c 128,-1,3
 72 346 72 346 97.5 457.5 c 128,-1,4
 123 569 123 569 145.5 670.5 c 128,-1,5
 168 772 168 772 186.5 850 c 128,-1,6
 205 928 205 928 211 954 c 1,7,-1
 213 967 l 1,8,9
 217 983 217 983 231.5 995.5 c 128,-1,10
 246 1008 246 1008 262 1008 c 256,11,12
 278 1008 278 1008 288.5 995.5 c 128,-1,13
 299 983 299 983 295 967 c 2,14,-1
 293 958 l 1,15,16
 240 727 240 727 205 569.5 c 128,-1,17
 170 412 170 412 146.5 308.5 c 128,-1,18
 123 205 123 205 110.5 149.5 c 128,-1,19
 98 94 98 94 92 68.5 c 128,-1,20
 86 43 86 43 85 38 c 2,21,-1
 84 33 l 2,22,23
 80 17 80 17 65.5 5.5 c 128,-1,24
 51 -6 51 -6 35 -6 c 0,25,26
 1 -6 1 -6 1 23 c 0,27,28
 1 28 1 28 2 33 c 0,0,1
283 1272 m 2,29,-1
 303 1358 l 2,30,31
 307 1374 307 1374 319.5 1384.5 c 128,-1,32
 332 1395 332 1395 348 1395 c 0,33,34
 364 1396 364 1396 372 1384 c 0,35,36
 378 1376 378 1376 378 1366 c 0,37,38
 378 1361 378 1361 377 1356 c 2,39,-1
 356 1270 l 2,40,41
 352 1254 352 1254 339.5 1243.5 c 128,-1,42
 327 1233 327 1233 311 1233 c 0,43,44
 282 1233 282 1233 282 1260 c 0,45,46
 282 1266 282 1266 283 1272 c 2,29,-1
EndSplineSet
EndChar
StartChar: j
Encoding: 106 106 75
Width: 735
GlyphClass: 2
Flags: W
LayerCount: 2
Back
Fore
SplineSet
-203 -92 m 1,0,1
 -205 -78 -205 -78 -194.5 -63.5 c 128,-1,2
 -184 -49 -184 -49 -168 -45 c 1,3,4
 -166 -43 -166 -43 -158 -43 c 0,5,6
 -131 -43 -131 -43 -127 -70 c 1,7,-1
 -127 -72 l 1,8,-1
 -127 -74 l 1,9,-1
 -125 -84 l 1,10,11
 -76 -319 -76 -319 48 -319 c 2,12,13
 48 -319 48 -319 49 -319 c 0,14,15
 84 -319 84 -319 130 -294.5 c 128,-1,16
 176 -270 176 -270 217 -190 c 0,17,18
 240 -143 240 -143 253 -99 c 128,-1,19
 266 -55 266 -55 270 -37 c 0,20,21
 272 -25 272 -25 283.5 30.5 c 128,-1,22
 295 86 295 86 311.5 167 c 128,-1,23
 328 248 328 248 346.5 346 c 128,-1,24
 365 444 365 444 384 542.5 c 128,-1,25
 403 641 403 641 421.5 731 c 128,-1,26
 440 821 440 821 453 887 c 0,27,28
 457 907 457 907 460 924.5 c 128,-1,29
 463 942 463 942 467 956 c 0,30,31
 471 972 471 972 473 987 c 1,32,-1
 473 989 l 1,33,-1
 473 991 l 1,34,35
 483 1026 483 1026 518 1026 c 0,36,37
 534 1026 534 1026 543.5 1016 c 128,-1,38
 553 1006 553 1006 549 989 c 1,39,-1
 549 987 l 1,40,-1
 545 967 l 2,41,42
 541 947 541 947 532 913 c 1,43,44
 522 858 522 858 504.5 771 c 128,-1,45
 487 684 487 684 468 584.5 c 128,-1,46
 449 485 449 485 428.5 382 c 128,-1,47
 408 279 408 279 391.5 192.5 c 128,-1,48
 375 106 375 106 362.5 47 c 128,-1,49
 350 -12 350 -12 348 -27 c 1,50,51
 342 -52 342 -52 324.5 -108 c 128,-1,52
 307 -164 307 -164 272 -223 c 1,53,54
 231 -301 231 -301 166 -344 c 1,55,56
 107 -385 107 -385 37 -385 c 0,57,58
 -84 -385 -84 -385 -152 -256 c 0,59,60
 -164 -233 -164 -233 -178.5 -193.5 c 128,-1,61
 -193 -154 -193 -154 -203 -94 c 1,62,-1
 -203 -92 l 1,0,1
545 1278 m 128,-1,64
 545 1286 545 1286 547 1294 c 2,65,-1
 578 1384 l 1,66,67
 592 1413 592 1413 621 1413 c 0,68,69
 627 1413 627 1413 631 1411 c 0,70,71
 647 1407 647 1407 651 1394 c 0,72,73
 653 1390 653 1390 653 1384 c 0,74,75
 653 1376 653 1376 649 1366 c 0,76,77
 641 1343 641 1343 635 1325 c 1,78,79
 631 1317 631 1317 630 1310 c 128,-1,80
 629 1303 629 1303 627 1296 c 0,81,82
 625 1288 625 1288 623 1282 c 0,83,84
 619 1268 619 1268 605 1258.5 c 128,-1,85
 591 1249 591 1249 575 1249 c 2,86,-1
 571 1249 l 1,87,88
 555 1253 555 1253 549 1264 c 0,89,63
 545 1270 545 1270 545 1278 c 128,-1,64
EndSplineSet
EndChar
StartChar: k
Encoding: 107 107 76
Width: 1024
GlyphClass: 2
Flags: W
LayerCount: 2
Back
Fore
SplineSet
2 35 m 1,0,-1
 2 37 l 1,1,-1
 281 1376 l 1,2,-1
 283 1378 l 1,3,4
 287 1394 287 1394 299 1404.5 c 128,-1,5
 311 1415 311 1415 328 1415 c 0,6,7
 344 1415 344 1415 354.5 1405 c 128,-1,8
 365 1395 365 1395 360 1378 c 1,9,-1
 358 1376 l 1,10,-1
 358 1374 l 1,11,-1
 174 498 l 1,12,-1
 213 520 l 2,13,14
 264 549 264 549 344 602 c 128,-1,15
 424 655 424 655 515 725 c 128,-1,16
 606 795 606 795 701.5 874.5 c 128,-1,17
 797 954 797 954 877 1036 c 1,18,-1
 879 1036 l 1,19,-1
 879 1038 l 1,20,21
 891 1054 891 1054 911 1055 c 1,22,23
 928 1054 928 1054 936 1044 c 0,24,25
 942 1037 942 1037 941 1028 c 0,26,27
 941 1023 941 1023 940 1018 c 0,28,29
 938 1010 938 1010 935 1004.5 c 128,-1,30
 932 999 932 999 928 995 c 2,31,-1
 909 979 l 1,32,-1
 911 979 l 1,33,34
 868 936 868 936 812 886 c 128,-1,35
 756 836 756 836 699.5 787.5 c 128,-1,36
 643 739 643 739 589 696 c 128,-1,37
 535 653 535 653 496 623 c 1,38,-1
 477 610 l 1,39,40
 551 487 551 487 614 379 c 0,41,42
 641 332 641 332 668.5 285 c 128,-1,43
 696 238 696 238 719.5 196 c 128,-1,44
 743 154 743 154 762.5 120 c 128,-1,45
 782 86 782 86 795 66 c 1,46,-1
 797 66 l 1,47,-1
 797 63 l 1,48,49
 805 51 805 51 803 41 c 1,50,51
 803 27 803 27 788 12 c 0,52,53
 778 2 778 2 758 -2 c 1,54,-1
 756 -2 l 2,55,56
 736 -2 736 -2 729 12 c 1,57,-1
 727 14 l 1,58,59
 713 39 713 39 691.5 77 c 128,-1,60
 670 115 670 115 645.5 158 c 128,-1,61
 621 201 621 201 593 248 c 128,-1,62
 565 295 565 295 539 340 c 1,63,64
 476 444 476 444 406 561 c 1,65,-1
 393 555 l 1,66,67
 321 508 321 508 264 474 c 128,-1,68
 207 440 207 440 170 420 c 1,69,-1
 158 414 l 1,70,-1
 80 45 l 1,71,-1
 78 37 l 1,72,-1
 78 35 l 1,73,74
 74 19 74 19 60.5 8.5 c 128,-1,75
 47 -2 47 -2 31 -2 c 0,76,77
 14 -2 14 -2 6 8 c 0,78,79
 0 15 0 15 1 25 c 0,80,81
 1 30 1 30 2 35 c 1,0,-1
EndSplineSet
EndChar
StartChar: l
Encoding: 108 108 77
Width: 407
GlyphClass: 2
Flags: W
LayerCount: 2
Back
Fore
SplineSet
2 31 m 2,0,-1
 2 35 l 1,1,-1
 287 1374 l 1,2,-1
 287 1376 l 1,3,4
 297 1415 297 1415 334 1415 c 0,5,6
 350 1415 350 1415 360 1404 c 0,7,8
 367 1396 367 1396 366 1386 c 0,9,10
 366 1381 366 1381 365 1376 c 1,11,-1
 365 1374 l 1,12,-1
 80 35 l 1,13,-1
 78 31 l 1,14,15
 74 17 74 17 60.5 7.5 c 128,-1,16
 47 -2 47 -2 33 -2 c 0,17,18
 20 -2 20 -2 10 7 c 0,19,20
 2 14 2 14 2 26 c 0,21,22
 2 28 2 28 2 31 c 2,0,-1
EndSplineSet
EndChar
StartChar: m
Encoding: 109 109 78
Width: 1712
GlyphClass: 2
Flags: W
LayerCount: 2
Back
Fore
SplineSet
2 37 m 1,0,-1
 4 41 l 1,1,-1
 199 961 l 1,2,-1
 205 983 l 2,3,4
 209 999 209 999 221 1009.5 c 128,-1,5
 233 1020 233 1020 250 1020 c 0,6,7
 266 1020 266 1020 274.5 1008.5 c 128,-1,8
 283 997 283 997 279 981 c 2,9,-1
 274 961 l 1,10,-1
 221 711 l 1,11,12
 299 805 299 805 383 879 c 0,13,14
 455 942 455 942 544 994.5 c 128,-1,15
 633 1047 633 1047 721 1047 c 0,16,17
 922 1047 922 1047 926 827 c 1,18,-1
 926 799 l 1,19,20
 983 869 983 869 1051 922 c 0,21,22
 1110 969 1110 969 1189 1008 c 128,-1,23
 1268 1047 1268 1047 1362 1047 c 0,24,25
 1473 1047 1473 1047 1526 979 c 0,26,27
 1568 926 1568 926 1568 828 c 0,28,29
 1568 761 1568 761 1548 674 c 1,30,-1
 1415 41 l 1,31,-1
 1413 37 l 1,32,33
 1409 21 1409 21 1396.5 10.5 c 128,-1,34
 1384 0 1384 0 1368 0 c 256,35,36
 1352 0 1352 0 1342.5 10 c 128,-1,37
 1333 20 1333 20 1337 37 c 1,38,-1
 1339 41 l 1,39,-1
 1475 680 l 2,40,41
 1491 752 1491 752 1491 807 c 0,42,43
 1491 881 1491 881 1462 924 c 0,44,45
 1429 975 1429 975 1348 975 c 0,46,47
 1295 975 1295 975 1225 946.5 c 128,-1,48
 1155 918 1155 918 1090 868 c 1,49,50
 1010 809 1010 809 957.5 733 c 128,-1,51
 905 657 905 657 889 571 c 1,52,-1
 776 41 l 1,53,-1
 772 37 l 1,54,55
 768 21 768 21 756.5 10.5 c 128,-1,56
 745 0 745 0 729 0 c 256,57,58
 713 0 713 0 702.5 10 c 128,-1,59
 692 20 692 20 696 37 c 1,60,-1
 698 41 l 1,61,-1
 834 678 l 2,62,63
 850 750 850 750 850 805 c 0,64,65
 850 879 850 879 821 922 c 0,66,67
 788 973 788 973 705 973 c 0,68,69
 664 973 664 973 612.5 951.5 c 128,-1,70
 561 930 561 930 504 889 c 1,71,72
 438 844 438 844 369.5 778.5 c 128,-1,73
 301 713 301 713 233 633 c 1,74,75
 206 598 206 598 195 566.5 c 128,-1,76
 184 535 184 535 184 532 c 2,77,-1
 80 41 l 1,78,-1
 78 37 l 1,79,80
 74 21 74 21 62.5 10.5 c 128,-1,81
 51 0 51 0 35 0 c 0,82,83
 18 0 18 0 8 10 c 0,84,85
 0 17 0 17 1 28 c 0,86,87
 1 32 1 32 2 37 c 1,0,-1
EndSplineSet
EndChar
StartChar: n
Encoding: 110 110 79
Width: 1116
GlyphClass: 2
Flags: W
LayerCount: 2
Back
Fore
SplineSet
2 37 m 1,0,-1
 4 39 l 1,1,-1
 205 983 l 1,2,-1
 205 985 l 1,3,4
 209 1001 209 1001 222.5 1012.5 c 128,-1,5
 236 1024 236 1024 252 1024 c 256,6,7
 268 1024 268 1024 277.5 1012.5 c 128,-1,8
 287 1001 287 1001 283 985 c 1,9,-1
 283 983 l 1,10,-1
 195 573 l 1,11,12
 265 698 265 698 348 797 c 0,13,14
 385 840 385 840 428 880 c 128,-1,15
 471 920 471 920 521 951.5 c 128,-1,16
 571 983 571 983 628.5 1002.5 c 128,-1,17
 686 1022 686 1022 748 1022 c 0,18,19
 846 1022 846 1022 897 971 c 1,20,21
 922 942 922 942 935 903 c 128,-1,22
 948 864 948 864 950 809 c 0,23,24
 951 795 951 795 950 781 c 1,25,26
 950 694 950 694 930 574 c 0,27,28
 906 434 906 434 862 223 c 0,29,30
 846 147 846 147 837.5 107.5 c 128,-1,31
 829 68 829 68 827 51 c 1,32,33
 825 47 825 47 825 39 c 1,34,-1
 823 37 l 1,35,36
 819 23 819 23 808 12.5 c 128,-1,37
 797 2 797 2 780 2 c 0,38,39
 764 2 764 2 754.5 12.5 c 128,-1,40
 745 23 745 23 750 37 c 1,41,42
 752 39 752 39 752 41 c 2,43,-1
 752 43 l 2,44,45
 752 47 752 47 753 49 c 128,-1,46
 754 51 754 51 754 55 c 0,47,48
 758 75 758 75 765 112.5 c 128,-1,49
 772 150 772 150 786 221 c 1,50,51
 825 400 825 400 854 548 c 0,52,53
 879 678 879 678 879 767 c 0,54,55
 879 779 879 779 879 791 c 1,56,57
 875 834 875 834 866.5 863.5 c 128,-1,58
 858 893 858 893 840 911 c 0,59,60
 805 948 805 948 731 948 c 0,61,62
 639 948 639 948 555 897 c 1,63,64
 446 834 446 834 334 684 c 0,65,66
 258 582 258 582 200.5 457 c 128,-1,67
 143 332 143 332 119 217 c 1,68,-1
 80 43 l 1,69,-1
 80 41 l 1,70,-1
 80 39 l 1,71,72
 76 23 76 23 63.5 11.5 c 128,-1,73
 51 0 51 0 35 0 c 0,74,75
 20 0 20 0 10 10 c 0,76,77
 2 18 2 18 2 31 c 0,78,79
 2 34 2 34 2 37 c 1,0,-1
EndSplineSet
EndChar
StartChar: o
Encoding: 111 111 80
Width: 1052
GlyphClass: 2
Flags: W
LayerCount: 2
Back
Fore
SplineSet
6 290 m 0,0,1
 1 322 1 322 1 356 c 0,2,3
 1 432 1 432 25 514 c 0,4,5
 56 618 56 618 116 711.5 c 128,-1,6
 176 805 176 805 255 873.5 c 128,-1,7
 334 942 334 942 425 982 c 128,-1,8
 516 1022 516 1022 606 1022 c 0,9,10
 682 1022 682 1022 744.5 994.5 c 128,-1,11
 807 967 807 967 850 913 c 0,12,13
 908 839 908 839 924 734 c 0,14,15
 929 702 929 702 930 668 c 1,16,17
 930 592 930 592 905 510 c 0,18,19
 874 406 874 406 814 312.5 c 128,-1,20
 754 219 754 219 676 149.5 c 128,-1,21
 598 80 598 80 507 40 c 128,-1,22
 416 0 416 0 326 0 c 0,23,24
 172 0 172 0 80 111 c 1,25,26
 22 185 22 185 6 290 c 0,0,1
84 307 m 1,27,28
 92 260 92 260 107.5 218 c 128,-1,29
 123 176 123 176 147 145 c 1,30,31
 221 59 221 59 336 59 c 0,32,33
 410 59 410 59 485.5 95 c 128,-1,34
 561 131 561 131 633 197 c 1,35,36
 703 263 703 263 753 343.5 c 128,-1,37
 803 424 803 424 827 514 c 1,38,39
 846 578 846 578 846 644 c 0,40,41
 846 680 846 680 840 717 c 1,42,43
 820 817 820 817 770 877 c 1,44,45
 701 965 701 965 584 965 c 0,46,47
 512 965 512 965 436 929 c 128,-1,48
 360 893 360 893 291 825 c 1,49,50
 225 762 225 762 177 681 c 128,-1,51
 129 600 129 600 102 510 c 1,52,53
 81 435 81 435 81 362 c 0,54,55
 81 334 81 334 84 307 c 1,27,28
EndSplineSet
EndChar
StartChar: p
Encoding: 112 112 81
Width: 1087
GlyphClass: 2
Flags: W
LayerCount: 2
Back
Fore
SplineSet
-80 -377 m 1,0,-1
 205 958 l 1,1,-1
 209 979 l 1,2,-1
 209 981 l 1,3,4
 213 997 213 997 226.5 1008.5 c 128,-1,5
 240 1020 240 1020 256 1020 c 256,6,7
 272 1020 272 1020 281.5 1008.5 c 128,-1,8
 291 997 291 997 289 981 c 1,9,-1
 289 979 l 1,10,-1
 285 958 l 1,11,-1
 260 848 l 1,12,-1
 303 879 l 1,13,14
 385 940 385 940 471 977 c 1,15,16
 582 1020 582 1020 692 1020 c 2,17,-1
 717 1020 l 1,18,19
 799 1016 799 1016 852 975 c 128,-1,20
 905 934 905 934 933 869.5 c 128,-1,21
 961 805 961 805 964 725 c 0,22,23
 964 713 964 713 964 701 c 0,24,25
 964 633 964 633 950 565 c 1,26,27
 940 522 940 522 922.5 455.5 c 128,-1,28
 905 389 905 389 866 317 c 1,29,30
 823 231 823 231 751.5 165.5 c 128,-1,31
 680 100 680 100 594 59 c 1,32,33
 494 14 494 14 387 14 c 0,34,35
 307 14 307 14 238.5 33.5 c 128,-1,36
 170 53 170 53 125 74 c 2,37,-1
 98 86 l 1,38,-1
 0 -377 l 1,39,-1
 0 -379 l 1,40,41
 -4 -395 -4 -395 -18.5 -406.5 c 128,-1,42
 -33 -418 -33 -418 -49 -418 c 256,43,44
 -65 -418 -65 -418 -74 -406 c 0,45,46
 -80 -397 -80 -397 -80 -385 c 0,47,48
 -80 -382 -80 -382 -80 -379 c 2,49,-1
 -80 -377 l 1,0,-1
117 172 m 1,50,-1
 127 166 l 1,51,52
 143 158 143 158 171 145.5 c 128,-1,53
 199 133 199 133 235.5 121 c 128,-1,54
 272 109 272 109 316 100.5 c 128,-1,55
 360 92 360 92 410 92 c 0,56,57
 502 92 502 92 582 129 c 0,58,59
 721 195 721 195 793 322 c 1,60,61
 828 381 828 381 848 446.5 c 128,-1,62
 868 512 868 512 879 565 c 0,63,64
 889 612 889 612 893 676 c 0,65,66
 894 689 894 689 894 702 c 0,67,68
 894 753 894 753 881 801 c 1,69,70
 863 877 863 877 818.5 909.5 c 128,-1,71
 774 942 774 942 709 946 c 1,72,-1
 684 946 l 2,73,74
 588 946 588 946 511 919.5 c 128,-1,75
 434 893 434 893 378 859 c 128,-1,76
 322 825 322 825 287 792.5 c 128,-1,77
 252 760 252 760 242 748 c 1,78,-1
 240 743 l 1,79,-1
 117 172 l 1,50,-1
EndSplineSet
EndChar
StartChar: q
Encoding: 113 113 82
Width: 1083
GlyphClass: 2
Flags: W
LayerCount: 2
Back
Fore
SplineSet
2 290 m 0,0,1
 1 304 1 304 1 318 c 0,2,3
 1 400 1 400 31 487 c 1,4,5
 119 759 119 759 322 893 c 1,6,7
 484 995 484 995 692 995 c 0,8,9
 755 995 755 995 836 983 c 2,10,-1
 864 979 l 1,11,-1
 874 1020 l 2,12,13
 878 1036 878 1036 890.5 1046.5 c 128,-1,14
 903 1057 903 1057 918 1057 c 0,15,16
 934 1057 934 1057 943 1048 c 0,17,18
 949 1041 949 1041 949 1031 c 0,19,20
 949 1027 949 1027 948 1022 c 2,21,-1
 608 -358 l 1,22,-1
 608 -360 l 1,23,24
 604 -376 604 -376 591.5 -385.5 c 128,-1,25
 579 -395 579 -395 563 -395 c 0,26,27
 549 -395 549 -395 540.5 -385 c 128,-1,28
 532 -375 532 -375 535 -358 c 1,29,-1
 647 104 l 1,30,31
 608 69 608 69 561 43 c 0,32,33
 520 20 520 20 466 2 c 128,-1,34
 412 -16 412 -16 346 -16 c 2,35,-1
 324 -16 l 1,36,37
 134 -6 134 -6 53 123 c 0,38,39
 8 195 8 195 2 290 c 0,0,1
68 307 m 0,40,41
 74 223 74 223 113 164 c 1,42,43
 185 47 185 47 340 47 c 0,44,45
 469 47 469 47 565 119 c 256,46,47
 661 191 661 191 698 322 c 1,48,-1
 848 913 l 1,49,-1
 827 918 l 1,50,51
 788 924 788 924 750.5 928 c 128,-1,52
 713 932 713 932 678 932 c 0,53,54
 490 932 490 932 350 842 c 0,55,56
 172 727 172 727 92 479 c 0,57,58
 68 405 68 405 68 334 c 0,59,60
 68 320 68 320 68 307 c 0,40,41
EndSplineSet
EndChar
StartChar: r
Encoding: 114 114 83
Width: 888
GlyphClass: 2
Flags: W
LayerCount: 2
Back
Fore
SplineSet
0 35 m 2,0,-1
 0 37 l 1,1,-1
 201 981 l 1,2,-1
 203 983 l 1,3,4
 207 999 207 999 220 1010.5 c 128,-1,5
 233 1022 233 1022 250 1022 c 0,6,7
 287 1022 287 1022 281 983 c 1,8,-1
 279 981 l 1,9,-1
 229 748 l 1,10,11
 268 801 268 801 322 852 c 0,12,13
 367 895 367 895 429.5 939 c 128,-1,14
 492 983 492 983 569 1010 c 0,15,16
 600 1020 600 1020 625.5 1024 c 128,-1,17
 651 1028 651 1028 676 1028 c 0,18,19
 739 1028 739 1028 774 995 c 0,20,21
 792 978 792 978 800 952 c 0,22,23
 805 936 805 936 805 921 c 0,24,25
 805 909 805 909 803 897 c 0,26,27
 799 879 799 879 795 858.5 c 128,-1,28
 791 838 791 838 786 815 c 1,29,-1
 784 809 l 1,30,-1
 784 807 l 1,31,32
 780 791 780 791 767 780.5 c 128,-1,33
 754 770 754 770 737 770 c 0,34,35
 723 770 723 770 714 780.5 c 128,-1,36
 705 791 705 791 709 807 c 0,37,38
 709 809 709 809 711 811 c 1,39,-1
 713 823 l 2,40,41
 715 833 715 833 718 849.5 c 128,-1,42
 721 866 721 866 725 881 c 0,43,44
 733 916 733 916 711.5 935 c 128,-1,45
 690 954 690 954 649 954 c 0,46,47
 614 954 614 954 575 942 c 1,48,49
 520 928 520 928 454.5 881 c 128,-1,50
 389 834 389 834 311 754 c 0,51,52
 274 715 274 715 248.5 674 c 128,-1,53
 223 633 223 633 209 599 c 128,-1,54
 195 565 195 565 187.5 542.5 c 128,-1,55
 180 520 180 520 180 518 c 2,56,-1
 78 37 l 1,57,-1
 78 35 l 1,58,59
 68 0 68 0 33 0 c 0,60,61
 0 0 0 0 0 35 c 2,0,-1
EndSplineSet
EndChar
StartChar: s
Encoding: 115 115 84
Width: 940
GlyphClass: 2
Flags: W
LayerCount: 2
Back
Fore
SplineSet
-39 254 m 0,0,1
 -33 283 -33 283 -6 289 c 0,2,3
 19 295 19 295 25 281.5 c 128,-1,4
 31 268 31 268 31 264 c 0,5,6
 43 170 43 170 110.5 119 c 128,-1,7
 178 68 178 68 289 68 c 0,8,9
 367 68 367 68 424 91.5 c 128,-1,10
 481 115 481 115 520 148.5 c 128,-1,11
 559 182 559 182 579.5 218 c 128,-1,12
 600 254 600 254 606 281 c 0,13,14
 611 307 611 307 611 328 c 0,15,16
 611 350 611 350 606 366 c 0,17,18
 596 400 596 400 566.5 424.5 c 128,-1,19
 537 449 537 449 491.5 468 c 128,-1,20
 446 487 446 487 387 510 c 1,21,22
 338 528 338 528 288 549.5 c 128,-1,23
 238 571 238 571 200 603 c 128,-1,24
 162 635 162 635 142 680 c 0,25,26
 131 706 131 706 131 740 c 0,27,28
 131 764 131 764 137 793 c 0,29,30
 153 869 153 869 200.5 915 c 128,-1,31
 248 961 248 961 307.5 986.5 c 128,-1,32
 367 1012 367 1012 427 1020 c 128,-1,33
 487 1028 487 1028 530 1028 c 0,34,35
 720 1028 720 1028 776 932 c 1,36,37
 790 904 790 904 794 876 c 0,38,39
 796 861 796 861 795 847 c 0,40,41
 795 836 795 836 794 824 c 0,42,43
 791 800 791 800 784.5 782 c 128,-1,44
 778 764 778 764 776 758 c 0,45,46
 770 746 770 746 757.5 737.5 c 128,-1,47
 745 729 745 729 731 731 c 1,48,49
 715 735 715 735 708.5 745.5 c 128,-1,50
 702 756 702 756 707 766 c 0,51,52
 709 772 709 772 714 787.5 c 128,-1,53
 719 803 719 803 722 821.5 c 128,-1,54
 725 840 725 840 723 860.5 c 128,-1,55
 721 881 721 881 709 901 c 0,56,57
 672 962 672 962 522 963 c 0,58,59
 401 963 401 963 317 924 c 1,60,61
 225 877 225 877 205 793 c 0,62,63
 201 775 201 775 201 760 c 0,64,65
 201 731 201 731 213 708 c 0,66,67
 231 672 231 672 265 647.5 c 128,-1,68
 299 623 299 623 340 606.5 c 128,-1,69
 381 590 381 590 416 578 c 1,70,71
 443 570 443 570 472.5 559.5 c 128,-1,72
 502 549 502 549 530.5 536.5 c 128,-1,73
 559 524 559 524 584.5 509 c 128,-1,74
 610 494 610 494 629 477 c 0,75,76
 670 442 670 442 680 394 c 0,77,78
 684 374 684 374 684 350 c 0,79,80
 684 317 684 317 676 276 c 0,81,82
 664 219 664 219 626 169 c 128,-1,83
 588 119 588 119 533.5 81 c 128,-1,84
 479 43 479 43 412.5 20.5 c 128,-1,85
 346 -2 346 -2 274 -2 c 0,86,87
 180 -2 180 -2 117.5 29.5 c 128,-1,88
 55 61 55 61 18.5 103 c 128,-1,89
 -18 145 -18 145 -30 188 c 0,90,91
 -39 221 -39 221 -40 242 c 0,92,93
 -40 248 -40 248 -39 254 c 0,0,1
EndSplineSet
EndChar
StartChar: t
Encoding: 116 116 85
Width: 700
GlyphClass: 2
Flags: W
LayerCount: 2
Back
Fore
SplineSet
2 985 m 0,0,1
 6 1001 6 1001 18.5 1012.5 c 128,-1,2
 31 1024 31 1024 47 1024 c 0,3,4
 49 1024 49 1024 51 1022 c 1,5,-1
 53 1022 l 1,6,-1
 317 1022 l 1,7,-1
 381 1321 l 1,8,-1
 385 1341 l 1,9,-1
 385 1343 l 1,10,11
 389 1359 389 1359 402.5 1370.5 c 128,-1,12
 416 1382 416 1382 432 1382 c 256,13,14
 448 1382 448 1382 457.5 1371 c 128,-1,15
 467 1360 467 1360 463 1343 c 1,16,-1
 463 1341 l 1,17,-1
 459 1321 l 1,18,-1
 395 1022 l 1,19,-1
 664 1022 l 1,20,21
 664 1022 664 1022 668 1024 c 1,22,23
 684 1024 684 1024 693 1012 c 0,24,25
 699 1004 699 1004 699 994 c 0,26,27
 699 990 699 990 698 985 c 0,28,29
 694 969 694 969 681 957.5 c 128,-1,30
 668 946 668 946 651 946 c 2,31,-1
 629 946 l 1,32,-1
 379 946 l 1,33,-1
 186 39 l 1,34,-1
 184 35 l 1,35,36
 180 19 180 19 166.5 8.5 c 128,-1,37
 153 -2 153 -2 137 -2 c 256,38,39
 121 -2 121 -2 112.5 8 c 128,-1,40
 104 18 104 18 106 35 c 1,41,-1
 109 39 l 1,42,-1
 301 946 l 1,43,-1
 47 946 l 1,44,-1
 31 946 l 2,45,46
 14 946 14 946 6 958 c 0,47,48
 0 966 0 966 1 975 c 0,49,50
 1 980 1 980 2 985 c 0,0,1
EndSplineSet
EndChar
StartChar: u
Encoding: 117 117 86
Width: 987
GlyphClass: 2
Flags: W
LayerCount: 2
Back
Fore
SplineSet
2 284 m 0,0,1
 6 356 6 356 20.5 436 c 128,-1,2
 35 516 35 516 51 596 c 1,3,-1
 53 600 l 1,4,5
 69 686 69 686 96 779 c 128,-1,6
 123 872 123 872 156 969 c 1,7,-1
 164 989 l 1,8,9
 168 1005 168 1005 179 1014.5 c 128,-1,10
 190 1024 190 1024 207 1024 c 0,11,12
 240 1024 240 1024 236 989 c 0,13,14
 236 985 236 985 233 983 c 1,15,16
 229 971 229 971 217 935 c 128,-1,17
 205 899 205 899 188.5 848 c 128,-1,18
 172 797 172 797 155.5 733.5 c 128,-1,19
 139 670 139 670 125 602 c 1,20,-1
 123 596 l 1,21,22
 109 524 109 524 96 450 c 0,23,24
 82 376 82 376 77 310 c 0,25,26
 75 280 75 280 75 252 c 0,27,28
 75 218 75 218 78 188 c 0,29,30
 84 132 84 132 111 100 c 0,31,32
 127 80 127 80 161 67.5 c 128,-1,33
 195 55 195 55 238 55 c 0,34,35
 301 55 301 55 363.5 74.5 c 128,-1,36
 426 94 426 94 469 117 c 1,37,38
 524 144 524 144 566 174.5 c 128,-1,39
 608 205 608 205 627 221 c 0,40,41
 660 250 660 250 672 287 c 128,-1,42
 684 324 684 324 686 328 c 1,43,-1
 834 977 l 1,44,-1
 836 989 l 1,45,46
 840 1005 840 1005 851 1013.5 c 128,-1,47
 862 1022 862 1022 879 1022 c 0,48,49
 910 1022 910 1022 903 989 c 1,50,-1
 905 983 l 1,51,-1
 705 43 l 1,52,-1
 705 39 l 1,53,54
 699 23 699 23 684.5 11.5 c 128,-1,55
 670 0 670 0 651 0 c 0,56,57
 635 0 635 0 623.5 14.5 c 128,-1,58
 612 29 612 29 616 47 c 1,59,-1
 618 49 l 1,60,-1
 641 160 l 1,61,62
 590 115 590 115 524 78 c 0,63,64
 469 47 469 47 392 21.5 c 128,-1,65
 315 -4 315 -4 223 -4 c 0,66,67
 164 -4 164 -4 116 11.5 c 128,-1,68
 68 27 68 27 51 49 c 0,69,70
 18 90 18 90 8 150 c 0,71,72
 1 193 1 193 1 243 c 0,73,74
 1 263 1 263 2 284 c 0,0,1
EndSplineSet
EndChar
StartChar: v
Encoding: 118 118 87
Width: 970
GlyphClass: 2
Flags: W
LayerCount: 2
Back
Fore
SplineSet
82 973 m 1,0,1
 84 975 84 975 84 977 c 128,-1,2
 84 979 84 979 86 983 c 0,3,4
 90 999 90 999 102.5 1010.5 c 128,-1,5
 115 1022 115 1022 131 1022 c 0,6,7
 156 1022 156 1022 164 993 c 1,8,-1
 162 991 l 1,9,-1
 322 121 l 1,10,-1
 854 993 l 1,11,-1
 856 999 l 1,12,13
 872 1022 872 1022 897 1022 c 0,14,15
 912 1022 912 1022 922 1012 c 0,16,17
 929 1005 929 1005 929 994 c 0,18,19
 929 990 929 990 928 985 c 1,20,21
 926 981 926 981 924 977 c 128,-1,22
 922 973 922 973 920 969 c 1,23,-1
 920 967 l 1,24,-1
 340 27 l 1,25,26
 326 0 326 0 297 0 c 0,27,28
 272 0 272 0 264 27 c 1,29,-1
 264 41 l 1,30,-1
 82 973 l 1,0,1
EndSplineSet
EndChar
StartChar: w
Encoding: 119 119 88
Width: 1327
GlyphClass: 2
Flags: W
LayerCount: 2
Back
Fore
SplineSet
102 35 m 2,0,-1
 102 973 l 1,1,-1
 102 975 l 2,2,3
 102 981 102 981 104 985 c 0,4,5
 108 1001 108 1001 120.5 1012.5 c 128,-1,6
 133 1024 133 1024 150 1024 c 0,7,8
 166 1024 166 1024 172 1014 c 128,-1,9
 178 1004 178 1004 178 989 c 2,10,-1
 166 121 l 1,11,-1
 645 979 l 2,12,13
 651 991 651 991 659 1001 c 1,14,15
 667 1009 667 1009 676.5 1016.5 c 128,-1,16
 686 1024 686 1024 702 1024 c 0,17,18
 714 1024 714 1024 720.5 1017 c 128,-1,19
 727 1010 727 1010 731 999 c 0,20,21
 735 989 735 989 735 975 c 2,22,-1
 758 109 l 1,23,-1
 1208 989 l 1,24,-1
 1210 991 l 1,25,26
 1220 1020 1220 1020 1253 1020 c 0,27,28
 1268 1020 1268 1020 1278 1010 c 0,29,30
 1285 1003 1285 1003 1285 992 c 0,31,32
 1285 988 1285 988 1284 983 c 1,33,-1
 1278 971 l 1,34,-1
 1272 958 l 1,35,-1
 778 31 l 2,36,37
 764 4 764 4 743 2 c 1,38,-1
 735 2 l 2,39,40
 721 2 721 2 711.5 10 c 128,-1,41
 702 18 702 18 705 31 c 1,42,-1
 666 885 l 1,43,-1
 178 31 l 2,44,45
 166 8 166 8 141 4 c 1,46,47
 139 2 139 2 135 2 c 0,48,49
 102 2 102 2 102 35 c 2,0,-1
EndSplineSet
EndChar
StartChar: x
Encoding: 120 120 89
Width: 1181
GlyphClass: 2
Flags: W
LayerCount: 2
Back
Fore
SplineSet
-81 40 m 0,0,1
 -78 56 -78 56 -63 68 c 0,2,3
 -22 103 -22 103 23 139 c 1,4,5
 62 172 62 172 110 214 c 128,-1,6
 158 256 158 256 211 299 c 0,7,8
 332 399 332 399 483 528 c 1,9,-1
 213 958 l 1,10,11
 205 968 205 968 209 985 c 0,12,13
 213 1001 213 1001 225 1012 c 0,14,15
 237 1024 237 1024 256 1024 c 0,16,17
 268 1024 268 1024 281 1012 c 1,18,19
 281 1012 281 1012 292 992 c 0,20,21
 303 973 303 973 321.5 942 c 128,-1,22
 340 911 340 911 364.5 871 c 128,-1,23
 389 831 389 831 414 791 c 0,24,25
 473 693 473 693 547 571 c 1,26,27
 690 692 690 692 803 791 c 0,28,29
 850 832 850 832 896 870.5 c 128,-1,30
 942 909 942 909 978 940 c 128,-1,31
 1014 971 1014 971 1036 990 c 2,32,-1
 1059 1010 l 1,33,34
 1073 1020 1073 1020 1087 1020 c 256,35,36
 1101 1020 1101 1020 1112 1008 c 0,37,38
 1119 1001 1119 1001 1119 991 c 0,39,40
 1119 986 1119 986 1118 982 c 0,41,42
 1114 966 1114 966 1102 954 c 1,43,-1
 586 524 l 1,44,-1
 872 63 l 1,45,46
 878 51 878 51 875 37 c 128,-1,47
 872 23 872 23 860 12 c 1,48,49
 843 0 843 0 831 0 c 0,50,51
 813 0 813 0 805 12 c 0,52,53
 782 47 782 47 760 86 c 0,54,55
 740 121 740 121 715 162 c 128,-1,56
 690 203 690 203 664 248 c 1,57,58
 601 350 601 350 522 481 c 1,59,-1
 252 248 l 2,60,61
 201 203 201 203 152.5 162 c 128,-1,62
 104 121 104 121 66 88 c 1,63,64
 21 51 21 51 -20 14 c 0,65,66
 -32 2 -32 2 -49 2 c 0,67,68
 -67 2 -67 2 -74 14 c 1,69,70
 -82 22 -82 22 -82 33 c 0,71,72
 -82 36 -82 36 -81 40 c 0,0,1
EndSplineSet
EndChar
StartChar: y
Encoding: 121 121 90
Width: 1001
GlyphClass: 2
Flags: W
LayerCount: 2
Back
Fore
SplineSet
2 -377 m 1,0,1
 4 -373 4 -373 5 -369 c 128,-1,2
 6 -365 6 -365 10 -360 c 2,3,-1
 23 -342 l 1,4,-1
 328 111 l 1,5,-1
 86 965 l 1,6,7
 80 973 80 973 84 985 c 0,8,9
 88 1001 88 1001 101.5 1012.5 c 128,-1,10
 115 1024 115 1024 131 1024 c 0,11,12
 143 1024 143 1024 152.5 1017 c 128,-1,13
 162 1010 162 1010 162 999 c 1,14,-1
 389 203 l 1,15,-1
 924 1001 l 1,16,-1
 926 1001 l 1,17,18
 938 1028 938 1028 967 1028 c 0,19,20
 983 1028 983 1028 994 1016 c 0,21,22
 1001 1008 1001 1008 1001 997 c 0,23,24
 1001 992 1001 992 999 987 c 1,25,26
 999 981 999 981 991 973 c 1,27,-1
 985 963 l 1,28,-1
 78 -391 l 1,29,-1
 76 -391 l 1,30,31
 70 -403 70 -403 57.5 -409.5 c 128,-1,32
 45 -416 45 -416 35 -416 c 0,33,34
 1 -416 1 -416 1 -387 c 0,35,36
 1 -382 1 -382 2 -377 c 1,0,1
EndSplineSet
EndChar
StartChar: z
Encoding: 122 122 91
Width: 1103
GlyphClass: 2
Flags: W
LayerCount: 2
Back
Fore
SplineSet
2 39 m 1,0,1
 2 51 2 51 14 63 c 2,2,-1
 25 74 l 1,3,-1
 905 948 l 1,4,-1
 258 948 l 1,5,-1
 254 948 l 2,6,7
 238 948 238 948 228.5 959.5 c 128,-1,8
 219 971 219 971 223 987 c 256,9,10
 227 1003 227 1003 240.5 1013.5 c 128,-1,11
 254 1024 254 1024 270 1024 c 2,12,-1
 291 1024 l 1,13,-1
 291 1026 l 1,14,-1
 987 1026 l 1,15,-1
 989 1026 l 1,16,17
 1004 1024 1004 1024 1014 1014 c 0,18,19
 1021 1007 1021 1007 1021 996 c 0,20,21
 1021 992 1021 992 1020 987 c 0,22,23
 1018 975 1018 975 1006 963 c 2,24,-1
 995 952 l 1,25,-1
 115 78 l 1,26,-1
 797 78 l 1,27,-1
 799 78 l 2,28,29
 815 78 815 78 823 66.5 c 128,-1,30
 831 55 831 55 827 39 c 0,31,32
 817 4 817 4 782 0 c 1,33,-1
 780 0 l 1,34,-1
 35 0 l 1,35,-1
 31 0 l 2,36,37
 14 0 14 0 6 12 c 0,38,39
 0 20 0 20 1 29 c 0,40,41
 1 34 1 34 2 39 c 1,0,1
EndSplineSet
EndChar
StartChar: braceleft
Encoding: 123 123 92
Width: 790
GlyphClass: 2
Flags: W
LayerCount: 2
Back
Fore
SplineSet
2 717 m 0,0,1
 6 737 6 737 25 748 c 1,2,3
 25 748 25 748 35 752 c 0,4,5
 103 777 103 777 142.5 814.5 c 128,-1,6
 182 852 182 852 203.5 887 c 128,-1,7
 225 922 225 922 232.5 948.5 c 128,-1,8
 240 975 240 975 240 977 c 2,9,-1
 240 979 l 1,10,-1
 322 1362 l 2,11,12
 349 1487 349 1487 457 1567 c 1,13,14
 543 1626 543 1626 662 1649 c 2,15,-1
 672 1651 l 1,16,-1
 678 1651 l 2,17,18
 694 1651 694 1651 702.5 1640.5 c 128,-1,19
 711 1630 711 1630 707 1614 c 0,20,21
 703 1602 703 1602 692.5 1591.5 c 128,-1,22
 682 1581 682 1581 668 1579 c 1,23,-1
 659 1577 l 1,24,25
 630 1573 630 1573 590.5 1560.5 c 128,-1,26
 551 1548 551 1548 510 1524 c 1,27,28
 416 1465 416 1465 393 1362 c 2,29,-1
 311 981 l 1,30,-1
 311 979 l 1,31,32
 307 938 307 938 269 866.5 c 128,-1,33
 231 795 231 795 143 735 c 1,34,-1
 119 717 l 1,35,-1
 135 700 l 1,36,37
 192 649 192 649 205 569 c 1,38,39
 213 528 213 528 208 496.5 c 128,-1,40
 203 465 203 465 201 455 c 2,41,-1
 109 29 l 1,42,43
 89 -71 89 -71 158 -133 c 0,44,45
 187 -158 187 -158 222.5 -170 c 128,-1,46
 258 -182 258 -182 285 -186 c 1,47,-1
 293 -188 l 2,48,49
 305 -190 305 -190 312 -200.5 c 128,-1,50
 319 -211 319 -211 315 -223 c 0,51,52
 311 -239 311 -239 299.5 -249.5 c 128,-1,53
 288 -260 288 -260 272 -260 c 2,54,-1
 266 -260 l 1,55,-1
 256 -258 l 2,56,57
 145 -235 145 -235 86 -176 c 1,58,59
 12 -96 12 -96 37 29 c 1,60,-1
 129 457 l 1,61,-1
 129 459 l 2,62,63
 129 461 129 461 133 486.5 c 128,-1,64
 137 512 137 512 131 548 c 128,-1,65
 125 584 125 584 100.5 620.5 c 128,-1,66
 76 657 76 657 18 684 c 0,67,68
 16 684 16 684 12 688 c 0,69,70
 -2 698 -2 698 2 717 c 0,0,1
EndSplineSet
EndChar
StartChar: bar
Encoding: 124 124 93
Width: 583
GlyphClass: 2
Flags: W
LayerCount: 2
Back
Fore
SplineSet
2 -283 m 2,0,-1
 424 1700 l 2,1,2
 428 1716 428 1716 441.5 1727.5 c 128,-1,3
 455 1739 455 1739 469 1739 c 0,4,5
 506 1739 506 1739 500 1700 c 1,6,-1
 78 -283 l 2,7,8
 74 -299 74 -299 60.5 -309 c 128,-1,9
 47 -319 47 -319 31 -319 c 256,10,11
 15 -319 15 -319 6.5 -309 c 128,-1,12
 -2 -299 -2 -299 2 -283 c 2,0,-1
EndSplineSet
EndChar
StartChar: braceright
Encoding: 125 125 94
Width: 808
GlyphClass: 2
Flags: W
LayerCount: 2
Back
Fore
SplineSet
-17 -213 m 0,0,1
 -13 -201 -13 -201 -2.5 -190.5 c 128,-1,2
 8 -180 8 -180 22 -178 c 1,3,-1
 31 -176 l 1,4,5
 60 -172 60 -172 99.5 -159.5 c 128,-1,6
 139 -147 139 -147 180 -123 c 1,7,8
 274 -64 274 -64 297 39 c 2,9,-1
 379 420 l 1,10,-1
 379 422 l 1,11,12
 383 463 383 463 421 534.5 c 128,-1,13
 459 606 459 606 547 666 c 1,14,-1
 571 684 l 1,15,-1
 555 701 l 1,16,17
 498 752 498 752 485 832 c 1,18,19
 477 873 477 873 482 904.5 c 128,-1,20
 487 936 487 936 489 946 c 2,21,-1
 581 1372 l 1,22,23
 601 1472 601 1472 532 1534 c 0,24,25
 503 1559 503 1559 467.5 1571 c 128,-1,26
 432 1583 432 1583 405 1587 c 1,27,-1
 397 1589 l 2,28,29
 385 1591 385 1591 378 1601.5 c 128,-1,30
 371 1612 371 1612 375 1624 c 0,31,32
 379 1640 379 1640 390.5 1650.5 c 128,-1,33
 402 1661 402 1661 418 1661 c 2,34,-1
 424 1661 l 1,35,-1
 434 1659 l 2,36,37
 545 1636 545 1636 604 1577 c 1,38,39
 678 1497 678 1497 653 1372 c 1,40,-1
 561 944 l 1,41,-1
 561 942 l 2,42,43
 561 940 561 940 557 914.5 c 128,-1,44
 553 889 553 889 559 853 c 128,-1,45
 565 817 565 817 589.5 780.5 c 128,-1,46
 614 744 614 744 672 717 c 0,47,48
 674 717 674 717 678 713 c 0,49,50
 692 703 692 703 688 684 c 0,51,52
 684 664 684 664 665 653 c 1,53,54
 665 653 665 653 655 649 c 0,55,56
 587 624 587 624 547.5 586.5 c 128,-1,57
 508 549 508 549 486.5 514 c 128,-1,58
 465 479 465 479 457.5 452.5 c 128,-1,59
 450 426 450 426 450 424 c 2,60,-1
 450 422 l 1,61,-1
 368 39 l 2,62,63
 341 -86 341 -86 233 -166 c 1,64,65
 147 -225 147 -225 28 -248 c 2,66,-1
 18 -250 l 1,67,-1
 12 -250 l 2,68,69
 -4 -250 -4 -250 -12.5 -239.5 c 128,-1,70
 -21 -229 -21 -229 -17 -213 c 0,0,1
EndSplineSet
EndChar
StartChar: asciitilde
Encoding: 126 126 95
Width: 1167
GlyphClass: 2
Flags: W
LayerCount: 2
Back
Fore
SplineSet
2 428 m 0,0,1
 2 432 2 432 4 435 c 128,-1,2
 6 438 6 438 8 442 c 2,3,-1
 12 449 l 2,4,5
 28 476 28 476 42.5 498 c 128,-1,6
 57 520 57 520 74 543 c 0,7,8
 203 709 203 709 356 709 c 0,9,10
 401 709 401 709 434 693.5 c 128,-1,11
 467 678 467 678 490.5 653.5 c 128,-1,12
 514 629 514 629 531.5 598 c 128,-1,13
 549 567 549 567 565 537 c 0,14,15
 600 471 600 471 633 431 c 128,-1,16
 666 391 666 391 725 391 c 0,17,18
 772 391 772 391 815 415.5 c 128,-1,19
 858 440 858 440 895 477 c 128,-1,20
 932 514 932 514 960.5 555 c 128,-1,21
 989 596 989 596 1008 629 c 2,22,-1
 1016 643 l 2,23,24
 1030 668 1030 668 1055 668 c 0,25,26
 1071 668 1071 668 1079 657.5 c 128,-1,27
 1087 647 1087 647 1083 631 c 0,28,29
 1083 627 1083 627 1079 618 c 1,30,-1
 1071 606 l 1,31,32
 1048 569 1048 569 1014.5 520 c 128,-1,33
 981 471 981 471 934 424 c 1,34,35
 824 319 824 319 711 319 c 0,36,37
 666 319 666 319 633 334.5 c 128,-1,38
 600 350 600 350 575.5 374.5 c 128,-1,39
 551 399 551 399 533.5 430 c 128,-1,40
 516 461 516 461 500 494 c 1,41,42
 465 560 465 560 433 598.5 c 128,-1,43
 401 637 401 637 342 637 c 0,44,45
 293 637 293 637 252 615.5 c 128,-1,46
 211 594 211 594 177 561 c 128,-1,47
 143 528 143 528 117.5 492.5 c 128,-1,48
 92 457 92 457 76 426 c 1,49,-1
 72 420 l 1,50,51
 58 393 58 393 31 393 c 0,52,53
 -4 393 -4 393 2 428 c 0,0,1
EndSplineSet
EndChar
StartChar: cent
Encoding: 162 162 97
Width: 948
GlyphClass: 2
Flags: W
LayerCount: 2
Back
Fore
SplineSet
7 471 m 128,-1,1
 -6 553 -6 553 9.5 632 c 128,-1,2
 25 711 25 711 56.5 778.5 c 128,-1,3
 88 846 88 846 113 887 c 0,4,5
 144 938 144 938 186.5 989 c 128,-1,6
 229 1040 229 1040 279 1083 c 1,7,8
 398 1189 398 1189 516 1219 c 1,9,-1
 532 1221 l 1,10,-1
 571 1382 l 1,11,12
 575 1394 575 1394 586.5 1403.5 c 128,-1,13
 598 1413 598 1413 610 1413 c 0,14,15
 624 1413 624 1413 632.5 1404 c 128,-1,16
 641 1395 641 1395 637 1380 c 2,17,-1
 598 1227 l 1,18,-1
 621 1225 l 1,19,20
 697 1221 697 1221 756 1188 c 128,-1,21
 815 1155 815 1155 850 1098 c 1,22,-1
 862 1081 l 1,23,24
 862 1077 862 1077 864 1072 c 128,-1,25
 866 1067 866 1067 864 1059 c 0,26,27
 860 1043 860 1043 848 1032.5 c 128,-1,28
 836 1022 836 1022 821 1022 c 0,29,30
 803 1022 803 1022 795 1034 c 1,31,-1
 791 1038 l 1,32,33
 787 1046 787 1046 781.5 1054.5 c 128,-1,34
 776 1063 776 1063 774 1067 c 0,35,36
 745 1106 745 1106 702 1129.5 c 128,-1,37
 659 1153 659 1153 606 1157 c 2,38,-1
 584 1159 l 1,39,-1
 371 270 l 1,40,-1
 393 270 l 1,41,42
 487 276 487 276 573 319 c 0,43,44
 657 360 657 360 719 432 c 1,45,46
 721 432 721 432 727 438 c 0,47,48
 745 456 745 456 762 457 c 0,49,50
 778 457 778 457 786.5 446.5 c 128,-1,51
 795 436 795 436 791 420 c 256,52,53
 787 404 787 404 776 395 c 1,54,-1
 774 393 l 1,55,-1
 772 393 l 1,56,57
 702 311 702 311 596 260 c 1,58,59
 545 233 545 233 489.5 220 c 128,-1,60
 434 207 434 207 381 203 c 1,61,-1
 354 203 l 1,62,-1
 313 31 l 1,63,64
 303 0 303 0 274 0 c 0,65,66
 260 0 260 0 252 9 c 128,-1,67
 244 18 244 18 248 33 c 2,68,-1
 291 209 l 1,69,-1
 272 211 l 1,70,71
 166 236 166 236 86 319 c 1,72,0
 20 389 20 389 7 471 c 128,-1,1
74 536.5 m 128,-1,74
 78 477 78 477 100.5 436 c 128,-1,75
 123 395 123 395 145 371 c 0,76,77
 204 310 204 310 283 283 c 1,78,-1
 307 276 l 1,79,-1
 516 1153 l 1,80,-1
 485 1141 l 1,81,82
 450 1129 450 1129 410.5 1104 c 128,-1,83
 371 1079 371 1079 329 1043.5 c 128,-1,84
 287 1008 287 1008 247 963 c 128,-1,85
 207 918 207 918 174 862 c 0,86,87
 111 758 111 758 90.5 677 c 128,-1,73
 70 596 70 596 74 536.5 c 128,-1,74
EndSplineSet
EndChar
StartChar: sterling
Encoding: 163 163 98
Width: 1329
GlyphClass: 2
Flags: W
LayerCount: 2
Back
Fore
SplineSet
2 35 m 0,0,1
 6 53 6 53 23 66 c 0,2,3
 31 72 31 72 39 78 c 0,4,5
 45 82 45 82 53 87 c 128,-1,6
 61 92 61 92 66 96 c 1,7,-1
 70 98 l 1,8,9
 121 141 121 141 163 192.5 c 128,-1,10
 205 244 205 244 233 303 c 1,11,12
 260 356 260 356 274.5 408.5 c 128,-1,13
 289 461 289 461 285 504 c 256,14,15
 281 547 281 547 280 589 c 128,-1,16
 279 631 279 631 276 672 c 1,17,-1
 276 688 l 1,18,-1
 45 688 l 2,19,20
 31 688 31 688 22.5 698.5 c 128,-1,21
 14 709 14 709 18 725 c 256,22,23
 22 741 22 741 33.5 750.5 c 128,-1,24
 45 760 45 760 59 760 c 2,25,-1
 276 760 l 1,26,-1
 279 784 l 1,27,28
 285 876 285 876 299 957 c 128,-1,29
 313 1038 313 1038 336 1106 c 0,30,31
 381 1237 381 1237 467 1325 c 0,32,33
 623 1487 623 1487 922 1487 c 0,34,35
 1102 1487 1102 1487 1182 1364 c 1,36,37
 1225 1301 1225 1301 1236 1234 c 128,-1,38
 1247 1167 1247 1167 1245 1126 c 1,39,-1
 1245 1116 l 1,40,-1
 1245 1110 l 1,41,42
 1241 1094 1241 1094 1230 1083.5 c 128,-1,43
 1219 1073 1219 1073 1202 1073 c 0,44,45
 1171 1073 1171 1073 1171 1104 c 1,46,-1
 1174 1114 l 1,47,48
 1174 1139 1174 1139 1169.5 1173.5 c 128,-1,49
 1165 1208 1165 1208 1155 1243 c 1,50,51
 1124 1331 1124 1331 1065 1372 c 0,52,53
 1004 1415 1004 1415 905 1415 c 0,54,55
 643 1415 643 1415 516 1282 c 1,56,57
 366 1128 366 1128 350 778 c 1,58,-1
 350 760 l 1,59,-1
 866 760 l 2,60,61
 880 760 880 760 889.5 750.5 c 128,-1,62
 899 741 899 741 895 725 c 256,63,64
 891 709 891 709 878.5 698.5 c 128,-1,65
 866 688 866 688 852 688 c 2,66,-1
 350 688 l 1,67,-1
 348 664 l 1,68,69
 350 629 350 629 351 594 c 128,-1,70
 352 559 352 559 356 522 c 1,71,72
 360 461 360 461 339.5 390 c 128,-1,73
 319 319 319 319 276 246 c 0,74,75
 274 242 274 242 272 239 c 128,-1,76
 270 236 270 236 268 231 c 1,77,-1
 242 193 l 1,78,-1
 289 205 l 2,79,80
 350 221 350 221 395 221 c 0,81,82
 493 221 493 221 561 160 c 0,83,84
 620 107 620 107 690 78 c 128,-1,85
 760 49 760 49 827 49 c 0,86,87
 880 49 880 49 930 68 c 0,88,89
 1043 111 1043 111 1102 248 c 1,90,-1
 1108 258 l 1,91,92
 1118 287 1118 287 1149 287 c 0,93,94
 1163 287 1163 287 1172.5 276.5 c 128,-1,95
 1182 266 1182 266 1178 252 c 1,96,97
 1176 250 1176 250 1176 244 c 1,98,-1
 1169 233 l 1,99,100
 1144 180 1144 180 1115.5 141 c 128,-1,101
 1087 102 1087 102 1057.5 74.5 c 128,-1,102
 1028 47 1028 47 998.5 29.5 c 128,-1,103
 969 12 969 12 944 2 c 0,104,105
 879 -23 879 -23 811 -23 c 0,106,107
 729 -23 729 -23 651 10 c 128,-1,108
 573 43 573 43 506 102 c 1,109,110
 455 149 455 149 381 150 c 0,111,112
 340 150 340 150 271.5 129.5 c 128,-1,113
 203 109 203 109 104 43 c 1,114,-1
 102 43 l 1,115,-1
 102 41 l 1,116,117
 94 37 94 37 80 25.5 c 128,-1,118
 66 14 66 14 59 10 c 1,119,120
 47 0 47 0 31 0 c 0,121,122
 17 0 17 0 7.5 10 c 128,-1,123
 -2 20 -2 20 2 35 c 0,0,1
EndSplineSet
EndChar
StartChar: yen
Encoding: 165 165 99
Width: 1110
GlyphClass: 2
Flags: W
LayerCount: 2
Back
Fore
SplineSet
2 309 m 0,0,1
 6 323 6 323 17.5 333.5 c 128,-1,2
 29 344 29 344 43 344 c 2,3,-1
 313 344 l 1,4,-1
 369 600 l 1,5,-1
 98 600 l 2,6,7
 84 600 84 600 76 610.5 c 128,-1,8
 68 621 68 621 72 637 c 256,9,10
 76 653 76 653 87 663.5 c 128,-1,11
 98 674 98 674 113 674 c 2,12,-1
 352 674 l 1,13,-1
 156 1364 l 2,14,15
 152 1378 152 1378 159 1392.5 c 128,-1,16
 166 1407 166 1407 182 1415 c 1,17,18
 198 1419 198 1419 203 1419 c 0,19,20
 226 1419 226 1419 231 1397 c 1,21,-1
 430 702 l 1,22,-1
 958 1401 l 2,23,24
 972 1421 972 1421 995 1421 c 0,25,26
 1005 1421 1005 1421 1014 1417 c 1,27,28
 1026 1407 1026 1407 1026 1395 c 1,29,30
 1028 1383 1028 1383 1018 1364 c 1,31,-1
 496 674 l 1,32,-1
 729 674 l 2,33,34
 745 674 745 674 754.5 663.5 c 128,-1,35
 764 653 764 653 760 637 c 256,36,37
 756 621 756 621 743.5 610.5 c 128,-1,38
 731 600 731 600 715 600 c 2,39,-1
 446 600 l 1,40,-1
 391 344 l 1,41,-1
 659 344 l 2,42,43
 675 344 675 344 684.5 334 c 128,-1,44
 694 324 694 324 690 309 c 0,45,46
 686 293 686 293 674 282.5 c 128,-1,47
 662 272 662 272 645 272 c 2,48,-1
 377 272 l 1,49,-1
 328 39 l 2,50,51
 324 23 324 23 310.5 11.5 c 128,-1,52
 297 0 297 0 281 0 c 256,53,54
 265 0 265 0 255.5 11.5 c 128,-1,55
 246 23 246 23 250 39 c 2,56,-1
 299 272 l 1,57,-1
 29 272 l 2,58,59
 15 272 15 272 6.5 282.5 c 128,-1,60
 -2 293 -2 293 2 309 c 0,0,1
EndSplineSet
EndChar
StartChar: copyright
Encoding: 169 169 100
Width: 1009
GlyphClass: 2
Flags: W
LayerCount: 2
Back
Fore
SplineSet
10.5 770 m 128,-1,1
 -8 854 -8 854 12 950 c 256,2,3
 32 1046 32 1046 85.5 1130 c 128,-1,4
 139 1214 139 1214 214 1277.5 c 128,-1,5
 289 1341 289 1341 379 1377 c 128,-1,6
 469 1413 469 1413 563 1413 c 256,7,8
 657 1413 657 1413 732 1377 c 128,-1,9
 807 1341 807 1341 854 1277.5 c 128,-1,10
 901 1214 901 1214 918.5 1130.5 c 128,-1,11
 936 1047 936 1047 915 950 c 0,12,13
 895 854 895 854 841.5 770 c 128,-1,14
 788 686 788 686 714.5 623.5 c 128,-1,15
 641 561 641 561 551 524 c 128,-1,16
 461 487 461 487 367 487 c 256,17,18
 273 487 273 487 198 524 c 128,-1,19
 123 561 123 561 76 623.5 c 128,-1,0
 29 686 29 686 10.5 770 c 128,-1,1
67 792.5 m 128,-1,21
 82 719 82 719 124 663.5 c 128,-1,22
 166 608 166 608 231.5 575.5 c 128,-1,23
 297 543 297 543 379 543 c 256,24,25
 461 543 461 543 539.5 575.5 c 128,-1,26
 618 608 618 608 684 663.5 c 128,-1,27
 750 719 750 719 796 792.5 c 128,-1,28
 842 866 842 866 860 950 c 256,29,30
 878 1034 878 1034 863 1109 c 128,-1,31
 848 1184 848 1184 806 1239 c 128,-1,32
 764 1294 764 1294 698.5 1326 c 128,-1,33
 633 1358 633 1358 551 1358 c 256,34,35
 469 1358 469 1358 390 1326 c 128,-1,36
 311 1294 311 1294 246.5 1239 c 128,-1,37
 182 1184 182 1184 135 1109 c 128,-1,38
 88 1034 88 1034 70 950 c 256,39,20
 52 866 52 866 67 792.5 c 128,-1,21
219 952 m 1,40,41
 244 1065 244 1065 326 1135 c 1,42,43
 412 1203 412 1203 524 1202 c 0,44,45
 571 1202 571 1202 604 1184.5 c 128,-1,46
 637 1167 637 1167 657 1149 c 1,47,-1
 662 1145 l 1,48,49
 674 1139 674 1139 670 1122 c 0,50,51
 662 1095 662 1095 635 1096 c 0,52,53
 623 1096 623 1096 621 1102 c 1,54,-1
 614 1104 l 1,55,56
 598 1120 598 1120 573.5 1133.5 c 128,-1,57
 549 1147 549 1147 514 1147 c 0,58,59
 401 1147 401 1147 330 1069 c 1,60,61
 305 1040 305 1040 293 1008.5 c 128,-1,62
 281 977 281 977 274 952 c 1,63,64
 266 913 266 913 275.5 882.5 c 128,-1,65
 285 852 285 852 305.5 829.5 c 128,-1,66
 326 807 326 807 354.5 794.5 c 128,-1,67
 383 782 383 782 414 782 c 0,68,69
 520 782 520 782 586 848 c 1,70,71
 594 854 594 854 600 862 c 1,72,-1
 602 862 l 1,73,-1
 610 872 l 2,74,75
 620 886 620 886 637 887 c 1,76,77
 664 887 664 887 659 858 c 1,78,79
 657 854 657 854 655 851 c 128,-1,80
 653 848 653 848 651 844 c 2,81,-1
 643 834 l 2,82,83
 631 818 631 818 609.5 799 c 128,-1,84
 588 780 588 780 557 765 c 128,-1,85
 526 750 526 750 487 738.5 c 128,-1,86
 448 727 448 727 401 727 c 0,87,88
 313 727 313 727 258 788 c 0,89,90
 201 851 201 851 219 952 c 1,40,41
EndSplineSet
EndChar
StartChar: guillemotleft
Encoding: 171 171 101
Width: 1245
GlyphClass: 2
Flags: W
LayerCount: 2
Back
Fore
SplineSet
139 530 m 1,0,1
 141 546 141 546 160 561 c 2,2,-1
 573 870 l 2,3,4
 588 881 588 881 600 881 c 0,5,6
 616 881 616 881 627 868 c 1,7,8
 633 854 633 854 631 840 c 1,9,10
 625 826 625 826 612 813 c 1,11,-1
 236 532 l 1,12,-1
 520 229 l 1,13,14
 532 221 532 221 528 203 c 0,15,16
 524 187 524 187 514 176 c 1,17,18
 496 162 496 162 481 162 c 0,19,20
 469 162 469 162 459 172 c 2,21,-1
 147 502 l 2,22,23
 135 514 135 514 139 530 c 1,0,1
520 530 m 1,24,25
 522 548 522 548 539 561 c 2,26,-1
 952 870 l 2,27,28
 967 881 967 881 979 881 c 0,29,30
 995 881 995 881 1006 868 c 0,31,32
 1014 858 1014 858 1010 840 c 0,33,34
 1008 830 1008 830 991 813 c 1,35,-1
 616 532 l 1,36,-1
 901 229 l 2,37,38
 911 219 911 219 907 203 c 1,39,40
 907 191 907 191 893 176 c 0,41,42
 879 162 879 162 860 162 c 0,43,44
 848 162 848 162 838 172 c 2,45,-1
 526 502 l 2,46,47
 514 516 514 516 520 530 c 1,24,25
EndSplineSet
EndChar
StartChar: uni00AD
Encoding: 173 173 102
Width: 665
GlyphClass: 2
Flags: W
LayerCount: 2
Back
Fore
SplineSet
2 510 m 256,0,1
 6 526 6 526 19.5 537.5 c 128,-1,2
 33 549 33 549 49 549 c 2,3,-1
 551 549 l 2,4,5
 567 549 567 549 576.5 537.5 c 128,-1,6
 586 526 586 526 582 510 c 256,7,8
 578 494 578 494 564.5 482.5 c 128,-1,9
 551 471 551 471 535 471 c 2,10,-1
 33 471 l 2,11,12
 17 471 17 471 7.5 482.5 c 128,-1,13
 -2 494 -2 494 2 510 c 256,0,1
EndSplineSet
EndChar
StartChar: registered
Encoding: 174 174 103
Width: 1206
GlyphClass: 2
Flags: W
LayerCount: 2
Back
Fore
SplineSet
149.5 772 m 128,-1,1
 131 856 131 856 152 952 c 0,2,3
 172 1046 172 1046 225.5 1130 c 128,-1,4
 279 1214 279 1214 353.5 1277.5 c 128,-1,5
 428 1341 428 1341 518 1377 c 128,-1,6
 608 1413 608 1413 702 1413 c 0,7,8
 794 1413 794 1413 869 1377 c 128,-1,9
 944 1341 944 1341 992 1277.5 c 128,-1,10
 1040 1214 1040 1214 1057.5 1130.5 c 128,-1,11
 1075 1047 1075 1047 1055 952 c 0,12,13
 1035 856 1035 856 981.5 772 c 128,-1,14
 928 688 928 688 853 624.5 c 128,-1,15
 778 561 778 561 688 525 c 128,-1,16
 598 489 598 489 506 489 c 0,17,18
 412 489 412 489 337 525 c 128,-1,19
 262 561 262 561 215 624.5 c 128,-1,0
 168 688 168 688 149.5 772 c 128,-1,1
206 793.5 m 128,-1,21
 221 719 221 719 263 663.5 c 128,-1,22
 305 608 305 608 370.5 576.5 c 128,-1,23
 436 545 436 545 518 545 c 256,24,25
 600 545 600 545 679 576.5 c 128,-1,26
 758 608 758 608 823.5 663.5 c 128,-1,27
 889 719 889 719 935 793.5 c 128,-1,28
 981 868 981 868 999 952 c 256,29,30
 1017 1036 1017 1036 1002 1110 c 128,-1,31
 987 1184 987 1184 945 1239 c 128,-1,32
 903 1294 903 1294 837.5 1326 c 128,-1,33
 772 1358 772 1358 690 1358 c 256,34,35
 608 1358 608 1358 529.5 1326 c 128,-1,36
 451 1294 451 1294 386.5 1239 c 128,-1,37
 322 1184 322 1184 274.5 1110 c 128,-1,38
 227 1036 227 1036 209 952 c 256,39,20
 191 868 191 868 206 793.5 c 128,-1,21
367 784 m 0,40,41
 367 786 367 786 369 788.5 c 128,-1,42
 371 791 371 791 371 795 c 1,43,-1
 377 813 l 1,44,-1
 512 1171 l 2,45,46
 518 1189 518 1189 539 1194 c 0,47,48
 541 1194 541 1194 572.5 1198 c 128,-1,49
 604 1202 604 1202 647 1202 c 0,50,51
 655 1202 655 1202 659 1200 c 1,52,53
 790 1200 790 1200 838 1151 c 1,54,55
 867 1118 867 1118 858 1073 c 1,56,57
 846 1022 846 1022 780 989 c 1,58,59
 727 958 727 958 633 940 c 2,60,-1
 582 930 l 1,61,-1
 721 817 l 1,62,-1
 729 809 l 1,63,64
 741 803 741 803 737 786 c 0,65,66
 730 758 730 758 705 758 c 0,67,68
 693 758 693 758 690 764 c 1,69,-1
 676 774 l 1,70,-1
 477 934 l 1,71,-1
 430 803 l 1,72,-1
 422 786 l 1,73,74
 416 761 416 761 391 762 c 0,75,76
 371 762 371 762 367 784 c 0,40,41
494 977 m 1,77,-1
 522 979 l 2,78,79
 569 983 569 983 616.5 991 c 128,-1,80
 664 999 664 999 705 1012 c 0,81,82
 764 1030 764 1030 780.5 1045.5 c 128,-1,83
 797 1061 797 1061 801 1073 c 1,84,85
 805 1098 805 1098 793 1110 c 0,86,87
 770 1133 770 1133 724 1140 c 128,-1,88
 678 1147 678 1147 637 1147 c 0,89,90
 621 1147 621 1147 605.5 1146 c 128,-1,91
 590 1145 590 1145 573 1143 c 1,92,-1
 557 1143 l 1,93,-1
 494 977 l 1,77,-1
EndSplineSet
EndChar
StartChar: degree
Encoding: 176 176 104
Width: 806
GlyphClass: 2
Flags: W
LayerCount: 2
Back
Fore
SplineSet
140.5 1185 m 128,-1,1
 129 1233 129 1233 141 1286 c 0,2,3
 153 1341 153 1341 183 1388.5 c 128,-1,4
 213 1436 213 1436 256 1471.5 c 128,-1,5
 299 1507 299 1507 351 1527.5 c 128,-1,6
 403 1548 403 1548 459 1548 c 0,7,8
 514 1548 514 1548 557 1527.5 c 128,-1,9
 600 1507 600 1507 627.5 1471.5 c 128,-1,10
 655 1436 655 1436 666.5 1388.5 c 128,-1,11
 678 1341 678 1341 666 1286 c 0,12,13
 654 1233 654 1233 623 1185 c 128,-1,14
 592 1137 592 1137 549 1101 c 128,-1,15
 506 1065 506 1065 454.5 1044.5 c 128,-1,16
 403 1024 403 1024 348 1024 c 256,17,18
 293 1024 293 1024 250 1044.5 c 128,-1,19
 207 1065 207 1065 179.5 1101 c 128,-1,0
 152 1137 152 1137 140.5 1185 c 128,-1,1
219 1286 m 0,20,21
 203 1208 203 1208 245 1155 c 128,-1,22
 287 1102 287 1102 365 1102 c 0,23,24
 404 1102 404 1102 439.5 1116 c 128,-1,25
 475 1130 475 1130 506 1155 c 128,-1,26
 537 1180 537 1180 558.5 1213.5 c 128,-1,27
 580 1247 580 1247 588 1286 c 0,28,29
 604 1364 604 1364 562 1417 c 128,-1,30
 520 1470 520 1470 442 1470 c 0,31,32
 403 1470 403 1470 367.5 1456 c 128,-1,33
 332 1442 332 1442 301 1417.5 c 128,-1,34
 270 1393 270 1393 248.5 1359 c 128,-1,35
 227 1325 227 1325 219 1286 c 0,20,21
EndSplineSet
EndChar
StartChar: paragraph
Encoding: 182 182 105
Width: 1236
GlyphClass: 2
Flags: W
LayerCount: 2
Back
Fore
SplineSet
152 1071 m 0,0,1
 179 1198 179 1198 280 1302.5 c 128,-1,2
 381 1407 381 1407 549 1483 c 1,3,4
 653 1528 653 1528 738 1550.5 c 128,-1,5
 823 1573 823 1573 858 1579 c 1,6,7
 874 1583 874 1583 879 1583 c 0,8,9
 912 1579 912 1579 905 1548 c 0,10,11
 899 1521 899 1521 872 1513 c 0,12,13
 870 1513 870 1513 855 1510 c 128,-1,14
 840 1507 840 1507 831 1505 c 2,15,-1
 813 1501 l 1,16,-1
 811 1485 l 1,17,18
 811 1475 811 1475 807 1466 c 2,19,-1
 805 1462 l 1,20,-1
 807 1460 l 1,21,22
 807 1458 807 1458 806 1456 c 128,-1,23
 805 1454 805 1454 805 1452 c 0,24,25
 774 1286 774 1286 737 1129.5 c 128,-1,26
 700 973 700 973 660.5 831.5 c 128,-1,27
 621 690 621 690 582 567 c 128,-1,28
 543 444 543 444 508 346 c 1,29,30
 436 133 436 133 386 9 c 128,-1,31
 336 -115 336 -115 332 -121 c 0,32,33
 318 -150 318 -150 291 -150 c 0,34,35
 285 -150 285 -150 283 -147 c 1,36,37
 250 -139 250 -139 264 -104 c 2,38,-1
 278 -70 l 1,39,40
 293 -37 293 -37 316.5 22.5 c 128,-1,41
 340 82 340 82 371.5 168 c 128,-1,42
 403 254 403 254 440 358 c 1,43,44
 469 444 469 444 496.5 531 c 128,-1,45
 524 618 524 618 551 707 c 1,46,-1
 557 731 l 1,47,-1
 532 729 l 1,48,-1
 496 729 l 2,49,50
 461 729 461 729 421 733 c 128,-1,51
 381 737 381 737 342 747.5 c 128,-1,52
 303 758 303 758 266 776.5 c 128,-1,53
 229 795 229 795 203 823 c 1,54,55
 117 909 117 909 152 1071 c 0,0,1
492.5 -129 m 128,-1,57
 487 -117 487 -117 494 -102 c 2,58,59
 494 -102 494 -102 508 -68 c 0,60,61
 522 -35 522 -35 545.5 24.5 c 128,-1,62
 569 84 569 84 601 170 c 128,-1,63
 633 256 633 256 670 360 c 1,64,65
 703 456 703 456 741.5 578 c 128,-1,66
 780 700 780 700 819 839.5 c 128,-1,67
 858 979 858 979 895 1133.5 c 128,-1,68
 932 1288 932 1288 963 1452 c 1,69,70
 965 1468 965 1468 977 1479.5 c 128,-1,71
 989 1491 989 1491 1006 1491 c 2,72,-1
 1008 1491 l 2,73,74
 1022 1491 1022 1491 1031 1480.5 c 128,-1,75
 1040 1470 1040 1470 1036 1454 c 0,76,77
 1005 1288 1005 1288 967.5 1131.5 c 128,-1,78
 930 975 930 975 891 833.5 c 128,-1,79
 852 692 852 692 813 570.5 c 128,-1,80
 774 449 774 449 741 350 c 1,81,82
 665 135 665 135 615 11 c 128,-1,83
 565 -113 565 -113 563 -119 c 0,84,85
 549 -147 549 -147 520 -147 c 0,86,87
 518 -147 518 -147 516 -146 c 128,-1,88
 514 -145 514 -145 512 -145 c 0,89,56
 498 -141 498 -141 492.5 -129 c 128,-1,57
EndSplineSet
EndChar
StartChar: guillemotright
Encoding: 187 187 106
Width: 1245
GlyphClass: 2
Flags: W
LayerCount: 2
Back
Fore
SplineSet
139 203 m 0,0,1
 141 211 141 211 146.5 217 c 128,-1,2
 152 223 152 223 158 229 c 1,3,-1
 532 510 l 1,4,-1
 248 813 l 2,5,6
 238 823 238 823 242 840 c 1,7,8
 242 852 242 852 256 866 c 256,9,10
 270 880 270 880 289 881 c 0,11,12
 301 881 301 881 311 870 c 2,13,-1
 623 541 l 2,14,15
 635 527 635 527 629 512 c 1,16,17
 625 494 625 494 610 481 c 1,18,-1
 197 172 l 2,19,20
 182 162 182 162 170 162 c 0,21,22
 152 162 152 162 143 174 c 0,23,24
 135 184 135 184 139 203 c 0,0,1
518 203 m 1,25,26
 524 217 524 217 537 229 c 1,27,-1
 913 510 l 1,28,-1
 629 813 l 1,29,30
 617 821 617 821 621 840 c 0,31,32
 623 854 623 854 635 866 c 1,33,34
 653 880 653 880 668 881 c 0,35,36
 680 881 680 881 690 870 c 2,37,-1
 1001 541 l 2,38,39
 1013 529 1013 529 1010 512 c 0,40,41
 1008 496 1008 496 989 481 c 2,42,-1
 575 172 l 2,43,44
 561 162 561 162 549 162 c 0,45,46
 531 162 531 162 522 174 c 1,47,48
 516 188 516 188 518 203 c 1,25,26
EndSplineSet
EndChar
StartChar: questiondown
Encoding: 191 191 107
Width: 1024
GlyphClass: 2
Flags: W
LayerCount: 2
Back
Fore
SplineSet
-43 -317 m 0,0,1
 -39 -301 -39 -301 -26.5 -290 c 128,-1,2
 -14 -279 -14 -279 2 -279 c 0,3,4
 6 -279 6 -279 10 -280 c 128,-1,5
 14 -281 14 -281 20 -283 c 0,6,7
 57 -293 57 -293 113.5 -300 c 128,-1,8
 170 -307 170 -307 240 -307 c 0,9,10
 260 -307 260 -307 279.5 -307 c 128,-1,11
 299 -307 299 -307 317 -303 c 1,12,13
 395 -297 395 -297 461 -256 c 1,14,15
 516 -219 516 -219 557 -164 c 0,16,17
 594 -115 594 -115 613.5 -67.5 c 128,-1,18
 633 -20 633 -20 639 8 c 1,19,-1
 641 10 l 1,20,21
 641 22 641 22 653 59 c 1,22,23
 657 75 657 75 662.5 97 c 128,-1,24
 668 119 668 119 674 145 c 2,25,-1
 690 213 l 1,26,-1
 639 158 l 1,27,28
 496 8 496 8 326 2 c 1,29,-1
 317 2 l 2,30,31
 155 2 155 2 72 141 c 0,32,33
 39 196 39 196 25.5 268 c 128,-1,34
 12 340 12 340 23 418 c 1,35,36
 31 492 31 492 59.5 570.5 c 128,-1,37
 88 649 88 649 139 724 c 128,-1,38
 190 799 190 799 264 863.5 c 128,-1,39
 338 928 338 928 438 969 c 1,40,41
 530 1008 530 1008 621 1008 c 0,42,43
 693 1008 693 1008 744 987.5 c 128,-1,44
 795 967 795 967 827 944 c 1,45,-1
 856 926 l 1,46,-1
 862 963 l 2,47,48
 864 971 864 971 878.5 1032.5 c 128,-1,49
 893 1094 893 1094 909 1171 c 0,50,51
 925 1249 925 1249 936.5 1305.5 c 128,-1,52
 948 1362 948 1362 952 1374 c 0,53,54
 956 1388 956 1388 969.5 1397.5 c 128,-1,55
 983 1407 983 1407 999 1407 c 0,56,57
 1013 1407 1013 1407 1021.5 1395.5 c 128,-1,58
 1030 1384 1030 1384 1026 1368 c 0,59,60
 1026 1366 1026 1366 1012.5 1307.5 c 128,-1,61
 999 1249 999 1249 977.5 1155 c 128,-1,62
 956 1061 956 1061 928.5 940 c 128,-1,63
 901 819 901 819 873.5 694 c 128,-1,64
 846 569 846 569 818.5 447.5 c 128,-1,65
 791 326 791 326 768 229.5 c 128,-1,66
 745 133 745 133 731 70.5 c 128,-1,67
 717 8 717 8 715 2 c 0,68,69
 692 -80 692 -80 652 -147.5 c 128,-1,70
 612 -215 612 -215 560 -264 c 128,-1,71
 508 -313 508 -313 443.5 -343 c 128,-1,72
 379 -373 379 -373 309 -379 c 1,73,-1
 307 -379 l 1,74,75
 284 -383 284 -383 264.5 -383 c 128,-1,76
 245 -383 245 -383 225 -383 c 0,77,78
 153 -383 153 -383 94 -376 c 128,-1,79
 35 -369 35 -369 -8 -358 c 1,80,-1
 -6 -356 l 1,81,-1
 -23 -352 l 2,82,83
 -52 -346 -52 -346 -43 -317 c 0,0,1
82 420 m 1,84,85
 76 361 76 361 86 300.5 c 128,-1,86
 96 240 96 240 121 193 c 0,87,88
 187 70 187 70 324 70 c 2,89,-1
 330 70 l 1,90,91
 396 74 396 74 461 100.5 c 128,-1,92
 526 127 526 127 580 176 c 1,93,94
 713 301 713 301 766 541 c 0,95,96
 774 576 774 576 784.5 627 c 128,-1,97
 795 678 795 678 805 727 c 128,-1,98
 815 776 815 776 822 811 c 2,99,-1
 829 846 l 1,100,-1
 831 854 l 1,101,-1
 827 860 l 1,102,103
 823 864 823 864 809 875.5 c 128,-1,104
 795 887 795 887 768 899 c 0,105,106
 743 911 743 911 704.5 922.5 c 128,-1,107
 666 934 666 934 612 934 c 0,108,109
 532 934 532 934 446 899 c 1,110,111
 342 860 342 860 264 784 c 1,112,113
 201 727 201 727 156 643 c 1,114,115
 115 569 115 569 100.5 508 c 128,-1,116
 86 447 86 447 82 420 c 1,84,85
EndSplineSet
EndChar
StartChar: endash
Encoding: 8211 8211 122
Width: 1007
GlyphClass: 2
Flags: W
LayerCount: 2
Back
Fore
SplineSet
2 510 m 0,0,1
 12 549 12 549 49 549 c 2,2,-1
 893 549 l 2,3,4
 909 549 909 549 918.5 537.5 c 128,-1,5
 928 526 928 526 924 510 c 256,6,7
 920 494 920 494 907.5 483.5 c 128,-1,8
 895 473 895 473 879 473 c 2,9,-1
 35 473 l 2,10,11
 19 473 19 473 8.5 483.5 c 128,-1,12
 -2 494 -2 494 2 510 c 0,0,1
EndSplineSet
EndChar
StartChar: emdash
Encoding: 8212 8212 123
Width: 1595
GlyphClass: 2
Flags: W
LayerCount: 2
Back
Fore
SplineSet
2 510 m 256,0,1
 6 526 6 526 19.5 537.5 c 128,-1,2
 33 549 33 549 49 549 c 2,3,-1
 1483 549 l 2,4,5
 1499 549 1499 549 1507.5 537.5 c 128,-1,6
 1516 526 1516 526 1511 510 c 0,7,8
 1507 494 1507 494 1495 482.5 c 128,-1,9
 1483 471 1483 471 1466 471 c 2,10,-1
 33 471 l 2,11,12
 17 471 17 471 7.5 482.5 c 128,-1,13
 -2 494 -2 494 2 510 c 256,0,1
EndSplineSet
EndChar
StartChar: quoteleft
Encoding: 8216 8216 124
Width: 280
GlyphClass: 2
Flags: W
LayerCount: 2
Back
Fore
SplineSet
250 1208 m 1,0,-1
 252 1210 l 1,1,2
 256 1222 256 1222 265 1239 c 0,3,4
 271 1249 271 1249 291.5 1283 c 128,-1,5
 312 1317 312 1317 334.5 1353 c 128,-1,6
 357 1389 357 1389 374 1418 c 2,7,-1
 392 1448 l 2,8,9
 402 1466 402 1466 420 1466 c 0,10,11
 424 1466 424 1466 426 1465 c 128,-1,12
 428 1464 428 1464 431 1464 c 1,13,14
 454 1454 454 1454 439 1430 c 2,15,-1
 347 1280 l 1,16,-1
 357 1270 l 1,17,18
 375 1250 375 1250 365 1214 c 1,19,20
 355 1185 355 1185 331.5 1166 c 128,-1,21
 308 1147 308 1147 285 1147 c 256,22,23
 262 1147 262 1147 254 1161 c 1,24,25
 240 1181 240 1181 250 1208 c 1,0,-1
EndSplineSet
EndChar
StartChar: quoteright
Encoding: 8217 8217 125
Width: 321
GlyphClass: 2
Flags: W
LayerCount: 2
Back
Fore
SplineSet
129 1196 m 2,0,-1
 221 1346 l 1,1,-1
 211 1356 l 1,2,3
 193 1376 193 1376 203 1412 c 1,4,5
 213 1441 213 1441 236.5 1460 c 128,-1,6
 260 1479 260 1479 283 1479 c 256,7,8
 306 1479 306 1479 314 1465 c 1,9,10
 328 1445 328 1445 318 1418 c 1,11,-1
 316 1416 l 1,12,13
 312 1404 312 1404 303 1387 c 0,14,15
 297 1377 297 1377 276.5 1343 c 128,-1,16
 256 1309 256 1309 233.5 1273 c 128,-1,17
 211 1237 211 1237 194 1208 c 2,18,-1
 176 1178 l 2,19,20
 166 1160 166 1160 148 1160 c 0,21,22
 144 1160 144 1160 142 1161 c 128,-1,23
 140 1162 140 1162 137 1162 c 1,24,25
 114 1172 114 1172 129 1196 c 2,0,-1
EndSplineSet
EndChar
StartChar: quotedblleft
Encoding: 8220 8220 126
Width: 743
GlyphClass: 2
Flags: W
LayerCount: 2
Back
Fore
SplineSet
250 1208 m 1,0,-1
 252 1210 l 1,1,2
 256 1222 256 1222 265 1239 c 0,3,4
 271 1249 271 1249 291.5 1283 c 128,-1,5
 312 1317 312 1317 334.5 1353 c 128,-1,6
 357 1389 357 1389 374 1418 c 2,7,-1
 392 1448 l 2,8,9
 402 1466 402 1466 420 1466 c 0,10,11
 424 1466 424 1466 426 1465 c 128,-1,12
 428 1464 428 1464 431 1464 c 1,13,14
 454 1454 454 1454 439 1430 c 2,15,-1
 347 1280 l 1,16,-1
 357 1270 l 1,17,18
 375 1250 375 1250 365 1214 c 1,19,20
 355 1185 355 1185 331.5 1166 c 128,-1,21
 308 1147 308 1147 285 1147 c 256,22,23
 262 1147 262 1147 254 1161 c 1,24,25
 240 1181 240 1181 250 1208 c 1,0,-1
549 1208 m 1,26,-1
 551 1210 l 1,27,28
 555 1222 555 1222 564 1239 c 0,29,30
 570 1249 570 1249 590.5 1283 c 128,-1,31
 611 1317 611 1317 633.5 1353 c 128,-1,32
 656 1389 656 1389 673 1418 c 2,33,-1
 691 1448 l 2,34,35
 701 1466 701 1466 719 1466 c 0,36,37
 723 1466 723 1466 725 1465 c 128,-1,38
 727 1464 727 1464 730 1464 c 1,39,40
 753 1454 753 1454 738 1430 c 2,41,-1
 646 1280 l 1,42,-1
 656 1270 l 1,43,44
 674 1250 674 1250 664 1214 c 1,45,46
 654 1185 654 1185 630.5 1166 c 128,-1,47
 607 1147 607 1147 584 1147 c 256,48,49
 561 1147 561 1147 553 1161 c 1,50,51
 539 1181 539 1181 549 1208 c 1,26,-1
EndSplineSet
EndChar
StartChar: quotedblright
Encoding: 8221 8221 127
Width: 581
GlyphClass: 2
Flags: W
LayerCount: 2
Back
Fore
SplineSet
6 1196 m 2,0,-1
 98 1346 l 1,1,-1
 88 1356 l 1,2,3
 70 1376 70 1376 80 1412 c 1,4,5
 90 1441 90 1441 113.5 1460 c 128,-1,6
 137 1479 137 1479 160 1479 c 256,7,8
 183 1479 183 1479 191 1465 c 1,9,10
 205 1445 205 1445 195 1418 c 1,11,-1
 193 1416 l 1,12,13
 189 1404 189 1404 180 1387 c 0,14,15
 174 1377 174 1377 153.5 1343 c 128,-1,16
 133 1309 133 1309 110.5 1273 c 128,-1,17
 88 1237 88 1237 71 1208 c 2,18,-1
 53 1178 l 2,19,20
 43 1160 43 1160 25 1160 c 0,21,22
 21 1160 21 1160 19 1161 c 128,-1,23
 17 1162 17 1162 14 1162 c 1,24,25
 -9 1172 -9 1172 6 1196 c 2,0,-1
307 1196 m 2,26,-1
 399 1346 l 1,27,-1
 389 1356 l 1,28,29
 371 1376 371 1376 381 1412 c 1,30,31
 391 1441 391 1441 414.5 1460 c 128,-1,32
 438 1479 438 1479 461 1479 c 256,33,34
 484 1479 484 1479 492 1465 c 1,35,36
 506 1445 506 1445 496 1418 c 1,37,-1
 494 1416 l 1,38,39
 490 1404 490 1404 481 1387 c 0,40,41
 475 1377 475 1377 454.5 1343 c 128,-1,42
 434 1309 434 1309 411.5 1273 c 128,-1,43
 389 1237 389 1237 372 1208 c 2,44,-1
 354 1178 l 2,45,46
 344 1160 344 1160 326 1160 c 0,47,48
 322 1160 322 1160 320 1161 c 128,-1,49
 318 1162 318 1162 315 1162 c 1,50,51
 292 1172 292 1172 307 1196 c 2,26,-1
EndSplineSet
EndChar
StartChar: bullet
Encoding: 8226 8226 128
Width: 425
GlyphClass: 2
Flags: W
LayerCount: 2
Back
Fore
SplineSet
4 518 m 0,0,1
 12 553 12 553 31.5 583.5 c 128,-1,2
 51 614 51 614 78.5 636.5 c 128,-1,3
 106 659 106 659 140 672.5 c 128,-1,4
 174 686 174 686 209 686 c 0,5,6
 279 686 279 686 317.5 637 c 128,-1,7
 356 588 356 588 340 518 c 1,8,9
 326 448 326 448 266.5 399 c 128,-1,10
 207 350 207 350 137 350 c 256,11,12
 67 350 67 350 28.5 399.5 c 128,-1,13
 -10 449 -10 449 4 518 c 0,0,1
EndSplineSet
EndChar
StartChar: ellipsis
Encoding: 8230 8230 129
Width: 1251
GlyphClass: 2
Flags: W
LayerCount: 2
Back
Fore
SplineSet
4 63 m 256,0,1
 14 92 14 92 36.5 112.5 c 128,-1,2
 59 133 59 133 82 133 c 0,3,4
 94 133 94 133 101.5 128 c 128,-1,5
 109 123 109 123 113 117 c 0,6,7
 119 107 119 107 120 94.5 c 128,-1,8
 121 82 121 82 119 68 c 1,9,10
 109 39 109 39 85.5 19.5 c 128,-1,11
 62 0 62 0 39 0 c 0,12,13
 14 0 14 0 8 14 c 1,14,15
 -6 34 -6 34 4 63 c 256,0,1
526 63 m 256,16,17
 536 92 536 92 558.5 112.5 c 128,-1,18
 581 133 581 133 604 133 c 0,19,20
 616 133 616 133 623.5 128 c 128,-1,21
 631 123 631 123 635 117 c 0,22,23
 641 107 641 107 642 94.5 c 128,-1,24
 643 82 643 82 641 68 c 1,25,26
 631 39 631 39 607.5 19.5 c 128,-1,27
 584 0 584 0 561 0 c 0,28,29
 536 0 536 0 530 14 c 1,30,31
 516 34 516 34 526 63 c 256,16,17
1053 63 m 256,32,33
 1063 92 1063 92 1085.5 112.5 c 128,-1,34
 1108 133 1108 133 1131 133 c 0,35,36
 1143 133 1143 133 1150.5 128 c 128,-1,37
 1158 123 1158 123 1162 117 c 0,38,39
 1168 107 1168 107 1169 94.5 c 128,-1,40
 1170 82 1170 82 1168 68 c 1,41,42
 1158 39 1158 39 1134.5 19.5 c 128,-1,43
 1111 0 1111 0 1088 0 c 0,44,45
 1063 0 1063 0 1057 14 c 1,46,47
 1043 34 1043 34 1053 63 c 256,32,33
EndSplineSet
EndChar
StartChar: guilsinglleft
Encoding: 8249 8249 131
Width: 559
GlyphClass: 2
Flags: W
LayerCount: 2
Back
Fore
SplineSet
-15 530 m 1,0,1
 -11 548 -11 548 4 561 c 1,2,-1
 418 870 l 2,3,4
 432 880 432 880 444 880 c 0,5,6
 462 880 462 880 471 868 c 0,7,8
 479 858 479 858 475 839 c 0,9,10
 473 831 473 831 468 825 c 128,-1,11
 463 819 463 819 457 813 c 1,12,-1
 82 532 l 1,13,-1
 366 229 l 2,14,15
 376 219 376 219 373 202 c 1,16,17
 373 190 373 190 358 176 c 0,18,19
 344 162 344 162 325 161 c 0,20,21
 313 161 313 161 303 172 c 2,22,-1
 -8 501 l 2,23,24
 -20 515 -20 515 -15 530 c 1,0,1
EndSplineSet
EndChar
StartChar: guilsinglright
Encoding: 8250 8250 132
Width: 575
GlyphClass: 2
Flags: W
LayerCount: 2
Back
Fore
SplineSet
2 203 m 0,0,1
 4 211 4 211 9 217 c 128,-1,2
 14 223 14 223 20 229 c 1,3,-1
 395 510 l 1,4,-1
 111 813 l 2,5,6
 101 823 101 823 104 840 c 1,7,8
 104 852 104 852 119 866 c 0,9,10
 133 880 133 880 152 881 c 0,11,12
 164 881 164 881 174 870 c 2,13,-1
 485 541 l 2,14,15
 497 527 497 527 492 512 c 1,16,17
 488 494 488 494 473 481 c 1,18,-1
 59 172 l 2,19,20
 45 162 45 162 33 162 c 0,21,22
 15 162 15 162 6 174 c 0,23,24
 -2 184 -2 184 2 203 c 0,0,1
EndSplineSet
EndChar
StartChar: Euro
Encoding: 8364 8364 134
Width: 1329
GlyphClass: 2
Flags: W
LayerCount: 2
Back
Fore
SplineSet
2 586 m 0,0,1
 6 602 6 602 20.5 614.5 c 128,-1,2
 35 627 35 627 51 627 c 2,3,-1
 174 627 l 1,4,-1
 178 645 l 1,5,6
 196 715 196 715 227 784 c 1,7,-1
 240 811 l 1,8,-1
 90 811 l 2,9,10
 74 811 74 811 64.5 822.5 c 128,-1,11
 55 834 55 834 59 850 c 256,12,13
 63 866 63 866 76.5 877.5 c 128,-1,14
 90 889 90 889 106 889 c 2,15,-1
 279 889 l 1,16,-1
 285 903 l 1,17,18
 291 913 291 913 296 921.5 c 128,-1,19
 301 930 301 930 305 940 c 1,20,21
 313 954 313 954 334.5 986 c 128,-1,22
 356 1018 356 1018 388 1059 c 128,-1,23
 420 1100 420 1100 462 1146 c 128,-1,24
 504 1192 504 1192 557 1239 c 0,25,26
 649 1319 649 1319 739 1364 c 0,27,28
 839 1413 839 1413 942 1413 c 0,29,30
 1124 1413 1124 1413 1231 1307 c 1,31,-1
 1237 1298 l 1,32,33
 1251 1288 1251 1288 1245 1272 c 1,34,35
 1243 1258 1243 1258 1231 1247.5 c 128,-1,36
 1219 1237 1219 1237 1204 1237 c 0,37,38
 1192 1237 1192 1237 1186 1245 c 1,39,40
 1184 1245 1184 1245 1181 1248 c 128,-1,41
 1178 1251 1178 1251 1176 1253 c 0,42,43
 1082 1341 1082 1341 915 1341 c 0,44,45
 872 1341 872 1341 828 1327 c 128,-1,46
 784 1313 784 1313 743 1291.5 c 128,-1,47
 702 1270 702 1270 666.5 1243.5 c 128,-1,48
 631 1217 631 1217 600 1192 c 1,49,50
 532 1133 532 1133 471 1061 c 128,-1,51
 410 989 410 989 367 918 c 1,52,-1
 350 889 l 1,53,-1
 791 889 l 2,54,55
 807 889 807 889 816 877.5 c 128,-1,56
 825 866 825 866 821 850 c 0,57,58
 811 811 811 811 774 811 c 2,59,-1
 309 811 l 1,60,-1
 301 795 l 1,61,62
 285 756 285 756 271.5 720 c 128,-1,63
 258 684 258 684 248 649 c 1,64,-1
 244 627 l 1,65,-1
 733 625 l 2,66,67
 749 625 749 625 758.5 613.5 c 128,-1,68
 768 602 768 602 764 586 c 256,69,70
 760 570 760 570 746.5 558.5 c 128,-1,71
 733 547 733 547 717 547 c 2,72,-1
 227 547 l 1,73,-1
 225 522 l 2,74,75
 221 463 221 463 228.5 416 c 128,-1,76
 236 369 236 369 250 330 c 128,-1,77
 264 291 264 291 282.5 261 c 128,-1,78
 301 231 301 231 319 211 c 0,79,80
 442 76 442 76 616 70 c 1,81,-1
 618 70 l 1,82,-1
 623 70 l 2,83,84
 627 70 627 70 639 69 c 128,-1,85
 651 68 651 68 655 68 c 2,86,-1
 657 68 l 1,87,88
 770 74 770 74 881 121 c 1,89,-1
 887 123 l 1,90,-1
 889 125 l 1,91,92
 901 129 901 129 907 129 c 0,93,94
 923 129 923 129 931.5 119 c 128,-1,95
 940 109 940 109 936 94 c 1,96,97
 932 71 932 71 907 61 c 2,98,-1
 897 57 l 1,99,100
 774 4 774 4 645 -2 c 1,101,-1
 623 -2 l 1,102,-1
 614 -2 l 2,103,104
 403 -2 403 -2 264 156 c 0,105,106
 131 306 131 306 156 528 c 1,107,-1
 158 547 l 1,108,-1
 33 547 l 2,109,110
 17 547 17 547 7.5 558 c 128,-1,111
 -2 569 -2 569 2 586 c 0,0,1
EndSplineSet
EndChar
StartChar: trademark
Encoding: 8482 8482 135
Width: 1171
GlyphClass: 2
Flags: W
LayerCount: 2
Back
Fore
SplineSet
2 1384 m 1,0,1
 10 1411 10 1411 33 1411 c 2,2,-1
 553 1411 l 2,3,4
 580 1411 580 1411 571 1384 c 1,5,6
 567 1359 567 1359 543 1360 c 1,7,-1
 315 1360 l 1,8,-1
 238 997 l 2,9,10
 236 987 236 987 225.5 980 c 128,-1,11
 215 973 215 973 205 973 c 0,12,13
 182 973 182 973 186 997 c 1,14,-1
 264 1360 l 1,15,-1
 23 1360 l 2,16,17
 -2 1360 -2 1360 2 1384 c 1,0,1
416 992 m 128,-1,19
 414 1001 414 1001 422 1012 c 2,20,-1
 670 1395 l 2,21,22
 680 1409 680 1409 696 1409 c 2,23,-1
 698 1409 l 2,24,25
 712 1409 712 1409 717 1393 c 1,26,-1
 768 1065 l 1,27,-1
 987 1395 l 1,28,29
 995 1409 995 1409 1014 1409 c 2,30,-1
 1016 1409 l 2,31,32
 1030 1409 1030 1409 1034 1393 c 1,33,-1
 1090 1004 l 1,34,35
 1090 992 1090 992 1083 983 c 0,36,37
 1077 975 1077 975 1065 971 c 1,38,39
 1063 969 1063 969 1057 969 c 0,40,41
 1041 969 1041 969 1036 985 c 1,42,-1
 991 1315 l 1,43,-1
 774 987 l 1,44,45
 766 973 766 973 745 973 c 0,46,47
 729 973 729 973 725 989 c 1,48,-1
 674 1315 l 1,49,-1
 461 991 l 1,50,51
 453 977 453 977 436 977 c 0,52,53
 430 977 430 977 426 979 c 0,54,18
 418 983 418 983 416 992 c 128,-1,19
EndSplineSet
EndChar
StartChar: .notdef
Encoding: 65536 -1 0
Width: 748
Flags: W
LayerCount: 2
Back
Fore
SplineSet
68 0 m 1,0,-1
 68 1365 l 1,1,-1
 612 1365 l 1,2,-1
 612 0 l 1,3,-1
 68 0 l 1,0,-1
136 68 m 1,4,-1
 544 68 l 1,5,-1
 544 1297 l 1,6,-1
 136 1297 l 1,7,-1
 136 68 l 1,4,-1
EndSplineSet
EndChar
